<svg width="112" height="93" viewBox="0 0 112 93" fill="none" xmlns="http://www.w3.org/2000/svg">
<rect y="25" width="65" height="65" fill="#FBD333"/>
<path d="M44.2432 57.0155C41.9438 57.0155 40.7953 55.9513 39.9568 55.1746L39.8166 55.0456C39.5218 54.775 39.502 54.3158 39.7734 54.021C40.0455 53.7262 40.5038 53.7091 40.7987 53.977L40.9426 54.1102C41.7142 54.8246 42.5122 55.5642 44.2432 55.5642C44.6443 55.5642 44.9689 55.8888 44.9689 56.2898C44.9689 56.6909 44.6443 57.0155 44.2432 57.0155Z" fill="black"/>
<path d="M25.8263 56.8652C25.4563 56.8652 25.1397 56.5831 25.1048 56.2076C25.0672 55.808 25.3598 55.4551 25.7589 55.4168C29.5585 55.0597 34.1968 54.113 37.3011 53.0629C37.6816 52.9396 38.0919 53.1379 38.2209 53.5179C38.3491 53.8977 38.1457 54.3088 37.7661 54.4374C34.5661 55.5201 29.7951 56.4952 25.8951 56.8623C25.8717 56.8639 25.849 56.8652 25.8263 56.8652Z" fill="black"/>
<path d="M65.5003 57.0155C63.2009 57.0155 62.053 55.9525 61.2147 55.176C60.9206 54.9025 60.9037 54.4433 61.1758 54.1501C61.4485 53.8553 61.9056 53.8382 62.2012 54.1103C62.9728 54.826 63.77 55.5644 65.5003 55.5644C65.9014 55.5644 66.226 55.889 66.226 56.29C66.226 56.6911 65.9014 57.0155 65.5003 57.0155Z" fill="black"/>
<path d="M47.1153 56.861C46.7453 56.861 46.4294 56.5789 46.394 56.2034C46.3557 55.8053 46.649 55.4509 47.0481 55.4126C50.8772 55.0513 55.522 54.106 58.6051 53.0629C58.9864 52.9396 59.396 53.1379 59.5248 53.5179C59.653 53.8977 59.4498 54.3088 59.07 54.4374C55.8913 55.513 51.1146 56.4852 47.1841 56.8579C47.1612 56.8595 47.1378 56.861 47.1153 56.861Z" fill="black"/>
<path d="M86.7577 57.0155C84.6603 57.0155 83.5463 56.1582 82.6665 55.3546C82.3702 55.0839 82.349 54.626 82.6196 54.3299C82.8888 54.0322 83.3496 54.0124 83.6444 54.2831C84.3841 54.9577 85.1791 55.5642 86.7579 55.5642C87.159 55.5642 87.4836 55.8888 87.4836 56.2899C87.4836 56.6909 87.1588 57.0155 86.7577 57.0155Z" fill="black"/>
<path d="M68.4036 56.858C68.0324 56.858 67.7179 56.5774 67.6809 56.2019C67.644 55.8023 67.9359 55.4481 68.3355 55.4098C72.1461 55.0471 76.9093 54.0806 79.9182 53.063C80.3007 52.9397 80.7103 53.138 80.8378 53.518C80.9653 53.8978 80.7626 54.3089 80.3828 54.4375C77.2324 55.5046 72.4453 56.4755 68.4716 56.8553C68.449 56.8568 68.4263 56.858 68.4036 56.858Z" fill="black"/>
<path d="M89.6883 56.8568C89.3199 56.8568 89.0037 56.5762 88.9685 56.2007C88.9287 55.8025 89.2208 55.4469 89.6202 55.4086C93.4552 55.0402 98.0837 54.0962 101.139 53.0632C102.93 52.4611 103.877 53.3368 104.713 54.1106C104.912 54.2949 105.118 54.4875 105.351 54.6704C105.664 54.9198 105.717 55.3762 105.467 55.6907C105.218 56.004 104.761 56.0578 104.447 55.8069C104.186 55.5987 103.951 55.3833 103.727 55.175C102.909 54.4154 102.539 54.1264 101.603 54.4379C98.4537 55.5036 93.6935 56.4744 89.7595 56.8542C89.7366 56.8553 89.7125 56.8568 89.6883 56.8568Z" fill="black"/>
<path d="M45.5469 46.858C43.3716 46.858 42.301 45.8644 41.5194 45.1396C41.2253 44.867 41.2084 44.4076 41.4805 44.1143C41.7526 43.8189 42.2111 43.8018 42.5059 44.0754C43.2117 44.7302 43.9416 45.4068 45.5471 45.4068C45.9481 45.4068 46.2727 45.7314 46.2727 46.1325C46.2727 46.5335 45.948 46.858 45.5469 46.858Z" fill="black"/>
<path d="M28.5395 46.6878C28.1711 46.6878 27.8558 46.4094 27.8182 46.0352C27.7777 45.6363 28.0691 45.2805 28.4672 45.2401C32.0157 44.8823 36.2801 44.0057 39.079 43.0583C39.4588 42.9329 39.8699 43.1335 39.9987 43.5133C40.1269 43.8924 39.9235 44.3047 39.5438 44.4329C36.6521 45.4114 32.2588 46.3164 28.6133 46.6842C28.5884 46.6864 28.5635 46.6878 28.5395 46.6878Z" fill="black"/>
<path d="M65.4994 46.858C63.5183 46.858 62.4682 46.0502 61.639 45.2933C61.343 45.0234 61.3215 44.5642 61.5924 44.2687C61.863 43.9704 62.3222 43.9506 62.617 44.222C63.3016 44.8463 64.0362 45.4067 65.4994 45.4067C65.9005 45.4067 66.2251 45.7313 66.2251 46.1323C66.2251 46.5334 65.9005 46.858 65.4994 46.858Z" fill="black"/>
<path d="M48.4691 46.6907C48.1007 46.6907 47.7854 46.4115 47.7478 46.0373C47.708 45.6384 47.9986 45.2833 48.3975 45.243C51.9482 44.8866 56.2195 44.0086 59.0264 43.0584C59.4033 42.9331 59.8173 43.1336 59.946 43.5134C60.0743 43.8925 59.8708 44.3043 59.491 44.433C56.5915 45.4152 52.1913 46.3208 48.5421 46.687C48.5174 46.6892 48.4932 46.6907 48.4691 46.6907Z" fill="black"/>
<path d="M85.4543 46.8579C83.6048 46.8579 82.5406 46.1365 81.7441 45.4315C81.4451 45.1658 81.4166 44.7066 81.6816 44.4069C81.9508 44.1079 82.4073 44.081 82.7075 44.3446C83.2859 44.8584 84.0257 45.4068 85.4541 45.4068C85.8552 45.4068 86.1796 45.7314 86.1796 46.1325C86.1796 46.5335 85.8554 46.8579 85.4543 46.8579Z" fill="black"/>
<path d="M68.4041 46.6934C68.0357 46.6934 67.7197 46.4143 67.6814 46.0401C67.6416 45.6412 67.9337 45.2854 68.3318 45.2458C71.896 44.8887 76.1772 44.0099 78.9874 43.0583C79.3674 42.9329 79.7783 43.1335 79.9072 43.5133C80.0362 43.8924 79.832 44.3047 79.4522 44.4329C76.5498 45.4158 72.1381 46.3227 68.4762 46.6898C68.4522 46.6922 68.4268 46.6934 68.4041 46.6934Z" fill="black"/>
<path d="M88.3348 46.6948C87.9664 46.6948 87.6518 46.4157 87.615 46.0408C87.5752 45.6419 87.8658 45.2868 88.264 45.2472C91.8296 44.8928 96.1208 44.0135 98.9408 43.0582C100.65 42.4815 101.546 43.3161 102.339 44.0511L102.648 44.3339C102.949 44.6003 102.974 45.0586 102.709 45.3585C102.441 45.6569 101.982 45.6831 101.684 45.4194L101.353 45.1155C100.624 44.4416 100.293 44.1353 99.4056 44.4331C96.4919 45.4201 92.0732 46.3279 88.4084 46.6914C88.3831 46.6934 88.3604 46.6948 88.3348 46.6948Z" fill="black"/>
<path d="M46.766 38.1507C44.8811 38.1507 43.8765 37.3734 43.0829 36.6443C42.7874 36.3737 42.7676 35.9145 43.0389 35.6197C43.3096 35.3229 43.7682 35.3038 44.0636 35.5757C44.7338 36.1908 45.3999 36.6995 46.766 36.6995C47.1671 36.6995 47.4917 37.0241 47.4917 37.4252C47.4917 37.8263 47.1671 38.1507 46.766 38.1507Z" fill="black"/>
<path d="M30.8619 37.985C30.4941 37.985 30.1788 37.7073 30.1405 37.3338C30.1001 36.9349 30.39 36.5785 30.7882 36.5373C34.0377 36.2036 37.9824 35.3859 40.6035 34.5031C40.9833 34.3747 41.3949 34.5789 41.5226 34.9587C41.651 35.3385 41.4469 35.7501 41.0671 35.8778C38.3114 36.8067 34.3349 37.6322 30.937 37.9817C30.9115 37.9835 30.8868 37.985 30.8619 37.985Z" fill="black"/>
<path d="M65.5131 38.1507C63.7601 38.1507 62.7511 37.4661 61.9964 36.796C61.6959 36.5303 61.669 36.0718 61.9348 35.7721C62.1998 35.4702 62.659 35.4433 62.9594 35.7105C63.4987 36.1888 64.1853 36.6997 65.5133 36.6997C65.9143 36.6997 66.2388 37.0243 66.2388 37.4254C66.2388 37.8264 65.9143 38.1507 65.5131 38.1507Z" fill="black"/>
<path d="M49.6334 37.9821C49.2656 37.9821 48.9512 37.7044 48.9121 37.3309C48.8709 36.9328 49.1608 36.5757 49.5597 36.5345C52.8419 36.1959 56.7951 35.3796 59.3977 34.503C59.7768 34.3746 60.1898 34.5802 60.3168 34.9585C60.445 35.3384 60.241 35.7499 59.8612 35.8776C57.1671 36.7855 53.0871 37.6294 49.7086 37.9787C49.683 37.9807 49.6581 37.9821 49.6334 37.9821Z" fill="black"/>
<path d="M84.2588 38.1507C82.5923 38.1507 81.6272 37.5337 80.9724 36.9951C80.662 36.7408 80.618 36.2836 80.8716 35.9739C81.1252 35.6664 81.5831 35.6183 81.8935 35.874C82.4165 36.3027 83.0627 36.6996 84.2587 36.6996C84.6597 36.6996 84.9843 37.0242 84.9843 37.4252C84.9843 37.8263 84.6599 38.1507 84.2588 38.1507Z" fill="black"/>
<path d="M68.4041 37.9807C68.0358 37.9807 67.7212 37.7029 67.6814 37.3302C67.6416 36.9313 67.9308 36.5748 68.3289 36.533C71.6522 36.1886 75.6175 35.3723 78.1995 34.503C78.5795 34.3746 78.9916 34.5802 79.1193 34.9585C79.2483 35.3384 79.0441 35.7499 78.6643 35.8776C75.99 36.7782 71.8973 37.6221 68.4792 37.9772C68.4537 37.9792 68.4281 37.9807 68.4041 37.9807Z" fill="black"/>
<path d="M87.1736 37.9765C86.8053 37.9765 86.4905 37.6988 86.4509 37.3261C86.4113 36.9272 86.7003 36.5706 87.0986 36.5288C90.3865 36.1873 94.3332 35.3731 96.9183 34.503C98.5411 33.9454 99.4351 34.7729 100.155 35.4375L100.334 35.6026C100.631 35.8726 100.652 36.331 100.383 36.628C100.114 36.9248 99.6545 36.9468 99.3583 36.6769L99.1685 36.5032C98.4428 35.8315 98.1536 35.6161 97.3828 35.8767C94.7043 36.7788 90.6314 37.6207 87.2485 37.9729C87.223 37.9751 87.1976 37.9765 87.1736 37.9765Z" fill="black"/>
<path d="M47.7226 30.8949C46.0412 30.8949 45.0718 30.2324 44.3447 29.584C44.045 29.3175 44.0188 28.859 44.286 28.5601C44.5532 28.2596 45.0115 28.2347 45.3099 28.5012C45.8456 28.978 46.4726 29.4436 47.7226 29.4436C48.1237 29.4436 48.4483 29.768 48.4483 30.169C48.4483 30.5701 48.1237 30.8949 47.7226 30.8949Z" fill="black"/>
<path d="M32.7911 30.7205C32.4248 30.7205 32.1102 30.4442 32.0706 30.0715C32.0281 29.6733 32.3165 29.3162 32.7154 29.2736C35.804 28.9441 39.3981 28.1944 41.8717 27.3625C42.2508 27.2356 42.6626 27.4397 42.7908 27.8195C42.9183 28.1993 42.7136 28.6104 42.3338 28.7386C39.7687 29.6011 36.0536 30.377 32.8685 30.7163C32.8429 30.7191 32.8166 30.7205 32.7911 30.7205Z" fill="black"/>
<path d="M65.501 30.8948C63.8918 30.8948 62.9571 30.2868 62.323 29.7568C62.0155 29.4994 61.9744 29.0426 62.2309 28.7351C62.4888 28.4276 62.9451 28.3865 63.2526 28.643C63.7507 29.059 64.3681 29.4437 65.501 29.4437C65.902 29.4437 66.2266 29.7681 66.2266 30.1691C66.2266 30.5702 65.902 30.8948 65.501 30.8948Z" fill="black"/>
<path d="M50.5685 30.7205C50.2021 30.7205 49.8875 30.4442 49.8479 30.0722C49.8054 29.6733 50.0938 29.3162 50.492 29.2737C53.5759 28.9449 57.2754 28.1768 59.6974 27.3626C60.0765 27.2357 60.4882 27.4398 60.6165 27.8196C60.744 28.1995 60.5393 28.6105 60.1593 28.7388C57.6474 29.5827 53.8246 30.3777 50.6466 30.7165C50.6202 30.719 50.5939 30.7205 50.5685 30.7205Z" fill="black"/>
<path d="M83.2768 30.8948C82.129 30.8948 81.1992 30.5971 80.346 29.9574C80.0258 29.7165 79.962 29.2615 80.2016 28.9413C80.4424 28.6196 80.8987 28.5565 81.2191 28.7967C81.6187 29.0978 82.2153 29.4437 83.2768 29.4437C83.6778 29.4437 84.0024 29.7681 84.0024 30.1691C84.0024 30.5702 83.6778 30.8948 83.2768 30.8948Z" fill="black"/>
<path d="M68.4015 30.7148C68.0344 30.7148 67.72 30.4391 67.6802 30.0665C67.6362 29.6684 67.9254 29.3106 68.325 29.2681C71.44 28.9337 75.1389 28.1675 77.5324 27.3626C77.9136 27.2357 78.3245 27.4398 78.4519 27.8196C78.5795 28.1995 78.3754 28.6105 77.9941 28.7388C75.5127 29.5736 71.6877 30.3664 68.4778 30.7106C68.4525 30.7134 68.4269 30.7148 68.4015 30.7148Z" fill="black"/>
<path d="M86.2025 30.7119C85.8369 30.7119 85.5225 30.4362 85.4827 30.0644C85.4402 29.6662 85.7265 29.3084 86.1261 29.2652C89.2027 28.9315 92.8775 28.1668 95.2682 27.3627C96.8285 26.8312 97.6846 27.6206 98.3719 28.2556C98.6651 28.5277 98.6851 28.9882 98.4142 29.283C98.1407 29.5756 97.6831 29.5969 97.3896 29.3248C96.6979 28.6841 96.4429 28.4936 95.7343 28.7373C93.2119 29.5856 89.5019 30.3587 86.2819 30.7079C86.2565 30.7105 86.2294 30.7119 86.2025 30.7119Z" fill="black"/>
<path d="M42.6442 68.625C40.1946 68.625 38.9696 67.4898 38.0745 66.6608C37.2355 65.8855 36.8161 65.4988 35.734 65.8603C31.2232 67.3851 24.07 68.6252 19.788 68.6252C19.3869 68.6252 19.0625 68.3006 19.0625 67.8995C19.0625 67.4985 19.3869 67.1741 19.788 67.1741C23.868 67.1741 30.9574 65.9425 35.2692 64.4856C37.1661 63.8393 38.1729 64.7748 39.06 65.5965C39.8976 66.3719 40.7635 67.1741 42.644 67.1741C43.0451 67.1741 43.3696 67.4985 43.3696 67.8995C43.3696 68.3006 43.0452 68.625 42.6442 68.625Z" fill="black"/>
<path d="M65.4998 68.625C63.0502 68.625 61.8252 67.4898 60.9301 66.6608C60.0911 65.8855 59.6703 65.4988 58.5897 65.8603C54.0788 67.3851 46.9256 68.6252 42.6436 68.6252C42.2426 68.6252 41.918 68.3006 41.918 67.8995C41.918 67.4985 42.2426 67.1741 42.6436 67.1741C46.7236 67.1741 53.8131 65.9425 58.1249 64.4856C60.0225 63.8393 61.0295 64.7748 61.9159 65.5965C62.7534 66.3719 63.6193 67.1741 65.4998 67.1741C65.9009 67.1741 66.2255 67.4985 66.2255 67.8995C66.2255 68.3006 65.9009 68.625 65.4998 68.625Z" fill="black"/>
<path d="M88.3553 68.625C85.9064 68.625 84.6793 67.4898 83.7849 66.6608C82.9475 65.8855 82.5223 65.4988 81.4451 65.8603C76.9343 67.3851 69.7818 68.6252 65.4991 68.6252C65.098 68.6252 64.7734 68.3006 64.7734 67.8995C64.7734 67.4985 65.098 67.1741 65.4991 67.1741C69.5793 67.1741 76.6693 65.9425 80.9803 64.4856C82.8777 63.8393 83.884 64.7748 84.7712 65.5965C85.6087 66.3719 86.4731 67.1741 88.3551 67.1741C88.7562 67.1741 89.0806 67.4985 89.0806 67.8995C89.0806 68.3006 88.7564 68.625 88.3553 68.625Z" fill="black"/>
<path d="M111.213 68.625C108.764 68.625 107.536 67.4898 106.642 66.6608C105.803 65.8855 105.381 65.4988 104.302 65.8603C99.7915 67.3851 92.6391 68.6252 88.3563 68.6252C87.9553 68.6252 87.6309 68.3006 87.6309 67.8995C87.6309 67.4985 87.9553 67.1741 88.3563 67.1741C92.4363 67.1741 99.5265 65.9425 103.838 64.4856C105.736 63.8393 106.74 64.7748 107.628 65.5965C108.466 66.3719 109.33 67.1741 111.212 67.1741C111.613 67.1741 111.938 67.4985 111.938 67.8995C111.938 68.3006 111.614 68.625 111.213 68.625Z" fill="black"/>
<path d="M42.6442 71.5274C40.1946 71.5274 38.9696 70.3921 38.0745 69.5633C37.2355 68.7878 36.8161 68.4013 35.734 68.7626C31.2232 70.2875 24.07 71.5275 19.788 71.5275C19.3869 71.5275 19.0625 71.2029 19.0625 70.8021C19.0625 70.4008 19.3869 70.0764 19.788 70.0764C23.868 70.0764 30.9574 68.8449 35.2692 67.3879C37.1661 66.7417 38.1729 67.6771 39.06 68.499C39.8976 69.2743 40.7635 70.0764 42.644 70.0764C43.0451 70.0764 43.3696 70.4008 43.3696 70.8021C43.3698 71.2028 43.0452 71.5274 42.6442 71.5274Z" fill="black"/>
<path d="M65.4998 71.5274C63.0502 71.5274 61.8252 70.3921 60.9301 69.5633C60.0911 68.7878 59.6703 68.4013 58.5897 68.7626C54.0788 70.2875 46.9256 71.5275 42.6436 71.5275C42.2426 71.5275 41.918 71.2029 41.918 70.8021C41.918 70.4008 42.2426 70.0764 42.6436 70.0764C46.7236 70.0764 53.8131 68.8449 58.1249 67.3879C60.0225 66.7417 61.0295 67.6771 61.9159 68.499C62.7534 69.2743 63.6193 70.0764 65.4998 70.0764C65.9009 70.0764 66.2255 70.4008 66.2255 70.8021C66.2255 71.2028 65.9009 71.5274 65.4998 71.5274Z" fill="black"/>
<path d="M88.3553 71.5274C85.9064 71.5274 84.6793 70.3921 83.7849 69.5633C82.9475 68.7878 82.5223 68.4013 81.4451 68.7626C76.9343 70.2875 69.7818 71.5275 65.4991 71.5275C65.098 71.5275 64.7734 71.2029 64.7734 70.8021C64.7734 70.4008 65.098 70.0764 65.4991 70.0764C69.5793 70.0764 76.6693 68.8449 80.9803 67.3879C82.8777 66.7417 83.884 67.6771 84.7712 68.499C85.6087 69.2743 86.4731 70.0764 88.3551 70.0764C88.7562 70.0764 89.0806 70.4008 89.0806 70.8021C89.0808 71.2028 88.7564 71.5274 88.3553 71.5274Z" fill="black"/>
<path d="M111.213 71.5274C108.764 71.5274 107.536 70.3921 106.642 69.5633C105.803 68.7878 105.381 68.4013 104.302 68.7626C99.7915 70.2875 92.6391 71.5275 88.3563 71.5275C87.9553 71.5275 87.6309 71.2029 87.6309 70.8021C87.6309 70.4008 87.9553 70.0764 88.3563 70.0764C92.4363 70.0764 99.5265 68.8449 103.838 67.3879C105.736 66.7417 106.74 67.6771 107.628 68.499C108.466 69.2743 109.33 70.0764 111.212 70.0764C111.613 70.0764 111.938 70.4008 111.938 70.8021C111.938 71.2028 111.614 71.5274 111.213 71.5274Z" fill="black"/>
<path d="M48.449 25.09C46.55 25.09 45.6055 24.2141 44.916 23.5751C44.2619 22.9699 44.0225 22.79 43.3535 23.0182C39.9523 24.1611 34.5897 25.0902 31.3975 25.0902C30.9965 25.0902 30.6719 24.7656 30.6719 24.3645C30.6719 23.9634 30.9965 23.6388 31.3975 23.6388C34.4068 23.6388 39.6696 22.7246 42.8894 21.6428C44.4072 21.1289 45.2371 21.8944 45.9023 22.5109C46.528 23.0912 47.1189 23.6388 48.449 23.6388C48.8501 23.6388 49.1747 23.9634 49.1747 24.3645C49.1747 24.7656 48.8501 25.09 48.449 25.09Z" fill="black"/>
<path d="M65.4996 25.09C63.6006 25.09 62.6561 24.2141 61.9667 23.5751C61.3134 22.9699 61.0738 22.79 60.4043 23.0182C57.003 24.1611 51.6405 25.0902 48.4483 25.0902C48.0472 25.0902 47.7227 24.7656 47.7227 24.3645C47.7227 23.9634 48.0472 23.6388 48.4483 23.6388C51.4577 23.6388 56.7204 22.7246 59.9402 21.6428C61.458 21.1289 62.2877 21.8944 62.953 22.5109C63.5788 23.0912 64.1697 23.6388 65.4998 23.6388C65.9009 23.6388 66.2255 23.9634 66.2255 24.3645C66.2255 24.7656 65.9007 25.09 65.4996 25.09Z" fill="black"/>
<path d="M82.5526 25.09C80.6535 25.09 79.7068 24.2141 79.0151 23.5744C78.3632 22.9706 78.1238 22.7908 77.4592 23.0175C74.0552 24.1611 68.6925 25.0902 65.501 25.0902C65.1 25.0902 64.7754 24.7656 64.7754 24.3645C64.7754 23.9634 65.1 23.6388 65.501 23.6388C68.5112 23.6388 73.7731 22.7246 76.9931 21.6428C78.508 21.1262 79.3355 21.8936 80.0016 22.5094C80.6279 23.0905 81.2204 23.6388 82.5526 23.6388C82.9536 23.6388 83.278 23.9634 83.278 24.3645C83.278 24.7656 82.9536 25.09 82.5526 25.09Z" fill="black"/>
<path d="M99.6033 25.09C97.7043 25.09 96.7576 24.2141 96.0659 23.5744C95.414 22.9706 95.176 22.7908 94.51 23.0175C91.106 24.1611 85.7433 25.0902 82.5518 25.0902C82.1508 25.0902 81.8262 24.7656 81.8262 24.3645C81.8262 23.9634 82.1508 23.6388 82.5518 23.6388C85.5618 23.6388 90.8239 22.7246 94.0437 21.6428C95.5615 21.1262 96.3863 21.8936 97.0522 22.5094C97.6787 23.0905 98.2712 23.6388 99.6033 23.6388C100.004 23.6388 100.329 23.9634 100.329 24.3645C100.329 24.7656 100.004 25.09 99.6033 25.09Z" fill="black"/>
<path d="M19.7888 68.625C19.7265 68.625 19.664 68.6179 19.601 68.6008C19.2141 68.4975 18.9838 68.0992 19.0873 67.7123L30.6968 24.1774C30.8002 23.7905 31.2013 23.5623 31.5847 23.6635C31.9716 23.7663 32.2019 24.1637 32.0984 24.5514L20.4888 68.0864C20.4024 68.411 20.1092 68.625 19.7888 68.625Z" fill="black"/>
<path d="M111.214 68.6251C110.893 68.6251 110.599 68.4111 110.514 68.0865L98.9042 24.5516C98.7994 24.164 99.0302 23.7666 99.4171 23.6637C99.8055 23.5617 100.202 23.7898 100.304 24.1776L111.914 67.7125C112.019 68.0994 111.788 68.4976 111.401 68.6011C111.338 68.6165 111.276 68.6251 111.214 68.6251Z" fill="black"/>
<path d="M104.07 65.8982C103.738 65.8982 103.439 65.6701 103.363 65.3342L93.5672 22.4925C93.478 22.1021 93.7218 21.713 94.1129 21.6237C94.5012 21.5329 94.8923 21.7775 94.9815 22.1693L104.777 65.0113C104.866 65.4023 104.623 65.7907 104.231 65.8799C104.178 65.8926 104.124 65.8982 104.07 65.8982Z" fill="black"/>
<path d="M81.2128 65.8983C80.8415 65.8983 80.5254 65.6162 80.49 65.2393L76.4992 22.3983C76.4625 21.9994 76.7559 21.6458 77.1538 21.6082C77.5465 21.5664 77.9078 21.8639 77.9447 22.2635L81.9355 65.106C81.9724 65.5042 81.679 65.8587 81.2809 65.8954C81.2582 65.8969 81.2355 65.8983 81.2128 65.8983Z" fill="black"/>
<path d="M58.3591 65.8983C58.3484 65.8983 58.3379 65.8983 58.3279 65.8983C57.9276 65.8813 57.6164 65.5427 57.6335 65.1416L59.4475 22.3004C59.4651 21.9001 59.8308 21.5776 60.2028 21.606C60.6031 21.6229 60.9143 21.9609 60.8972 22.3612L59.0832 65.2039C59.067 65.5937 58.7453 65.8983 58.3591 65.8983Z" fill="black"/>
<path d="M35.5016 65.8983C35.4599 65.8983 35.4166 65.8941 35.3741 65.8871C34.9794 65.8177 34.7166 65.4408 34.7867 65.0453L42.4054 22.2041C42.4756 21.8094 42.849 21.5437 43.2464 21.6169C43.6411 21.687 43.9042 22.0632 43.8339 22.4579L36.2151 65.3004C36.1528 65.6518 35.8466 65.8983 35.5016 65.8983Z" fill="black"/>
<path d="M42.6443 68.625C42.6125 68.625 42.5806 68.6236 42.548 68.6194C42.1506 68.5654 41.8712 68.2013 41.9245 67.8031L47.7293 24.2689C47.7824 23.872 48.1446 23.5972 48.5442 23.6454C48.9416 23.6984 49.221 24.0633 49.1678 24.4602L43.3631 67.9958C43.3138 68.36 43.0029 68.625 42.6443 68.625Z" fill="black"/>
<path d="M65.4991 68.625C65.098 68.625 64.7734 68.3004 64.7734 67.8993V24.3644C64.7734 23.9634 65.098 23.6388 65.4991 23.6388C65.9002 23.6388 66.2247 23.9634 66.2247 24.3644V67.8993C66.2247 68.3004 65.9002 68.625 65.4991 68.625Z" fill="black"/>
<path d="M88.3552 68.6251C87.9954 68.6251 87.685 68.3601 87.6354 67.9957L81.8305 24.4601C81.7782 24.0632 82.0574 23.6985 82.4541 23.6452C82.8568 23.5971 83.2166 23.8721 83.2704 24.2688L89.0753 67.803C89.1276 68.2011 88.8484 68.5653 88.4515 68.6193C88.4177 68.6236 88.3865 68.6251 88.3552 68.6251Z" fill="black"/>
<path d="M111.214 71.5273C110.813 71.5273 110.488 71.2027 110.488 70.8019V67.8994C110.488 67.4984 110.813 67.174 111.214 67.174C111.615 67.174 111.939 67.4984 111.939 67.8994V70.8019C111.939 71.2027 111.615 71.5273 111.214 71.5273Z" fill="black"/>
<path d="M19.788 71.5273C19.3869 71.5273 19.0625 71.2027 19.0625 70.8019V67.8994C19.0625 67.4984 19.3869 67.174 19.788 67.174C20.189 67.174 20.5136 67.4984 20.5136 67.8994V70.8019C20.5136 71.2027 20.189 71.5273 19.788 71.5273Z" fill="black"/>
</svg>
