<svg width="101" height="83" viewBox="0 0 101 83" fill="none" xmlns="http://www.w3.org/2000/svg">
<rect y="18" width="65" height="65" fill="#FBD333"/>
<path d="M79.7754 21.3778C79.7754 23.7443 81.7008 25.6689 84.0673 25.6689C86.4338 25.6689 88.3583 23.7435 88.3583 21.3778C88.3583 19.0105 86.433 17.0859 84.0673 17.0859C81.7008 17.0859 79.7754 19.0113 79.7754 21.3778ZM86.7192 21.3778C86.7192 22.8399 85.5302 24.0289 84.0681 24.0289C82.606 24.0289 81.4162 22.8399 81.4162 21.3778C81.4162 19.9158 82.606 18.7259 84.0681 18.7259C85.5302 18.7259 86.7192 19.9158 86.7192 21.3778Z" fill="black"/>
<path d="M55.709 21.3778C55.709 23.7443 57.6343 25.6689 60.0009 25.6689C62.3674 25.6689 64.2927 23.7435 64.2927 21.3778C64.2927 19.0105 62.3674 17.0859 60.0009 17.0859C57.6343 17.0859 55.709 19.0113 55.709 21.3778ZM62.6527 21.3778C62.6527 22.8399 61.4629 24.0289 60.0009 24.0289C58.5388 24.0289 57.349 22.8399 57.349 21.3778C57.349 19.9158 58.5388 18.7259 60.0009 18.7259C61.4629 18.7259 62.6527 19.9158 62.6527 21.3778Z" fill="black"/>
<path d="M31.6406 21.3778C31.6406 23.7443 33.566 25.6689 35.9317 25.6689C38.299 25.6689 40.2236 23.7435 40.2236 21.3778C40.2236 19.0105 38.2982 17.0859 35.9317 17.0859C33.566 17.0859 31.6406 19.0113 31.6406 21.3778ZM38.5844 21.3778C38.5844 22.8399 37.3946 24.0289 35.9325 24.0289C34.4704 24.0289 33.2814 22.8399 33.2814 21.3778C33.2814 19.9158 34.4704 18.7259 35.9325 18.7259C37.3946 18.7259 38.5844 19.9158 38.5844 21.3778Z" fill="black"/>
<path d="M88.9272 65.327H65.5687V60.9875C65.5687 57.9166 63.0701 55.4181 59.9992 55.4181C56.9291 55.4181 54.4306 57.9166 54.4306 60.9875V65.327H31.0713C28.936 65.327 27.1992 67.0637 27.1992 69.199V69.9288C27.1992 72.0641 28.936 73.8008 31.0713 73.8008H88.928C91.0633 73.8008 92.8 72.0641 92.8 69.9288V69.199C92.7992 67.0637 91.0625 65.327 88.9272 65.327ZM56.0706 60.9875C56.0706 58.8203 57.8328 57.0581 59.9992 57.0581C62.1665 57.0581 63.9287 58.8203 63.9287 60.9875V65.327H56.0706V60.9875ZM91.1592 69.928C91.1592 71.1588 90.158 72.16 88.9272 72.16H31.0713C29.8404 72.16 28.8392 71.1588 28.8392 69.928V69.1982C28.8392 67.9674 29.8404 66.9662 31.0713 66.9662H88.928C90.1588 66.9662 91.16 67.9674 91.16 69.1982V69.928H91.1592Z" fill="black"/>
<path d="M91.9792 9.84001C92.4327 9.84001 92.7992 9.47347 92.7992 9.02001C92.7992 8.56655 92.4327 8.20001 91.9792 8.20001H28.0192C27.5658 8.20001 27.1992 8.56655 27.1992 9.02001C27.1992 9.47347 27.5658 9.84001 28.0192 9.84001H35.1114V12.8199C30.6801 13.2348 27.1992 16.9724 27.1992 21.5111C27.1992 24.9297 29.1787 27.8874 32.0471 29.3208V36.6778C32.0471 38.0644 33.1754 39.1927 34.562 39.1927H35.1114V41.0418C33.6149 41.2181 32.1643 41.8741 31.018 43.0205C28.3079 45.7298 28.3079 50.1389 31.018 52.8474C31.3386 53.168 31.8568 53.168 32.1774 52.8474C32.4981 52.5267 32.4981 52.0085 32.1774 51.6879C30.1078 49.6182 30.1078 46.2496 32.1774 44.18C34.2479 42.1111 37.6149 42.1111 39.6854 44.18C41.755 46.2496 41.755 49.6182 39.6854 51.6879C39.3647 52.0085 39.3647 52.5267 39.6854 52.8474C39.8453 53.0073 40.0552 53.0876 40.2651 53.0876C40.475 53.0876 40.6849 53.0073 40.8448 52.8474C43.5549 50.1381 43.5549 45.729 40.8448 43.0205C39.6985 41.8741 38.2479 41.2181 36.7514 41.0418V39.1927H37.3008C38.6874 39.1927 39.8157 38.0644 39.8157 36.6778V29.3208C42.6841 27.8874 44.6636 24.9297 44.6636 21.5111C44.6636 16.9724 41.1827 13.234 36.7514 12.8191V9.84001H59.1792V12.8199C54.7479 13.2348 51.267 16.9724 51.267 21.5119C51.267 24.9305 53.2465 27.8882 56.1149 29.3216V36.6786C56.1149 38.0652 57.2432 39.1936 58.6298 39.1936H59.1792V41.064C57.1522 41.2518 55.2703 42.1292 53.8131 43.5863C50.4019 46.9975 50.4019 52.5481 53.8131 55.9593C54.1338 56.2799 54.652 56.2799 54.9726 55.9593C55.2932 55.6386 55.2932 55.1204 54.9726 54.7998C52.201 52.0282 52.201 47.5174 54.9726 44.7458C56.3158 43.4026 58.1001 42.6638 59.9992 42.6638C61.8983 42.6638 63.6827 43.4026 65.0258 44.7458C67.7974 47.5174 67.7974 52.0282 65.0258 54.7998C64.7052 55.1204 64.7052 55.6386 65.0258 55.9593C65.1857 56.1192 65.3956 56.1995 65.6056 56.1995C65.8155 56.1995 66.0254 56.1192 66.1853 55.9593C69.5965 52.5481 69.5965 46.9975 66.1853 43.5863C64.7282 42.1283 62.8463 41.2509 60.8192 41.064V39.1936H61.3686C62.7552 39.1936 63.8836 38.0652 63.8836 36.6786V29.3216C66.7519 27.8882 68.7314 24.9305 68.7314 21.5119C68.7314 16.9732 65.2505 13.2348 60.8192 12.8199V9.84001H83.247V12.8199C78.8158 13.2348 75.3349 16.9724 75.3349 21.5119C75.3349 24.9305 77.3143 27.8882 80.1827 29.3216V36.6786C80.1827 38.0652 81.311 39.1936 82.6976 39.1936H83.247V41.0427C81.7505 41.219 80.3 41.875 79.1536 43.0213C76.4435 45.7306 76.4435 50.1397 79.1536 52.8482C79.4742 53.1688 79.9925 53.1688 80.3131 52.8482C80.6337 52.5276 80.6337 52.0093 80.3131 51.6887C78.2434 49.619 78.2434 46.2505 80.3131 44.1808C82.3836 42.1119 85.7505 42.1119 87.821 44.1808C89.8907 46.2505 89.8907 49.619 87.821 51.6887C87.5004 52.0093 87.5004 52.5276 87.821 52.8482C87.9809 53.0081 88.1908 53.0884 88.4007 53.0884C88.6107 53.0884 88.8206 53.0081 88.9805 52.8482C91.6906 50.1389 91.6906 45.7298 88.9805 43.0213C87.8341 41.875 86.3835 41.219 84.887 41.0427V39.1936H85.4356C86.8222 39.1936 87.9506 38.0652 87.9506 36.6786V29.3216C90.8197 27.8882 92.7992 24.9305 92.7992 21.5111C92.7992 16.9724 89.3183 13.234 84.887 12.8191V9.84001H91.9792ZM38.1766 36.6778C38.1766 37.1608 37.7838 37.5527 37.3016 37.5527H34.5628C34.0798 37.5527 33.6879 37.16 33.6879 36.6778V29.9399C34.4054 30.1309 35.1557 30.2433 35.9322 30.2433C36.7088 30.2433 37.4591 30.1317 38.1766 29.9399V36.6778ZM43.0244 21.5111C43.0244 25.4225 39.8428 28.6033 35.9322 28.6033C32.0216 28.6033 28.8392 25.4225 28.8392 21.5111C28.8392 17.5997 32.0208 14.4181 35.9314 14.4181C39.842 14.4181 43.0244 17.6005 43.0244 21.5111ZM62.2436 36.6778C62.2436 37.1608 61.8508 37.5527 61.3686 37.5527H58.6298C58.1468 37.5527 57.7549 37.16 57.7549 36.6778V29.9399C58.4724 30.1309 59.2227 30.2433 59.9992 30.2433C60.7758 30.2433 61.5261 30.1317 62.2436 29.9399V36.6778ZM67.0914 21.5111C67.0914 25.4225 63.9098 28.6033 59.9992 28.6033C56.0886 28.6033 52.907 25.4217 52.907 21.5111C52.907 17.6005 56.0886 14.4181 59.9992 14.4181C63.9098 14.4181 67.0914 17.6005 67.0914 21.5111ZM86.3106 36.6778C86.3106 37.1608 85.9178 37.5527 85.4356 37.5527H82.6976C82.2147 37.5527 81.8227 37.16 81.8227 36.6778V29.9399C82.5402 30.1309 83.2905 30.2433 84.067 30.2433C84.8436 30.2433 85.5931 30.1317 86.3106 29.9399V36.6778ZM91.1592 21.5111C91.1592 25.4225 87.9776 28.6033 84.067 28.6033C80.1565 28.6033 76.9749 25.4217 76.9749 21.5111C76.9749 17.6005 80.1565 14.4181 84.067 14.4181C87.9776 14.4181 91.1592 17.6005 91.1592 21.5111Z" fill="black"/>
</svg>
