<svg width="100" height="75" viewBox="0 0 100 75" fill="none" xmlns="http://www.w3.org/2000/svg">
<rect x="0.273438" y="10" width="65" height="65" fill="#FBD333"/>
<path fill-rule="evenodd" clip-rule="evenodd" d="M33.2695 42.2209V30.1707L33.0782 30.0963C30.622 29.1415 28.5122 27.4711 27.0244 25.3037C25.5366 23.1363 24.7399 20.5725 24.7383 17.9474C24.7368 15.5725 25.386 13.2423 26.6162 11.2076C27.8464 9.17294 29.6109 7.51101 31.7197 6.40103C33.8286 5.29105 36.2017 4.77517 38.5833 4.90906C40.9649 5.04295 43.2646 5.82152 45.2345 7.16077C47.2044 8.5 48.7699 10.3491 49.7623 12.5086C50.7547 14.6682 51.1365 17.0564 50.8666 19.416C50.5967 21.7755 49.6854 24.0171 48.2306 25.8992C46.7759 27.7813 44.8328 29.2325 42.6108 30.0963L42.4195 30.1707V42.2209C42.4186 42.3849 42.3732 42.5458 42.2881 42.6865C42.2029 42.8274 42.0809 42.9429 41.935 43.0207C41.789 43.0986 41.6246 43.1357 41.4591 43.1283C41.2936 43.1208 41.1332 43.0688 40.995 42.9783L37.8445 40.8909L34.6934 42.9787C34.5554 43.0691 34.3953 43.1208 34.23 43.1283C34.0645 43.1357 33.9 43.0986 33.7541 43.0207C33.6082 42.9429 33.4862 42.8274 33.401 42.6865C33.3159 42.5458 33.2705 42.3849 33.2695 42.2209ZM38.3488 38.9883L40.582 40.5221V30.9984H35.0948V40.5221L37.3281 38.9883L37.3298 38.9871C37.4804 38.8875 37.6574 38.8343 37.8384 38.8343C38.0195 38.8343 38.1965 38.8875 38.3471 38.9871L38.3488 38.9883ZM95.4258 55.8726V9.15164H51.2508C51.0067 9.15164 50.7729 9.05507 50.6007 8.88358C50.4285 8.71213 50.332 8.47986 50.332 8.23793C50.332 7.996 50.4285 7.76373 50.6007 7.59228C50.7729 7.42078 51.0067 7.32422 51.2508 7.32422H96.3445C96.5886 7.32422 96.8224 7.42078 96.9946 7.59228C97.1668 7.76373 97.2633 7.996 97.2633 8.23793V56.7863C97.2633 57.0282 97.1668 57.2605 96.9946 57.432C96.8224 57.6035 96.5886 57.7 96.3445 57.7H25.657C25.413 57.7 25.1791 57.6035 25.0069 57.432C24.8348 57.2605 24.7383 57.0282 24.7383 56.7863V28.871C24.7383 28.6291 24.8348 28.3968 25.0069 28.2253C25.1791 28.0539 25.413 27.9573 25.657 27.9573C25.9011 27.9573 26.1349 28.0539 26.3071 28.2253C26.4793 28.3968 26.5758 28.6291 26.5758 28.871V55.8726H95.4258ZM44.1046 8.61533C42.2515 7.38224 40.073 6.72416 37.8445 6.72416C34.8563 6.72416 31.9902 7.90632 29.8768 10.011C27.7633 12.1157 26.5758 14.9705 26.5758 17.9475C26.5758 20.1676 27.2368 22.3377 28.4752 24.1834C29.7136 26.0291 31.4736 27.4675 33.5326 28.3168C35.5915 29.1661 37.857 29.3883 40.0427 28.9553C42.2284 28.5224 44.2363 27.4536 45.8123 25.8841C47.3884 24.3146 48.4618 22.3147 48.8967 20.1374C49.3316 17.96 49.1084 15.7031 48.2553 13.6521C47.4023 11.6012 45.9578 9.84842 44.1046 8.61533ZM90.5508 52.8451V51.0177H92.3883V52.8451H90.5508ZM85.6758 51.0177V52.8451H87.5133V51.0177H85.6758ZM63.7383 18.2476H65.5758V20.075H63.7383V18.2476ZM60.7008 20.075H58.8633V18.2476H60.7008V20.075ZM51.8194 33.1578C51.6473 32.9863 51.5508 32.754 51.5508 32.5121C51.5508 32.2702 51.6473 32.0379 51.8194 31.8664C51.9916 31.695 52.2255 31.5984 52.4695 31.5984H91.4695C91.7136 31.5984 91.9474 31.695 92.1196 31.8664C92.2918 32.0379 92.3883 32.2702 92.3883 32.5121C92.3883 32.754 92.2918 32.9863 92.1196 33.1578C91.9474 33.3292 91.7136 33.4258 91.4695 33.4258H52.4695C52.2255 33.4258 51.9916 33.3292 51.8194 33.1578ZM52.4695 36.4532H91.4695C91.7136 36.4532 91.9474 36.5498 92.1196 36.7213C92.2918 36.8928 92.3883 37.125 92.3883 37.367C92.3883 37.6089 92.2918 37.8412 92.1196 38.0126C91.9474 38.1841 91.7136 38.2807 91.4695 38.2807H52.4695C52.2255 38.2807 51.9916 38.1841 51.8194 38.0126C51.6473 37.8412 51.5508 37.6089 51.5508 37.367C51.5508 37.125 51.6473 36.8928 51.8194 36.7213C51.9916 36.5498 52.2255 36.4532 52.4695 36.4532ZM52.4695 41.308H91.4695C91.7136 41.308 91.9474 41.4045 92.1196 41.576C92.2918 41.7475 92.3883 41.9798 92.3883 42.2217C92.3883 42.4636 92.2918 42.6959 92.1196 42.8673C91.9474 43.0388 91.7136 43.1354 91.4695 43.1354H52.4695C52.2255 43.1354 51.9916 43.0388 51.8194 42.8673C51.6473 42.6959 51.5508 42.4636 51.5508 42.2217C51.5508 41.9798 51.6473 41.7475 51.8194 41.576C51.9916 41.4046 52.2255 41.308 52.4695 41.308ZM52.4695 46.1628H91.4695C91.7136 46.1628 91.9474 46.2594 92.1196 46.4309C92.2918 46.6023 92.3883 46.8346 92.3883 47.0766C92.3883 47.3185 92.2918 47.5508 92.1196 47.7222C91.9474 47.8937 91.7136 47.9903 91.4695 47.9903H52.4695C52.2255 47.9903 51.9916 47.8937 51.8194 47.7222C51.6473 47.5508 51.5508 47.3185 51.5508 47.0766C51.5508 46.8346 51.6473 46.6023 51.8194 46.4309C51.9916 46.2594 52.2255 46.1628 52.4695 46.1628ZM42.418 24.7619C41.0644 25.6627 39.4728 26.1435 37.8445 26.1435C35.6611 26.1435 33.5673 25.2797 32.0237 23.7425C30.4802 22.2054 29.6133 20.1209 29.6133 17.9476C29.6133 16.3268 30.0959 14.7424 31.0002 13.3946C31.9045 12.0468 33.19 10.9961 34.6942 10.3756C36.1984 9.75515 37.8537 9.59278 39.4506 9.90912C41.0475 10.2255 42.5143 11.0063 43.6653 12.1526C44.8164 13.2989 45.6002 14.7592 45.9177 16.3488C46.2352 17.9385 46.0722 19.5862 45.4494 21.0836C44.8265 22.5811 43.7717 23.8612 42.418 24.7619ZM41.3962 12.652C40.3448 11.9524 39.1088 11.579 37.8445 11.579C36.1492 11.579 34.5231 12.2497 33.3239 13.4439C32.1247 14.6381 31.4508 16.2581 31.4508 17.9476C31.4508 19.2074 31.8259 20.4389 32.5286 21.4862C33.2313 22.5335 34.23 23.3496 35.3982 23.8315C36.5663 24.3134 37.8516 24.4394 39.0917 24.1938C40.3317 23.9482 41.4709 23.3418 42.3652 22.4512C43.2594 21.5607 43.8686 20.4259 44.1154 19.1902C44.3622 17.9546 44.2355 16.6739 43.7514 15.51C43.2673 14.3462 42.4477 13.3516 41.3962 12.652Z" fill="black"/>
</svg>
