<svg width="107" height="86" viewBox="0 0 107 86" fill="none" xmlns="http://www.w3.org/2000/svg">
<rect x="0.273438" y="19" width="65" height="65" fill="#FBD333"/>
<path d="M87.4522 23.5226C87.2543 23.5242 87.0596 23.4729 86.8881 23.3742L79.1842 18.9211C78.9368 18.7751 78.7554 18.5391 78.678 18.2625C78.6005 17.9858 78.633 17.6899 78.7686 17.4367C78.9171 17.192 79.1531 17.013 79.4287 16.9358C79.7043 16.8587 79.999 16.8891 80.253 17.0211L87.9569 21.4742C88.2043 21.6202 88.3857 21.8562 88.4631 22.1328C88.5406 22.4095 88.5081 22.7053 88.3725 22.9586C88.2795 23.1229 88.1463 23.2609 87.9853 23.3596C87.8243 23.4583 87.6408 23.5144 87.4522 23.5226Z" fill="black"/>
<path d="M42.2664 67.8164H31.2969C31.0028 67.8125 30.7219 67.694 30.5139 67.4861C30.306 67.2781 30.1875 66.9972 30.1836 66.7031V10.2969C30.1821 10.0775 30.2464 9.86266 30.3681 9.68012C30.4898 9.49757 30.6633 9.35565 30.8664 9.27264C31.07 9.18705 31.2944 9.16392 31.5112 9.20621C31.7279 9.24851 31.9272 9.3543 32.0836 9.51014L56.9024 34.3289C57.099 34.5399 57.2061 34.8191 57.201 35.1075C57.1959 35.3959 57.0791 35.6711 56.8751 35.875C56.6711 36.079 56.3959 36.1959 56.1075 36.2009C55.8191 36.206 55.54 36.099 55.3289 35.9023L32.4102 12.9836V65.5898H42.2664C42.5617 65.5898 42.8449 65.7071 43.0536 65.9159C43.2624 66.1247 43.3797 66.4079 43.3797 66.7031C43.3797 66.9984 43.2624 67.2815 43.0536 67.4903C42.8449 67.6991 42.5617 67.8164 42.2664 67.8164Z" fill="black"/>
<path d="M80.2814 67.4898C80.073 67.2811 79.9559 66.9981 79.9559 66.7031C79.9559 66.4081 80.073 66.1251 80.2814 65.9164C80.4902 65.7079 80.7731 65.5908 81.0682 65.5908C81.3632 65.5908 81.6461 65.7079 81.8549 65.9164C82.0634 66.1251 82.1805 66.4081 82.1805 66.7031C82.1805 66.9981 82.0634 67.2811 81.8549 67.4898C81.7521 67.5939 81.6296 67.6764 81.4945 67.7325C81.3594 67.7885 81.2144 67.8171 81.0682 67.8164C80.9219 67.8171 80.777 67.7885 80.6419 67.7325C80.5068 67.6764 80.3842 67.5939 80.2814 67.4898ZM77.1346 64.3429C76.9261 64.1342 76.809 63.8512 76.809 63.5562C76.809 63.2612 76.9261 62.9782 77.1346 62.7695C77.2369 62.6645 77.3592 62.581 77.4944 62.524C77.6295 62.467 77.7746 62.4376 77.9213 62.4376C78.0679 62.4376 78.2131 62.467 78.3482 62.524C78.4833 62.581 78.6057 62.6645 78.708 62.7695C78.9165 62.9782 79.0336 63.2612 79.0336 63.5562C79.0336 63.8512 78.9165 64.1342 78.708 64.3429C78.6052 64.447 78.4827 64.5295 78.3476 64.5856C78.2125 64.6417 78.0676 64.6702 77.9213 64.6695C77.7675 64.6773 77.6138 64.6522 77.4705 64.5958C77.3271 64.5395 77.1974 64.4533 77.09 64.3429H77.1346ZM73.9877 61.1961C73.7792 60.9873 73.6621 60.7044 73.6621 60.4093C73.6621 60.1143 73.7792 59.8314 73.9877 59.6226C74.09 59.5176 74.2124 59.4341 74.3475 59.3771C74.4826 59.3201 74.6278 59.2908 74.7744 59.2908C74.9211 59.2908 75.0662 59.3201 75.2013 59.3771C75.3365 59.4341 75.4588 59.5176 75.5611 59.6226C75.7696 59.8314 75.8867 60.1143 75.8867 60.4093C75.8867 60.7044 75.7696 60.9873 75.5611 61.1961C75.3491 61.3997 75.0683 61.5162 74.7744 61.5226C74.621 61.5268 74.4684 61.5 74.3256 61.4439C74.1828 61.3878 74.0527 61.3035 73.9432 61.1961H73.9877Z" fill="black"/>
<path d="M52.8803 40.1328C52.6718 39.9241 52.5547 39.6411 52.5547 39.3461C52.5547 39.0511 52.6718 38.7681 52.8803 38.5594C53.0891 38.3509 53.372 38.2338 53.667 38.2338C53.9621 38.2338 54.245 38.3509 54.4538 38.5594C54.6622 38.7681 54.7793 39.0511 54.7793 39.3461C54.7793 39.6411 54.6622 39.9241 54.4538 40.1328C54.351 40.2369 54.2284 40.3194 54.0933 40.3755C53.9582 40.4316 53.8133 40.4601 53.667 40.4594C53.5208 40.4601 53.3758 40.4316 53.2407 40.3755C53.1056 40.3194 52.9831 40.2369 52.8803 40.1328ZM49.7334 37.0156C49.6284 36.9133 49.5449 36.791 49.4879 36.6559C49.431 36.5207 49.4016 36.3756 49.4016 36.2289C49.4016 36.0823 49.431 35.9371 49.4879 35.802C49.5449 35.6669 49.6284 35.5446 49.7334 35.4422C49.8358 35.3372 49.9581 35.2537 50.0932 35.1967C50.2284 35.1397 50.3735 35.1103 50.5202 35.1103C50.6668 35.1103 50.812 35.1397 50.9471 35.1967C51.0822 35.2537 51.2045 35.3372 51.3069 35.4422C51.5154 35.651 51.6325 35.9339 51.6325 36.2289C51.6325 36.5239 51.5154 36.8069 51.3069 37.0156C51.2041 37.1197 51.0816 37.2022 50.9465 37.2583C50.8114 37.3144 50.6664 37.3429 50.5202 37.3422C50.3738 37.3437 50.2286 37.3156 50.0934 37.2595C49.9582 37.2033 49.8357 37.1204 49.7334 37.0156ZM46.5866 33.8391C46.4815 33.7367 46.3981 33.6144 46.3411 33.4793C46.2841 33.3442 46.2547 33.199 46.2547 33.0524C46.2547 32.9057 46.2841 32.7606 46.3411 32.6254C46.3981 32.4903 46.4815 32.368 46.5866 32.2656C46.6889 32.1606 46.8112 32.0771 46.9464 32.0201C47.0815 31.9631 47.2266 31.9338 47.3733 31.9338C47.5199 31.9338 47.6651 31.9631 47.8002 32.0201C47.9353 32.0771 48.0577 32.1606 48.16 32.2656C48.3685 32.4744 48.4856 32.7573 48.4856 33.0524C48.4856 33.3474 48.3685 33.6303 48.16 33.8391C47.948 34.0427 47.6672 34.1593 47.3733 34.1656C47.0781 34.1654 46.7952 34.0479 46.5866 33.8391ZM43.4249 30.6922C43.2164 30.4835 43.0993 30.2005 43.0993 29.9055C43.0993 29.6105 43.2164 29.3275 43.4249 29.1188C43.5285 29.0133 43.6521 28.9295 43.7884 28.8723C43.9248 28.8152 44.0711 28.7857 44.219 28.7857C44.3669 28.7857 44.5132 28.8152 44.6496 28.8723C44.7859 28.9295 44.9095 29.0133 45.0131 29.1188C45.2216 29.3275 45.3387 29.6105 45.3387 29.9055C45.3387 30.2005 45.2216 30.4835 45.0131 30.6922C44.8011 30.8958 44.5203 31.0124 44.2264 31.0188C43.9274 31.0161 43.6406 30.8993 43.4249 30.6922ZM40.278 27.5453C40.0721 27.3322 39.957 27.0475 39.957 26.7512C39.957 26.4549 40.0721 26.1702 40.278 25.9571C40.4867 25.7486 40.7697 25.6315 41.0647 25.6315C41.3597 25.6315 41.6427 25.7486 41.8514 25.9571C41.9569 26.0607 42.0407 26.1843 42.0978 26.3206C42.155 26.457 42.1845 26.6033 42.1845 26.7512C42.1845 26.899 42.155 27.0454 42.0978 27.1818C42.0407 27.3181 41.9569 27.4417 41.8514 27.5453C41.7474 27.6467 41.6243 27.7265 41.4893 27.78C41.3542 27.8335 41.2099 27.8597 41.0647 27.8571C40.7722 27.8576 40.4907 27.7461 40.278 27.5453Z" fill="black"/>
<path d="M43.8844 57.4258H41.6875C41.3935 57.4219 41.1125 57.3034 40.9046 57.0954C40.6966 56.8875 40.5781 56.6066 40.5742 56.3125V38.6484C40.5728 38.429 40.637 38.2142 40.7587 38.0317C40.8804 37.8491 41.054 37.7072 41.2571 37.6242C41.4606 37.5386 41.685 37.5155 41.9018 37.5578C42.1185 37.6001 42.3178 37.7059 42.4742 37.8617L50.3266 45.714C50.5232 45.9251 50.6303 46.2042 50.6252 46.4926C50.6201 46.781 50.5033 47.0562 50.2993 47.2602C50.0953 47.4642 49.8202 47.581 49.5317 47.5861C49.2433 47.5912 48.9642 47.4841 48.7532 47.2875L42.8157 41.35V55.214H43.8844C44.181 55.214 44.4658 55.3308 44.6769 55.5392C44.888 55.7476 45.0086 56.0307 45.0125 56.3273C45.0048 56.6213 44.8825 56.9007 44.6718 57.1059C44.4611 57.3111 44.1785 57.4259 43.8844 57.4258Z" fill="black"/>
<path d="M62.2317 67.2226C62.0347 67.2173 61.8417 67.1665 61.6676 67.0742C61.4227 66.9258 61.2445 66.6887 61.1698 66.4123C61.0952 66.1359 61.1299 65.8413 61.2668 65.5898L90.3754 15.1211L79.4504 8.81247L50.327 59.2812C50.2628 59.4232 50.1696 59.5501 50.0533 59.6537C49.937 59.7574 49.8003 59.8355 49.652 59.883C49.5036 59.9305 49.3469 59.9463 49.1921 59.9295C49.0372 59.9126 48.8876 59.8635 48.7529 59.7852C48.6183 59.7069 48.5015 59.6012 48.4103 59.4749C48.319 59.3487 48.2553 59.2047 48.2231 59.0523C48.191 58.8999 48.1912 58.7424 48.2238 58.5901C48.2564 58.4377 48.3205 58.2939 48.4121 58.1679L78.0996 6.76403C78.2454 6.51629 78.4825 6.33556 78.76 6.26063C79.0375 6.1857 79.3334 6.22254 79.584 6.36325L92.4387 13.7851C92.5662 13.8552 92.6781 13.9506 92.7674 14.0655C92.8567 14.1804 92.9217 14.3123 92.9582 14.4531C92.9973 14.594 93.0083 14.7413 92.9905 14.8865C92.9726 15.0317 92.9264 15.1719 92.8543 15.2992L63.1965 66.7031C63.0921 66.8636 62.949 66.9952 62.7804 67.086C62.6118 67.1768 62.4231 67.2238 62.2317 67.2226Z" fill="black"/>
<path d="M47.6249 77.6578C47.4315 77.6612 47.241 77.6097 47.0757 77.5094C46.8947 77.4091 46.7458 77.2597 46.646 77.0785C46.5462 76.8973 46.4996 76.6917 46.5116 76.4851L46.8975 70.1023C46.9104 69.9315 46.9625 69.7659 47.0498 69.6186C47.1372 69.4712 47.2573 69.3459 47.4009 69.2526C47.5446 69.1592 47.7078 69.1002 47.878 69.0803C48.0481 69.0603 48.2206 69.0799 48.3819 69.1375C49.3269 69.5077 50.2445 69.9442 51.128 70.4437C52.0021 70.9475 52.8358 71.5182 53.6218 72.1508C53.7614 72.259 53.8732 72.3989 53.9481 72.5589C54.023 72.719 54.0586 72.8945 54.0522 73.0711C54.0432 73.2465 53.9927 73.4173 53.905 73.5695C53.8173 73.7218 53.6948 73.8511 53.5475 73.9469L48.2038 77.4797C48.031 77.5914 47.8306 77.6531 47.6249 77.6578ZM49.0202 71.839L48.8718 74.3922L51.0093 72.9078C50.6975 72.6851 50.371 72.4922 50.0444 72.2992C49.711 72.1287 49.3691 71.9751 49.0202 71.839Z" fill="black"/>
<path d="M52.97 74.125C52.7155 74.1231 52.4692 74.0341 52.2724 73.8727C51.5648 73.3278 50.8209 72.8319 50.0458 72.3883C49.2715 71.9172 48.4627 71.5053 47.6263 71.1563C47.4069 71.0687 47.2211 70.9136 47.0957 70.7135C46.9703 70.5134 46.9118 70.2786 46.9286 70.043L47.5372 59.8602C47.548 59.6876 47.5988 59.5199 47.6856 59.3703L48.4427 58.0641C48.5527 57.8723 48.7174 57.7177 48.9157 57.6199C49.1139 57.5221 49.3368 57.4855 49.556 57.5149C52.2228 57.8774 54.7939 58.7546 57.1263 60.0977C59.4437 61.4543 61.4835 63.2373 63.138 65.3524C63.2741 65.5283 63.3552 65.7405 63.371 65.9623C63.3869 66.1842 63.3368 66.4058 63.227 66.5992L62.47 67.9055C62.3791 68.0531 62.2576 68.1797 62.1138 68.2766L53.5638 73.9469C53.389 74.0662 53.1816 74.1284 52.97 74.125ZM49.1106 69.4492C49.7909 69.745 50.4549 70.077 51.0997 70.4438C51.7404 70.8146 52.3598 71.221 52.9552 71.6609L60.5849 66.6141L60.8224 66.2133C59.4308 64.5745 57.7752 63.1798 55.9239 62.0867C54.0576 61.0136 52.0181 60.2752 49.8974 59.9047L49.6599 60.3055L49.1106 69.4492Z" fill="black"/>
<path d="M87.7027 67.8163H68.7324C68.4372 67.8163 68.154 67.6991 67.9452 67.4903C67.7364 67.2815 67.6191 66.9983 67.6191 66.7031C67.6191 66.4078 67.7364 66.1246 67.9452 65.9159C68.154 65.7071 68.4372 65.5898 68.7324 65.5898H85.0605L74.9371 55.4663C74.7405 55.2553 74.6334 54.9762 74.6385 54.6878C74.6436 54.3993 74.7604 54.1242 74.9644 53.9202C75.1684 53.7162 75.4435 53.5994 75.732 53.5943C76.0204 53.5892 76.2995 53.6963 76.5105 53.8929L88.534 65.9164C88.6898 66.0728 88.7956 66.2721 88.8379 66.4888C88.8802 66.7056 88.8571 66.93 88.7715 67.1335C88.6858 67.3439 88.537 67.5225 88.3456 67.6448C88.1542 67.767 87.9296 67.827 87.7027 67.8163Z" fill="black"/>
</svg>
