<svg width="121" height="99" viewBox="0 0 121 99" fill="none" xmlns="http://www.w3.org/2000/svg">
<rect x="0.5" y="28" width="65" height="65" fill="#FBD333"/>
<path d="M58.6603 39.1455L52.6553 46.0067L54.1103 47.2802L60.1153 40.419L58.6603 39.1455Z" fill="black"/>
<path d="M91.1706 46.7931C90.0365 46.7931 88.9518 46.3697 88.1164 45.6011L72.9609 31.6347L74.2709 30.2125L89.4255 44.1779C89.9021 44.6169 90.5218 44.8586 91.1696 44.8586C91.857 44.8586 92.5028 44.5908 92.9881 44.1054C93.9675 43.1261 93.9994 41.5608 93.0616 40.5437L78.3151 24.3257L79.7459 23.0244L94.4886 39.2386C96.1273 41.0165 96.0712 43.7574 94.3561 45.4734C93.5054 46.3242 92.3742 46.7931 91.1706 46.7931Z" fill="black"/>
<path d="M62.9466 83.5409H33.1055V77.8397C33.1055 76.3402 34.3256 75.1201 35.8251 75.1201H60.227C61.7265 75.1201 62.9466 76.3402 62.9466 77.8397V83.5409ZM35.0391 81.6073H61.013V77.8397C61.013 77.4066 60.6601 77.0537 60.227 77.0537H35.8251C35.3919 77.0537 35.0391 77.4066 35.0391 77.8397V81.6073Z" fill="black"/>
<path d="M57.6091 77.0541H38.4434V56.7881L40.2426 59.8384C41.861 62.5822 44.8436 64.2857 48.0262 64.2857C48.0272 64.2857 48.0282 64.2857 48.0292 64.2857C51.2109 64.2857 54.1915 62.5822 55.8099 59.8384L57.6091 56.7881V77.0541ZM40.377 75.1206H55.6755V63.1062C53.6511 65.0697 50.9073 66.2192 48.0292 66.2192C48.0282 66.2192 48.0272 66.2192 48.0262 66.2192C45.1462 66.2192 42.4014 65.0697 40.377 63.1062V75.1206Z" fill="black"/>
<path d="M56.8726 52.8572L56.2248 51.4592C56.0025 50.9796 55.7337 50.5136 55.4263 50.0757C53.7353 47.6616 50.9684 46.2211 48.0254 46.2211C47.5875 46.2211 47.1466 46.253 46.7154 46.3158L43.9688 46.7141L68.3127 20.9084L67.9927 23.7836C67.9724 23.9664 67.9618 24.153 67.9618 24.3376C67.9618 27.123 70.2279 29.3891 73.0133 29.3891C73.3439 29.3882 73.6726 29.3563 73.9878 29.2924L76.6426 28.7607L56.8726 52.8572ZM48.8849 44.3213C52.1324 44.5765 55.1237 46.2723 57.0108 48.9658C57.0959 49.0876 57.1791 49.2114 57.2603 49.337L72.09 31.2618C69.2089 30.879 66.877 28.7336 66.2167 25.9502L48.8849 44.3213Z" fill="black"/>
<path d="M108.895 83.5418H86.0801V72.384H96.4954V64.2871H108.895V83.5418ZM88.0137 81.6082H106.961V66.2207H98.429V74.3176H88.0137V81.6082Z" fill="black"/>
<path d="M101.17 57.9048L97.0244 57.1507C95.7376 56.9177 94.8037 55.7981 94.8037 54.4901V45.8498H103.552C104.854 45.8498 105.972 46.7779 106.211 48.057L106.959 52.0615L105.059 52.4163L104.31 48.4118C104.242 48.0473 103.924 47.7824 103.552 47.7824H96.7373V54.4891C96.7373 54.8623 97.0032 55.1803 97.3696 55.2471L101.516 56.0012L101.17 57.9048Z" fill="black"/>
<path d="M93.7568 43.3445L92.3965 44.7187L100.662 52.9008L102.023 51.5266L93.7568 43.3445Z" fill="black"/>
<path d="M108.895 56.7656H106.961V65.2531H108.895V56.7656Z" fill="black"/>
<path d="M88.0137 66.5509H86.0801V73.914H88.0137V66.5509Z" fill="black"/>
<path d="M48.0259 66.2199C44.1626 66.2199 40.542 64.1509 38.5774 60.8213C37.5845 59.1429 37.0596 57.2171 37.0596 55.2535C37.0596 51.2983 39.202 47.6351 42.6496 45.6938C43.8291 45.0287 45.1033 44.5946 46.4385 44.4022C46.9615 44.3268 47.4961 44.2881 48.0259 44.2881C51.5983 44.2881 54.9569 46.037 57.0104 48.9664C57.3816 49.4972 57.7084 50.0618 57.9791 50.6467C58.651 52.0921 58.9923 53.6418 58.9923 55.2545C58.9923 57.218 58.4674 59.1439 57.4745 60.8232C55.5109 64.1509 51.8902 66.2199 48.0259 66.2199ZM48.0259 46.2207C47.589 46.2207 47.1481 46.2526 46.715 46.3155C45.6177 46.474 44.5687 46.8317 43.599 47.378C40.7576 48.978 38.9932 51.9954 38.9932 55.2535C38.9932 56.8709 39.4253 58.4565 40.2423 59.838C41.8617 62.5818 44.8442 64.2863 48.0259 64.2863C51.2086 64.2863 54.1912 62.5818 55.8096 59.839C56.6275 58.4565 57.0587 56.8709 57.0587 55.2535C57.0587 53.9251 56.7784 52.6489 56.2254 51.4608C56.0011 50.9783 55.7333 50.5123 55.4268 50.0753C53.7349 47.6612 50.9689 46.2207 48.0259 46.2207Z" fill="black"/>
<path d="M48.0254 58.8329C46.0521 58.8329 44.4463 57.2271 44.4463 55.2538C44.4463 53.2806 46.0521 51.6747 48.0254 51.6747C49.9986 51.6747 51.6045 53.2806 51.6045 55.2538C51.6045 57.2271 49.9986 58.8329 48.0254 58.8329ZM48.0254 53.6083C47.1185 53.6083 46.3799 54.346 46.3799 55.2538C46.3799 56.1616 47.1185 56.8993 48.0254 56.8993C48.9322 56.8993 49.6709 56.1607 49.6709 55.2538C49.6709 54.347 48.9322 53.6083 48.0254 53.6083Z" fill="black"/>
<path d="M73.0125 31.3208C69.1607 31.3208 66.0273 28.1874 66.0273 24.3357C66.0273 24.0814 66.0418 23.8223 66.0699 23.5681C66.4566 20.0247 69.4411 17.3506 73.0125 17.3506C76.8632 17.3516 79.9966 20.4859 79.9966 24.3367C79.9966 27.6692 77.627 30.5522 74.3621 31.1893C73.9299 31.2763 73.4736 31.3208 73.0125 31.3208ZM73.0125 19.2842C70.4301 19.2842 68.2722 21.2168 67.9919 23.7788C67.9716 23.9654 67.9609 24.152 67.9609 24.3357C67.9609 27.121 70.2271 29.3872 73.0125 29.3872C73.347 29.3872 73.6747 29.3553 73.987 29.2925C76.3508 28.8303 78.063 26.7469 78.063 24.3367C78.063 21.5513 75.7968 19.2851 73.0125 19.2842Z" fill="black"/>
<path d="M73.0125 25.9067C72.1462 25.9067 71.4424 25.2019 71.4424 24.3366C71.4424 23.4704 72.1472 22.7665 73.0125 22.7665C73.8777 22.7665 74.5825 23.4713 74.5825 24.3366C74.5825 25.2019 73.8777 25.9067 73.0125 25.9067ZM73.0125 23.9731C72.8123 23.9731 72.6489 24.1365 72.6489 24.3366C72.6489 24.5367 72.8123 24.7001 73.0125 24.7001C73.2126 24.7001 73.376 24.5367 73.376 24.3366C73.376 24.1365 73.2126 23.9731 73.0125 23.9731Z" fill="black"/>
<path d="M63.2953 33.8431L61.5117 35.8818L62.9669 37.1549L64.7505 35.1161L63.2953 33.8431Z" fill="black"/>
</svg>
