<svg width="102" height="83" viewBox="0 0 102 83" fill="none" xmlns="http://www.w3.org/2000/svg">
<rect x="0.5" y="18" width="65" height="65" fill="#FBD333"/>
<path d="M80.2754 21.3778C80.2754 23.7443 82.2008 25.6689 84.5673 25.6689C86.9338 25.6689 88.8583 23.7435 88.8583 21.3778C88.8583 19.0105 86.933 17.0859 84.5673 17.0859C82.2008 17.0859 80.2754 19.0113 80.2754 21.3778ZM87.2192 21.3778C87.2192 22.8399 86.0302 24.0289 84.5681 24.0289C83.106 24.0289 81.9162 22.8399 81.9162 21.3778C81.9162 19.9158 83.106 18.7259 84.5681 18.7259C86.0302 18.7259 87.2192 19.9158 87.2192 21.3778Z" fill="black"/>
<path d="M56.208 21.3778C56.208 23.7443 58.1334 25.6689 60.4999 25.6689C62.8664 25.6689 64.7918 23.7435 64.7918 21.3778C64.7918 19.0105 62.8664 17.0859 60.4999 17.0859C58.1334 17.0859 56.208 19.0113 56.208 21.3778ZM63.1518 21.3778C63.1518 22.8399 61.9619 24.0289 60.4999 24.0289C59.0378 24.0289 57.848 22.8399 57.848 21.3778C57.848 19.9158 59.0378 18.7259 60.4999 18.7259C61.9619 18.7259 63.1518 19.9158 63.1518 21.3778Z" fill="black"/>
<path d="M32.1416 21.3778C32.1416 23.7443 34.067 25.6689 36.4327 25.6689C38.8 25.6689 40.7245 23.7435 40.7245 21.3778C40.7245 19.0105 38.7992 17.0859 36.4327 17.0859C34.067 17.0859 32.1416 19.0113 32.1416 21.3778ZM39.0854 21.3778C39.0854 22.8399 37.8955 24.0289 36.4335 24.0289C34.9714 24.0289 33.7824 22.8399 33.7824 21.3778C33.7824 19.9158 34.9714 18.7259 36.4335 18.7259C37.8955 18.7259 39.0854 19.9158 39.0854 21.3778Z" fill="black"/>
<path d="M89.4262 65.327H66.0677V60.9875C66.0677 57.9166 63.5691 55.4181 60.4982 55.4181C57.4282 55.4181 54.9296 57.9166 54.9296 60.9875V65.327H31.5703C29.435 65.327 27.6982 67.0637 27.6982 69.199V69.9288C27.6982 72.0641 29.435 73.8008 31.5703 73.8008H89.427C91.5623 73.8008 93.2991 72.0641 93.2991 69.9288V69.199C93.2982 67.0637 91.5615 65.327 89.4262 65.327ZM56.5696 60.9875C56.5696 58.8203 58.3318 57.0581 60.4982 57.0581C62.6655 57.0581 64.4277 58.8203 64.4277 60.9875V65.327H56.5696V60.9875ZM91.6582 69.928C91.6582 71.1588 90.657 72.16 89.4262 72.16H31.5703C30.3395 72.16 29.3382 71.1588 29.3382 69.928V69.1982C29.3382 67.9674 30.3395 66.9662 31.5703 66.9662H89.427C90.6578 66.9662 91.6591 67.9674 91.6591 69.1982V69.928H91.6582Z" fill="black"/>
<path d="M92.4802 9.84001C92.9337 9.84001 93.3002 9.47347 93.3002 9.02001C93.3002 8.56655 92.9337 8.20001 92.4802 8.20001H28.5202C28.0667 8.20001 27.7002 8.56655 27.7002 9.02001C27.7002 9.47347 28.0667 9.84001 28.5202 9.84001H35.6124V12.8199C31.1811 13.2348 27.7002 16.9724 27.7002 21.5111C27.7002 24.9297 29.6797 27.8874 32.548 29.3208V36.6778C32.548 38.0644 33.6764 39.1927 35.063 39.1927H35.6124V41.0418C34.1159 41.2181 32.6653 41.8741 31.5189 43.0205C28.8088 45.7298 28.8088 50.1389 31.5189 52.8474C31.8396 53.168 32.3578 53.168 32.6784 52.8474C32.999 52.5267 32.999 52.0085 32.6784 51.6879C30.6087 49.6182 30.6087 46.2496 32.6784 44.18C34.7489 42.1111 38.1158 42.1111 40.1863 44.18C42.256 46.2496 42.256 49.6182 40.1863 51.6879C39.8657 52.0085 39.8657 52.5267 40.1863 52.8474C40.3462 53.0073 40.5562 53.0876 40.7661 53.0876C40.976 53.0876 41.1859 53.0073 41.3458 52.8474C44.0559 50.1381 44.0559 45.729 41.3458 43.0205C40.1995 41.8741 38.7489 41.2181 37.2524 41.0418V39.1927H37.8018C39.1884 39.1927 40.3167 38.0644 40.3167 36.6778V29.3208C43.1851 27.8874 45.1646 24.9297 45.1646 21.5111C45.1646 16.9724 41.6837 13.234 37.2524 12.8191V9.84001H59.6802V12.8199C55.2489 13.2348 51.768 16.9724 51.768 21.5119C51.768 24.9305 53.7475 27.8882 56.6159 29.3216V36.6786C56.6159 38.0652 57.7442 39.1936 59.1308 39.1936H59.6802V41.064C57.6532 41.2518 55.7713 42.1292 54.3141 43.5863C50.9029 46.9975 50.9029 52.5481 54.3141 55.9593C54.6347 56.2799 55.153 56.2799 55.4736 55.9593C55.7942 55.6386 55.7942 55.1204 55.4736 54.7998C52.702 52.0282 52.702 47.5174 55.4736 44.7458C56.8168 43.4026 58.6011 42.6638 60.5002 42.6638C62.3993 42.6638 64.1836 43.4026 65.5268 44.7458C68.2984 47.5174 68.2984 52.0282 65.5268 54.7998C65.2062 55.1204 65.2062 55.6386 65.5268 55.9593C65.6867 56.1192 65.8966 56.1995 66.1065 56.1995C66.3165 56.1995 66.5264 56.1192 66.6863 55.9593C70.0975 52.5481 70.0975 46.9975 66.6863 43.5863C65.2291 42.1283 63.3472 41.2509 61.3202 41.064V39.1936H61.8696C63.2562 39.1936 64.3845 38.0652 64.3845 36.6786V29.3216C67.2529 27.8882 69.2324 24.9305 69.2324 21.5119C69.2324 16.9732 65.7515 13.2348 61.3202 12.8199V9.84001H83.748V12.8199C79.3167 13.2348 75.8358 16.9724 75.8358 21.5119C75.8358 24.9305 77.8153 27.8882 80.6837 29.3216V36.6786C80.6837 38.0652 81.812 39.1936 83.1986 39.1936H83.748V41.0427C82.2515 41.219 80.8009 41.875 79.6546 43.0213C76.9445 45.7306 76.9445 50.1397 79.6546 52.8482C79.9752 53.1688 80.4934 53.1688 80.8141 52.8482C81.1347 52.5276 81.1347 52.0093 80.8141 51.6887C78.7444 49.619 78.7444 46.2505 80.8141 44.1808C82.8846 42.1119 86.2515 42.1119 88.322 44.1808C90.3917 46.2505 90.3917 49.619 88.322 51.6887C88.0014 52.0093 88.0014 52.5276 88.322 52.8482C88.4819 53.0081 88.6918 53.0884 88.9017 53.0884C89.1116 53.0884 89.3216 53.0081 89.4815 52.8482C92.1916 50.1389 92.1916 45.7298 89.4815 43.0213C88.3351 41.875 86.8845 41.219 85.388 41.0427V39.1936H85.9366C87.3232 39.1936 88.4515 38.0652 88.4515 36.6786V29.3216C91.3207 27.8882 93.3002 24.9305 93.3002 21.5111C93.3002 16.9724 89.8193 13.234 85.388 12.8191V9.84001H92.4802ZM38.6775 36.6778C38.6775 37.1608 38.2848 37.5527 37.8026 37.5527H35.0638C34.5808 37.5527 34.1889 37.16 34.1889 36.6778V29.9399C34.9064 30.1309 35.6567 30.2433 36.4332 30.2433C37.2097 30.2433 37.96 30.1317 38.6775 29.9399V36.6778ZM43.5254 21.5111C43.5254 25.4225 40.3438 28.6033 36.4332 28.6033C32.5226 28.6033 29.3402 25.4225 29.3402 21.5111C29.3402 17.5997 32.5218 14.4181 36.4324 14.4181C40.343 14.4181 43.5254 17.6005 43.5254 21.5111ZM62.7445 36.6778C62.7445 37.1608 62.3518 37.5527 61.8696 37.5527H59.1308C58.6478 37.5527 58.2559 37.16 58.2559 36.6778V29.9399C58.9734 30.1309 59.7237 30.2433 60.5002 30.2433C61.2767 30.2433 62.027 30.1317 62.7445 29.9399V36.6778ZM67.5924 21.5111C67.5924 25.4225 64.4108 28.6033 60.5002 28.6033C56.5896 28.6033 53.408 25.4217 53.408 21.5111C53.408 17.6005 56.5896 14.4181 60.5002 14.4181C64.4108 14.4181 67.5924 17.6005 67.5924 21.5111ZM86.8115 36.6778C86.8115 37.1608 86.4188 37.5527 85.9366 37.5527H83.1986C82.7156 37.5527 82.3237 37.16 82.3237 36.6778V29.9399C83.0412 30.1309 83.7915 30.2433 84.568 30.2433C85.3446 30.2433 86.094 30.1317 86.8115 29.9399V36.6778ZM91.6602 21.5111C91.6602 25.4225 88.4786 28.6033 84.568 28.6033C80.6574 28.6033 77.4758 25.4217 77.4758 21.5111C77.4758 17.6005 80.6574 14.4181 84.568 14.4181C88.4786 14.4181 91.6602 17.6005 91.6602 21.5111Z" fill="black"/>
</svg>
