<svg width="104" height="99" viewBox="0 0 104 99" fill="none" xmlns="http://www.w3.org/2000/svg">
<rect x="39" y="17" width="65" height="65" fill="#FBD333"/>
<path d="M37.1613 39.1455L31.1562 46.0067L32.6113 47.2802L38.6163 40.419L37.1613 39.1455Z" fill="black"/>
<path d="M69.6706 46.7931C68.5365 46.7931 67.4518 46.3697 66.6164 45.6011L51.4609 31.6347L52.7709 30.2125L67.9255 44.1779C68.4021 44.6169 69.0218 44.8586 69.6696 44.8586C70.357 44.8586 71.0028 44.5908 71.4881 44.1054C72.4675 43.1261 72.4994 41.5608 71.5616 40.5437L56.8151 24.3257L58.2459 23.0244L72.9886 39.2386C74.6273 41.0165 74.5712 43.7574 72.8561 45.4734C72.0054 46.3242 70.8742 46.7931 69.6706 46.7931Z" fill="black"/>
<path d="M41.4466 83.5409H11.6055V77.8397C11.6055 76.3402 12.8256 75.1201 14.3251 75.1201H38.727C40.2265 75.1201 41.4466 76.3402 41.4466 77.8397V83.5409ZM13.5391 81.6073H39.513V77.8397C39.513 77.4066 39.1601 77.0537 38.727 77.0537H14.3251C13.8919 77.0537 13.5391 77.4066 13.5391 77.8397V81.6073Z" fill="black"/>
<path d="M36.1091 77.0541H16.9434V56.7881L18.7426 59.8384C20.361 62.5822 23.3436 64.2857 26.5262 64.2857C26.5272 64.2857 26.5282 64.2857 26.5292 64.2857C29.7109 64.2857 32.6915 62.5822 34.3099 59.8384L36.1091 56.7881V77.0541ZM18.877 75.1206H34.1755V63.1062C32.1511 65.0697 29.4073 66.2192 26.5292 66.2192C26.5282 66.2192 26.5272 66.2192 26.5262 66.2192C23.6462 66.2192 20.9014 65.0697 18.877 63.1062V75.1206Z" fill="black"/>
<path d="M35.3726 52.8572L34.7248 51.4592C34.5025 50.9796 34.2337 50.5136 33.9263 50.0757C32.2353 47.6616 29.4684 46.2211 26.5254 46.2211C26.0875 46.2211 25.6466 46.253 25.2154 46.3158L22.4688 46.7141L46.8127 20.9084L46.4927 23.7836C46.4724 23.9664 46.4618 24.153 46.4618 24.3376C46.4618 27.123 48.7279 29.3891 51.5133 29.3891C51.8439 29.3882 52.1726 29.3563 52.4878 29.2924L55.1426 28.7607L35.3726 52.8572ZM27.3849 44.3213C30.6324 44.5765 33.6237 46.2723 35.5108 48.9658C35.5959 49.0876 35.6791 49.2114 35.7603 49.337L50.59 31.2618C47.7089 30.879 45.377 28.7336 44.7167 25.9502L27.3849 44.3213Z" fill="black"/>
<path d="M87.3946 83.5418H64.5801V72.384H74.9954V64.2871H87.3946V83.5418ZM66.5137 81.6082H85.461V66.2207H76.929V74.3176H66.5137V81.6082Z" fill="black"/>
<path d="M79.6691 57.9048L75.5235 57.1507C74.2367 56.9177 73.3027 55.7982 73.3027 54.4901V45.8499H82.0513C83.3526 45.8499 84.4712 46.778 84.71 48.0571L85.4583 52.0615L83.5575 52.4163L82.8092 48.4119C82.7406 48.0474 82.4225 47.7825 82.0513 47.7825H75.2363V54.4891C75.2363 54.8623 75.5022 55.1804 75.8686 55.2471L80.0152 56.0012L79.6691 57.9048Z" fill="black"/>
<path d="M72.2568 43.3445L70.8965 44.7187L79.1623 52.9008L80.5226 51.5266L72.2568 43.3445Z" fill="black"/>
<path d="M87.3945 56.7656H85.4609V65.2531H87.3945V56.7656Z" fill="black"/>
<path d="M66.5137 66.5509H64.5801V73.914H66.5137V66.5509Z" fill="black"/>
<path d="M26.525 66.2199C22.6617 66.2199 19.041 64.1509 17.0765 60.8213C16.0836 59.1429 15.5586 57.2171 15.5586 55.2535C15.5586 51.2983 17.701 47.6351 21.1486 45.6938C22.3281 45.0287 23.6023 44.5946 24.9375 44.4022C25.4605 44.3268 25.9952 44.2881 26.525 44.2881C30.0973 44.2881 33.4559 46.037 35.5094 48.9664C35.8807 49.4972 36.2074 50.0618 36.4781 50.6467C37.1501 52.0921 37.4914 53.6418 37.4914 55.2545C37.4914 57.218 36.9664 59.1439 35.9735 60.8232C34.0099 64.1509 30.3893 66.2199 26.525 66.2199ZM26.525 46.2207C26.088 46.2207 25.6471 46.2526 25.214 46.3155C24.1167 46.474 23.0677 46.8317 22.098 47.378C19.2566 48.978 17.4922 51.9954 17.4922 55.2535C17.4922 56.8709 17.9243 58.4565 18.7413 59.838C20.3607 62.5818 23.3432 64.2863 26.525 64.2863C29.7077 64.2863 32.6902 62.5818 34.3087 59.839C35.1266 58.4565 35.5578 56.8709 35.5578 55.2535C35.5578 53.9251 35.2774 52.6489 34.7244 51.4608C34.5001 50.9783 34.2323 50.5123 33.9258 50.0753C32.2339 47.6612 29.4679 46.2207 26.525 46.2207Z" fill="black"/>
<path d="M26.5263 58.833C24.5531 58.833 22.9473 57.2271 22.9473 55.2539C22.9473 53.2807 24.5531 51.6748 26.5263 51.6748C28.4996 51.6748 30.1054 53.2807 30.1054 55.2539C30.1054 57.2271 28.4996 58.833 26.5263 58.833ZM26.5263 53.6084C25.6195 53.6084 24.8809 54.3461 24.8809 55.2539C24.8809 56.1617 25.6195 56.8994 26.5263 56.8994C27.4332 56.8994 28.1718 56.1607 28.1718 55.2539C28.1718 54.347 27.4332 53.6084 26.5263 53.6084Z" fill="black"/>
<path d="M51.5125 31.3208C47.6607 31.3208 44.5273 28.1874 44.5273 24.3357C44.5273 24.0814 44.5418 23.8223 44.5699 23.5681C44.9566 20.0247 47.9411 17.3506 51.5125 17.3506C55.3632 17.3516 58.4966 20.4859 58.4966 24.3367C58.4966 27.6692 56.127 30.5522 52.8621 31.1893C52.4299 31.2763 51.9736 31.3208 51.5125 31.3208ZM51.5125 19.2842C48.9301 19.2842 46.7722 21.2168 46.4919 23.7788C46.4716 23.9654 46.4609 24.152 46.4609 24.3357C46.4609 27.121 48.7271 29.3872 51.5125 29.3872C51.847 29.3872 52.1747 29.3553 52.487 29.2925C54.8508 28.8303 56.563 26.7469 56.563 24.3367C56.563 21.5513 54.2968 19.2851 51.5125 19.2842Z" fill="black"/>
<path d="M51.5134 25.9068C50.6472 25.9068 49.9434 25.202 49.9434 24.3367C49.9434 23.4704 50.6482 22.7666 51.5134 22.7666C52.3787 22.7666 53.0835 23.4714 53.0835 24.3367C53.0835 25.202 52.3787 25.9068 51.5134 25.9068ZM51.5134 23.9732C51.3133 23.9732 51.1499 24.1366 51.1499 24.3367C51.1499 24.5368 51.3133 24.7002 51.5134 24.7002C51.7136 24.7002 51.877 24.5368 51.877 24.3367C51.877 24.1366 51.7136 23.9732 51.5134 23.9732Z" fill="black"/>
<path d="M41.7953 33.8431L40.0117 35.8818L41.4669 37.1549L43.2505 35.1161L41.7953 33.8431Z" fill="black"/>
</svg>
