<svg width="104" height="77" viewBox="0 0 104 77" fill="none" xmlns="http://www.w3.org/2000/svg">
<rect x="39" y="3" width="65" height="65" fill="#FBD333"/>
<mask id="path-2-outside-1_421_1966" maskUnits="userSpaceOnUse" x="0.757812" y="7.41772" width="74" height="63" fill="black">
<rect fill="white" x="0.757812" y="7.41772" width="74" height="63"/>
<path d="M57.2779 41.4962C54.7069 41.4962 52.2875 41.7341 50.1223 42.1584V35.6472V29.0314V22.414V15.7982C50.1223 11.6594 42.6456 8.41772 33.1007 8.41772C23.5534 8.41772 16.0752 11.6594 16.0752 15.7982V22.414V29.0314V35.6472V42.2662V47.1634C7.85929 47.7108 1.75781 50.7184 1.75781 54.4614V61.0803C1.75781 65.2222 9.23605 68.4662 18.7825 68.4662C26.9499 68.4662 33.5989 66.09 35.3498 62.8098C37.0908 62.7143 38.7409 62.5087 40.2647 62.2107C40.3933 66.3009 47.8177 69.4903 57.2794 69.4903C66.822 69.4903 74.2964 66.2447 74.2964 62.1029V55.4978V48.882C74.2941 44.7402 66.8197 41.4962 57.2779 41.4962ZM35.8041 54.4614C35.8041 52.5965 34.2865 50.9163 31.7509 49.6297C31.8163 49.632 31.8833 49.6327 31.9487 49.6343C32.3291 49.6451 32.7126 49.652 33.0999 49.652C35.6717 49.652 38.091 49.4141 40.257 48.9898V53.9994C38.8356 54.2936 37.3257 54.5061 35.8041 54.6231V54.4614ZM41.797 51.9997C44.4597 54.5407 50.3163 56.2671 57.2771 56.2671C64.2364 56.2671 70.0915 54.5407 72.7541 52.0005V55.4971C72.7541 58.9351 64.5975 61.3321 57.2771 61.3321C49.9552 61.3321 41.797 58.9351 41.797 55.4971V51.9997ZM57.2779 43.0362C66.5356 43.0362 72.7549 46.0592 72.7549 48.882C72.7549 52.3262 64.5983 54.7278 57.2779 54.7278C49.956 54.7278 41.7978 52.3262 41.7978 48.882C41.797 46.0584 48.0171 43.0362 57.2779 43.0362ZM33.0999 9.95695C40.4226 9.95695 48.5815 12.3555 48.5815 15.7974C48.5815 18.621 42.3607 21.6432 33.0999 21.6432C23.8368 21.6432 17.6144 18.621 17.6144 15.7974C17.6144 12.3555 25.7757 9.95695 33.0999 9.95695ZM17.6144 18.9151C19.2153 20.4428 21.9772 21.6725 25.433 22.4132C27.7261 22.9045 30.3225 23.1832 33.0999 23.1832C35.8765 23.1832 38.4722 22.9045 40.7652 22.4132C44.2202 21.6725 46.9807 20.4428 48.5815 18.9159V22.4132C48.5815 25.2368 42.3607 28.2606 33.0999 28.2606C23.8368 28.2606 17.6144 25.2368 17.6144 22.4132V18.9151ZM17.6144 25.5317L17.6152 25.5325C17.9455 25.8474 18.3244 26.1493 18.7486 26.4373C18.7548 26.4419 18.761 26.4457 18.7671 26.4504C19.1875 26.7345 19.6518 27.0048 20.1562 27.2589C20.1716 27.2666 20.1862 27.2743 20.2016 27.282C20.7014 27.5322 21.2396 27.7671 21.8132 27.985C21.8402 27.995 21.8679 28.005 21.8956 28.0158C22.4639 28.2291 23.066 28.4262 23.699 28.6056C23.7398 28.6171 23.7806 28.6279 23.8222 28.6395C24.1086 28.7188 24.4004 28.795 24.6992 28.8666C24.7338 28.8751 24.767 28.8836 24.8024 28.892C25.1258 28.969 25.4561 29.0414 25.7934 29.1092C25.845 29.1199 25.8981 29.1292 25.9497 29.14C26.24 29.1969 26.5356 29.2501 26.8352 29.3001C26.9006 29.3117 26.9653 29.3225 27.0308 29.3332C27.3734 29.3887 27.7214 29.4395 28.0749 29.4849C28.1272 29.4919 28.1811 29.498 28.2343 29.5042C28.54 29.5427 28.8495 29.5766 29.1621 29.6081C29.2491 29.6166 29.3354 29.6251 29.4231 29.6335C29.7843 29.6666 30.1493 29.6967 30.5196 29.7198C30.5589 29.7221 30.5989 29.7236 30.6382 29.7259C30.9724 29.746 31.3104 29.7614 31.6508 29.7737C31.7501 29.7768 31.8494 29.7806 31.9487 29.7837C32.3291 29.7945 32.7126 29.8014 33.0999 29.8014C33.4872 29.8014 33.8699 29.7937 34.251 29.7837C34.3504 29.7814 34.4497 29.7775 34.5483 29.7744C34.8894 29.7629 35.2282 29.7467 35.5624 29.7267C35.6016 29.7244 35.6409 29.7229 35.6794 29.7205C36.0505 29.6974 36.4155 29.6674 36.7774 29.6343C36.8637 29.6266 36.9499 29.6181 37.0354 29.6089C37.348 29.5773 37.6575 29.5434 37.9624 29.5057C38.0163 29.4988 38.0702 29.4926 38.1234 29.4865C38.4768 29.4403 38.8256 29.3894 39.1683 29.334C39.2322 29.324 39.2953 29.3124 39.3585 29.3017C39.6618 29.2516 39.9591 29.1969 40.2524 29.14C40.3025 29.13 40.3525 29.1215 40.4018 29.1107C40.7398 29.0429 41.0709 28.9698 41.3959 28.8928C41.429 28.8851 41.4613 28.8766 41.4944 28.8689C41.7955 28.7965 42.0889 28.7195 42.3776 28.6395C42.4169 28.6287 42.4562 28.6179 42.4947 28.6071C43.1284 28.4277 43.7305 28.2306 44.3011 28.0165C44.3273 28.0065 44.3542 27.9965 44.3812 27.9865C44.9556 27.7678 45.4938 27.5337 45.9935 27.2827C46.0089 27.275 46.0236 27.2673 46.039 27.2604C46.5441 27.0055 47.0084 26.7353 47.4288 26.4511C47.435 26.4473 47.4411 26.4427 47.4465 26.4388C47.8708 26.1508 48.2496 25.8482 48.5807 25.5341C48.5807 25.5341 48.5807 25.5333 48.5815 25.5333V29.0314C48.5815 32.4764 40.4218 34.8772 33.0999 34.8772C23.8368 34.8772 17.6144 31.855 17.6144 29.0314V25.5317ZM17.6144 32.1484C17.9455 32.4648 18.3267 32.7682 18.7533 33.057C18.7571 33.0593 18.761 33.0623 18.7648 33.0647C19.1868 33.3496 19.6526 33.6206 20.1593 33.8762C20.1731 33.8832 20.187 33.8901 20.2009 33.897C20.7014 34.148 21.2419 34.3837 21.8171 34.6023C21.8425 34.6124 21.8679 34.6216 21.8941 34.6316C22.4639 34.8457 23.0676 35.0428 23.702 35.2222C23.7413 35.2337 23.7821 35.2445 23.8222 35.2553C24.1094 35.3354 24.402 35.4116 24.7023 35.4832C24.7362 35.4917 24.7693 35.5002 24.8039 35.5079C25.1281 35.5849 25.4592 35.6572 25.7964 35.725C25.8465 35.735 25.8981 35.7443 25.9489 35.755C26.2407 35.812 26.5372 35.8659 26.8383 35.916C26.9029 35.9267 26.9668 35.9383 27.0323 35.9483C27.3749 36.0037 27.723 36.0546 28.0764 36.1C28.1295 36.1069 28.1834 36.1131 28.2366 36.1192C28.5415 36.157 28.8503 36.1916 29.1629 36.2224C29.2499 36.2309 29.3369 36.2394 29.4239 36.2478C29.785 36.2809 30.1493 36.311 30.5189 36.3341C30.5604 36.3364 30.6035 36.3379 30.6459 36.341C30.9778 36.361 31.3135 36.3764 31.6523 36.388C31.7516 36.3911 31.851 36.3949 31.9503 36.398C32.3307 36.4088 32.7141 36.4157 33.1014 36.4157C33.4887 36.4157 33.8714 36.408 34.2526 36.398C34.3519 36.3957 34.4512 36.3918 34.5506 36.3887C34.8894 36.3772 35.2251 36.3618 35.5577 36.3418C35.5993 36.3395 35.6417 36.3379 35.6832 36.3348C36.0528 36.3117 36.4178 36.2817 36.7789 36.2486C36.8652 36.2409 36.9514 36.2324 37.0377 36.2232C37.3495 36.1924 37.6591 36.1585 37.964 36.12C38.0179 36.1131 38.0726 36.1077 38.1264 36.1008C38.4791 36.0553 38.8256 36.0045 39.1683 35.9491C39.2353 35.9383 39.3015 35.9267 39.3677 35.916C39.6672 35.8659 39.9614 35.8128 40.2501 35.7558C40.3025 35.7458 40.3556 35.7366 40.408 35.7258C40.7437 35.658 41.0725 35.5856 41.3943 35.5094C41.4328 35.5002 41.4698 35.4909 41.5075 35.4817C41.8017 35.4108 42.0889 35.3362 42.3707 35.2576C42.4154 35.2453 42.4592 35.2337 42.5039 35.2214C43.1322 35.0436 43.7313 34.8472 44.2965 34.6355C44.328 34.6239 44.3581 34.6124 44.3896 34.6008C44.9587 34.3844 45.4938 34.1511 45.9897 33.9024C46.0089 33.8924 46.0274 33.8832 46.0467 33.8739C46.5472 33.6206 47.0092 33.3526 47.4273 33.07C47.435 33.0647 47.4435 33.0585 47.4511 33.0531C47.8739 32.7659 48.2519 32.4648 48.5807 32.1514C48.5815 32.1507 48.5823 32.1507 48.583 32.1499V35.6472V35.648C48.5823 37.151 46.6942 38.7434 43.5172 39.8876C40.9531 40.7716 37.716 41.3352 34.5244 41.4661C34.057 41.4831 33.585 41.4962 33.1007 41.4962C32.4138 41.4962 31.7201 41.4754 31.0263 41.4338C30.1877 41.3845 29.3492 41.3052 28.5238 41.1989C22.7472 40.4567 17.6152 38.38 17.6152 35.6465V32.1484H17.6144ZM17.6144 38.7665C17.6152 38.7673 17.616 38.768 17.6167 38.7688C17.9455 39.0822 18.3228 39.3833 18.7456 39.6705C18.754 39.6759 18.7625 39.682 18.771 39.6874C19.1891 39.9692 19.6511 40.2387 20.1523 40.4921C20.1708 40.5013 20.1893 40.5098 20.2078 40.5198C20.7044 40.7677 21.2388 41.001 21.8086 41.2182C21.8402 41.2305 21.8718 41.2413 21.9033 41.2536C22.1844 41.3591 22.4708 41.4615 22.768 41.5585C22.7688 41.5585 22.7696 41.5593 22.7703 41.5593C23.0706 41.6571 23.3794 41.7503 23.6951 41.8396C23.739 41.8527 23.7837 41.8634 23.8283 41.8765C24.1109 41.9551 24.3981 42.029 24.6923 42.1006C24.73 42.1098 24.7677 42.1191 24.8055 42.1283C25.1273 42.2053 25.4561 42.2762 25.791 42.3439C25.8449 42.3547 25.8996 42.3647 25.9535 42.3755C26.2415 42.4317 26.5341 42.4848 26.8313 42.5341C26.8983 42.5457 26.9653 42.5572 27.0331 42.568C27.3742 42.6227 27.7214 42.6743 28.0733 42.7197C28.128 42.7266 28.1834 42.7328 28.2373 42.7389C28.5423 42.7774 28.8503 42.8113 29.1613 42.8421C29.2484 42.8514 29.3346 42.8591 29.4224 42.8675C29.7835 42.9006 30.1477 42.9307 30.5173 42.9538C30.5589 42.9561 30.6012 42.9584 30.6436 42.9607C30.9762 42.9807 31.312 42.9961 31.6508 43.0084C31.7501 43.0115 31.8494 43.0154 31.9487 43.0177C32.3291 43.0285 32.7126 43.0354 33.0999 43.0354C33.4872 43.0354 33.8699 43.0277 34.251 43.0177C34.3504 43.0154 34.4497 43.0115 34.5483 43.0084C34.8871 42.9961 35.2243 42.9815 35.557 42.9607C35.5985 42.9584 35.6401 42.9561 35.6817 42.9538C36.0521 42.9307 36.417 42.9006 36.7782 42.8675C36.8644 42.8598 36.9499 42.8514 37.0361 42.8429C37.3495 42.8113 37.6591 42.7767 37.9655 42.7389C38.0179 42.732 38.0726 42.7258 38.1249 42.7197C38.4783 42.6735 38.8256 42.6227 39.1683 42.568C39.2337 42.5572 39.2984 42.5464 39.3646 42.5349C39.6641 42.4856 39.959 42.4309 40.2501 42.3747C40.3017 42.3639 40.3541 42.3547 40.4057 42.3447C40.7421 42.2762 41.0725 42.2038 41.3959 42.1276C41.4305 42.1191 41.4652 42.1106 41.4998 42.1021C41.797 42.0305 42.0881 41.9551 42.3738 41.8758C42.4161 41.8634 42.4585 41.8527 42.5016 41.8403C43.1315 41.6617 43.7313 41.4654 44.2972 41.2528C44.3273 41.2413 44.3573 41.2305 44.3873 41.219C44.9579 41.0018 45.4938 40.7677 45.9912 40.519C46.0082 40.5098 46.0266 40.5021 46.0444 40.4928C46.5456 40.2387 47.0084 39.97 47.4265 39.6874C47.435 39.6813 47.4427 39.6759 47.4504 39.6713C47.8731 39.384 48.2504 39.083 48.58 38.7696C48.58 38.7688 48.5815 38.768 48.5823 38.7673V42.2662C48.5823 42.347 48.5592 42.4294 48.5476 42.511C44.5167 43.5374 41.5968 45.2645 40.6174 47.3358C38.4406 47.8194 35.9027 48.112 33.0999 48.112C25.7757 48.112 17.6144 45.7104 17.6144 42.2662V38.7665ZM17.6144 45.3831C17.9463 45.6996 18.3274 46.0037 18.754 46.2933C18.7571 46.2948 18.7594 46.2971 18.7625 46.2994C19.1775 46.5797 19.6341 46.8469 20.1308 47.0979C19.685 47.0833 19.236 47.074 18.781 47.074C18.3875 47.074 17.9994 47.0817 17.6137 47.0917V45.3831H17.6144ZM18.7817 48.614C27.9062 48.614 34.2641 51.6956 34.2641 54.4614C34.2641 57.2858 28.0425 60.3103 18.7817 60.3103C9.51941 60.3103 3.29704 57.2858 3.29704 54.4614C3.29704 51.0141 11.4575 48.614 18.7817 48.614ZM18.7817 66.9254C11.4575 66.9254 3.29704 64.5238 3.29704 61.0796V57.5799C5.96047 60.1225 11.8186 61.8496 18.7817 61.8496C25.7433 61.8496 31.6015 60.1225 34.2641 57.5799V61.0796C34.2641 64.5238 26.1044 66.9254 18.7817 66.9254ZM35.8041 61.0796V56.1777C37.3757 56.073 38.868 55.8774 40.257 55.6049V60.6052C38.8325 60.8994 37.321 61.1111 35.7957 61.2282C35.798 61.1781 35.8041 61.1296 35.8041 61.0796ZM72.7541 62.1021C72.7541 65.5479 64.5975 67.9495 57.2771 67.9495C48.0171 67.9495 41.797 64.9249 41.797 62.1021V58.6109C44.4597 61.1481 50.3163 62.8721 57.2771 62.8721C64.2364 62.8721 70.0915 61.1481 72.7541 58.6117V62.1021Z"/>
</mask>
<path d="M57.2779 41.4962C54.7069 41.4962 52.2875 41.7341 50.1223 42.1584V35.6472V29.0314V22.414V15.7982C50.1223 11.6594 42.6456 8.41772 33.1007 8.41772C23.5534 8.41772 16.0752 11.6594 16.0752 15.7982V22.414V29.0314V35.6472V42.2662V47.1634C7.85929 47.7108 1.75781 50.7184 1.75781 54.4614V61.0803C1.75781 65.2222 9.23605 68.4662 18.7825 68.4662C26.9499 68.4662 33.5989 66.09 35.3498 62.8098C37.0908 62.7143 38.7409 62.5087 40.2647 62.2107C40.3933 66.3009 47.8177 69.4903 57.2794 69.4903C66.822 69.4903 74.2964 66.2447 74.2964 62.1029V55.4978V48.882C74.2941 44.7402 66.8197 41.4962 57.2779 41.4962ZM35.8041 54.4614C35.8041 52.5965 34.2865 50.9163 31.7509 49.6297C31.8163 49.632 31.8833 49.6327 31.9487 49.6343C32.3291 49.6451 32.7126 49.652 33.0999 49.652C35.6717 49.652 38.091 49.4141 40.257 48.9898V53.9994C38.8356 54.2936 37.3257 54.5061 35.8041 54.6231V54.4614ZM41.797 51.9997C44.4597 54.5407 50.3163 56.2671 57.2771 56.2671C64.2364 56.2671 70.0915 54.5407 72.7541 52.0005V55.4971C72.7541 58.9351 64.5975 61.3321 57.2771 61.3321C49.9552 61.3321 41.797 58.9351 41.797 55.4971V51.9997ZM57.2779 43.0362C66.5356 43.0362 72.7549 46.0592 72.7549 48.882C72.7549 52.3262 64.5983 54.7278 57.2779 54.7278C49.956 54.7278 41.7978 52.3262 41.7978 48.882C41.797 46.0584 48.0171 43.0362 57.2779 43.0362ZM33.0999 9.95695C40.4226 9.95695 48.5815 12.3555 48.5815 15.7974C48.5815 18.621 42.3607 21.6432 33.0999 21.6432C23.8368 21.6432 17.6144 18.621 17.6144 15.7974C17.6144 12.3555 25.7757 9.95695 33.0999 9.95695ZM17.6144 18.9151C19.2153 20.4428 21.9772 21.6725 25.433 22.4132C27.7261 22.9045 30.3225 23.1832 33.0999 23.1832C35.8765 23.1832 38.4722 22.9045 40.7652 22.4132C44.2202 21.6725 46.9807 20.4428 48.5815 18.9159V22.4132C48.5815 25.2368 42.3607 28.2606 33.0999 28.2606C23.8368 28.2606 17.6144 25.2368 17.6144 22.4132V18.9151ZM17.6144 25.5317L17.6152 25.5325C17.9455 25.8474 18.3244 26.1493 18.7486 26.4373C18.7548 26.4419 18.761 26.4457 18.7671 26.4504C19.1875 26.7345 19.6518 27.0048 20.1562 27.2589C20.1716 27.2666 20.1862 27.2743 20.2016 27.282C20.7014 27.5322 21.2396 27.7671 21.8132 27.985C21.8402 27.995 21.8679 28.005 21.8956 28.0158C22.4639 28.2291 23.066 28.4262 23.699 28.6056C23.7398 28.6171 23.7806 28.6279 23.8222 28.6395C24.1086 28.7188 24.4004 28.795 24.6992 28.8666C24.7338 28.8751 24.767 28.8836 24.8024 28.892C25.1258 28.969 25.4561 29.0414 25.7934 29.1092C25.845 29.1199 25.8981 29.1292 25.9497 29.14C26.24 29.1969 26.5356 29.2501 26.8352 29.3001C26.9006 29.3117 26.9653 29.3225 27.0308 29.3332C27.3734 29.3887 27.7214 29.4395 28.0749 29.4849C28.1272 29.4919 28.1811 29.498 28.2343 29.5042C28.54 29.5427 28.8495 29.5766 29.1621 29.6081C29.2491 29.6166 29.3354 29.6251 29.4231 29.6335C29.7843 29.6666 30.1493 29.6967 30.5196 29.7198C30.5589 29.7221 30.5989 29.7236 30.6382 29.7259C30.9724 29.746 31.3104 29.7614 31.6508 29.7737C31.7501 29.7768 31.8494 29.7806 31.9487 29.7837C32.3291 29.7945 32.7126 29.8014 33.0999 29.8014C33.4872 29.8014 33.8699 29.7937 34.251 29.7837C34.3504 29.7814 34.4497 29.7775 34.5483 29.7744C34.8894 29.7629 35.2282 29.7467 35.5624 29.7267C35.6016 29.7244 35.6409 29.7229 35.6794 29.7205C36.0505 29.6974 36.4155 29.6674 36.7774 29.6343C36.8637 29.6266 36.9499 29.6181 37.0354 29.6089C37.348 29.5773 37.6575 29.5434 37.9624 29.5057C38.0163 29.4988 38.0702 29.4926 38.1234 29.4865C38.4768 29.4403 38.8256 29.3894 39.1683 29.334C39.2322 29.324 39.2953 29.3124 39.3585 29.3017C39.6618 29.2516 39.9591 29.1969 40.2524 29.14C40.3025 29.13 40.3525 29.1215 40.4018 29.1107C40.7398 29.0429 41.0709 28.9698 41.3959 28.8928C41.429 28.8851 41.4613 28.8766 41.4944 28.8689C41.7955 28.7965 42.0889 28.7195 42.3776 28.6395C42.4169 28.6287 42.4562 28.6179 42.4947 28.6071C43.1284 28.4277 43.7305 28.2306 44.3011 28.0165C44.3273 28.0065 44.3542 27.9965 44.3812 27.9865C44.9556 27.7678 45.4938 27.5337 45.9935 27.2827C46.0089 27.275 46.0236 27.2673 46.039 27.2604C46.5441 27.0055 47.0084 26.7353 47.4288 26.4511C47.435 26.4473 47.4411 26.4427 47.4465 26.4388C47.8708 26.1508 48.2496 25.8482 48.5807 25.5341C48.5807 25.5341 48.5807 25.5333 48.5815 25.5333V29.0314C48.5815 32.4764 40.4218 34.8772 33.0999 34.8772C23.8368 34.8772 17.6144 31.855 17.6144 29.0314V25.5317ZM17.6144 32.1484C17.9455 32.4648 18.3267 32.7682 18.7533 33.057C18.7571 33.0593 18.761 33.0623 18.7648 33.0647C19.1868 33.3496 19.6526 33.6206 20.1593 33.8762C20.1731 33.8832 20.187 33.8901 20.2009 33.897C20.7014 34.148 21.2419 34.3837 21.8171 34.6023C21.8425 34.6124 21.8679 34.6216 21.8941 34.6316C22.4639 34.8457 23.0676 35.0428 23.702 35.2222C23.7413 35.2337 23.7821 35.2445 23.8222 35.2553C24.1094 35.3354 24.402 35.4116 24.7023 35.4832C24.7362 35.4917 24.7693 35.5002 24.8039 35.5079C25.1281 35.5849 25.4592 35.6572 25.7964 35.725C25.8465 35.735 25.8981 35.7443 25.9489 35.755C26.2407 35.812 26.5372 35.8659 26.8383 35.916C26.9029 35.9267 26.9668 35.9383 27.0323 35.9483C27.3749 36.0037 27.723 36.0546 28.0764 36.1C28.1295 36.1069 28.1834 36.1131 28.2366 36.1192C28.5415 36.157 28.8503 36.1916 29.1629 36.2224C29.2499 36.2309 29.3369 36.2394 29.4239 36.2478C29.785 36.2809 30.1493 36.311 30.5189 36.3341C30.5604 36.3364 30.6035 36.3379 30.6459 36.341C30.9778 36.361 31.3135 36.3764 31.6523 36.388C31.7516 36.3911 31.851 36.3949 31.9503 36.398C32.3307 36.4088 32.7141 36.4157 33.1014 36.4157C33.4887 36.4157 33.8714 36.408 34.2526 36.398C34.3519 36.3957 34.4512 36.3918 34.5506 36.3887C34.8894 36.3772 35.2251 36.3618 35.5577 36.3418C35.5993 36.3395 35.6417 36.3379 35.6832 36.3348C36.0528 36.3117 36.4178 36.2817 36.7789 36.2486C36.8652 36.2409 36.9514 36.2324 37.0377 36.2232C37.3495 36.1924 37.6591 36.1585 37.964 36.12C38.0179 36.1131 38.0726 36.1077 38.1264 36.1008C38.4791 36.0553 38.8256 36.0045 39.1683 35.9491C39.2353 35.9383 39.3015 35.9267 39.3677 35.916C39.6672 35.8659 39.9614 35.8128 40.2501 35.7558C40.3025 35.7458 40.3556 35.7366 40.408 35.7258C40.7437 35.658 41.0725 35.5856 41.3943 35.5094C41.4328 35.5002 41.4698 35.4909 41.5075 35.4817C41.8017 35.4108 42.0889 35.3362 42.3707 35.2576C42.4154 35.2453 42.4592 35.2337 42.5039 35.2214C43.1322 35.0436 43.7313 34.8472 44.2965 34.6355C44.328 34.6239 44.3581 34.6124 44.3896 34.6008C44.9587 34.3844 45.4938 34.1511 45.9897 33.9024C46.0089 33.8924 46.0274 33.8832 46.0467 33.8739C46.5472 33.6206 47.0092 33.3526 47.4273 33.07C47.435 33.0647 47.4435 33.0585 47.4511 33.0531C47.8739 32.7659 48.2519 32.4648 48.5807 32.1514C48.5815 32.1507 48.5823 32.1507 48.583 32.1499V35.6472V35.648C48.5823 37.151 46.6942 38.7434 43.5172 39.8876C40.9531 40.7716 37.716 41.3352 34.5244 41.4661C34.057 41.4831 33.585 41.4962 33.1007 41.4962C32.4138 41.4962 31.7201 41.4754 31.0263 41.4338C30.1877 41.3845 29.3492 41.3052 28.5238 41.1989C22.7472 40.4567 17.6152 38.38 17.6152 35.6465V32.1484H17.6144ZM17.6144 38.7665C17.6152 38.7673 17.616 38.768 17.6167 38.7688C17.9455 39.0822 18.3228 39.3833 18.7456 39.6705C18.754 39.6759 18.7625 39.682 18.771 39.6874C19.1891 39.9692 19.6511 40.2387 20.1523 40.4921C20.1708 40.5013 20.1893 40.5098 20.2078 40.5198C20.7044 40.7677 21.2388 41.001 21.8086 41.2182C21.8402 41.2305 21.8718 41.2413 21.9033 41.2536C22.1844 41.3591 22.4708 41.4615 22.768 41.5585C22.7688 41.5585 22.7696 41.5593 22.7703 41.5593C23.0706 41.6571 23.3794 41.7503 23.6951 41.8396C23.739 41.8527 23.7837 41.8634 23.8283 41.8765C24.1109 41.9551 24.3981 42.029 24.6923 42.1006C24.73 42.1098 24.7677 42.1191 24.8055 42.1283C25.1273 42.2053 25.4561 42.2762 25.791 42.3439C25.8449 42.3547 25.8996 42.3647 25.9535 42.3755C26.2415 42.4317 26.5341 42.4848 26.8313 42.5341C26.8983 42.5457 26.9653 42.5572 27.0331 42.568C27.3742 42.6227 27.7214 42.6743 28.0733 42.7197C28.128 42.7266 28.1834 42.7328 28.2373 42.7389C28.5423 42.7774 28.8503 42.8113 29.1613 42.8421C29.2484 42.8514 29.3346 42.8591 29.4224 42.8675C29.7835 42.9006 30.1477 42.9307 30.5173 42.9538C30.5589 42.9561 30.6012 42.9584 30.6436 42.9607C30.9762 42.9807 31.312 42.9961 31.6508 43.0084C31.7501 43.0115 31.8494 43.0154 31.9487 43.0177C32.3291 43.0285 32.7126 43.0354 33.0999 43.0354C33.4872 43.0354 33.8699 43.0277 34.251 43.0177C34.3504 43.0154 34.4497 43.0115 34.5483 43.0084C34.8871 42.9961 35.2243 42.9815 35.557 42.9607C35.5985 42.9584 35.6401 42.9561 35.6817 42.9538C36.0521 42.9307 36.417 42.9006 36.7782 42.8675C36.8644 42.8598 36.9499 42.8514 37.0361 42.8429C37.3495 42.8113 37.6591 42.7767 37.9655 42.7389C38.0179 42.732 38.0726 42.7258 38.1249 42.7197C38.4783 42.6735 38.8256 42.6227 39.1683 42.568C39.2337 42.5572 39.2984 42.5464 39.3646 42.5349C39.6641 42.4856 39.959 42.4309 40.2501 42.3747C40.3017 42.3639 40.3541 42.3547 40.4057 42.3447C40.7421 42.2762 41.0725 42.2038 41.3959 42.1276C41.4305 42.1191 41.4652 42.1106 41.4998 42.1021C41.797 42.0305 42.0881 41.9551 42.3738 41.8758C42.4161 41.8634 42.4585 41.8527 42.5016 41.8403C43.1315 41.6617 43.7313 41.4654 44.2972 41.2528C44.3273 41.2413 44.3573 41.2305 44.3873 41.219C44.9579 41.0018 45.4938 40.7677 45.9912 40.519C46.0082 40.5098 46.0266 40.5021 46.0444 40.4928C46.5456 40.2387 47.0084 39.97 47.4265 39.6874C47.435 39.6813 47.4427 39.6759 47.4504 39.6713C47.8731 39.384 48.2504 39.083 48.58 38.7696C48.58 38.7688 48.5815 38.768 48.5823 38.7673V42.2662C48.5823 42.347 48.5592 42.4294 48.5476 42.511C44.5167 43.5374 41.5968 45.2645 40.6174 47.3358C38.4406 47.8194 35.9027 48.112 33.0999 48.112C25.7757 48.112 17.6144 45.7104 17.6144 42.2662V38.7665ZM17.6144 45.3831C17.9463 45.6996 18.3274 46.0037 18.754 46.2933C18.7571 46.2948 18.7594 46.2971 18.7625 46.2994C19.1775 46.5797 19.6341 46.8469 20.1308 47.0979C19.685 47.0833 19.236 47.074 18.781 47.074C18.3875 47.074 17.9994 47.0817 17.6137 47.0917V45.3831H17.6144ZM18.7817 48.614C27.9062 48.614 34.2641 51.6956 34.2641 54.4614C34.2641 57.2858 28.0425 60.3103 18.7817 60.3103C9.51941 60.3103 3.29704 57.2858 3.29704 54.4614C3.29704 51.0141 11.4575 48.614 18.7817 48.614ZM18.7817 66.9254C11.4575 66.9254 3.29704 64.5238 3.29704 61.0796V57.5799C5.96047 60.1225 11.8186 61.8496 18.7817 61.8496C25.7433 61.8496 31.6015 60.1225 34.2641 57.5799V61.0796C34.2641 64.5238 26.1044 66.9254 18.7817 66.9254ZM35.8041 61.0796V56.1777C37.3757 56.073 38.868 55.8774 40.257 55.6049V60.6052C38.8325 60.8994 37.321 61.1111 35.7957 61.2282C35.798 61.1781 35.8041 61.1296 35.8041 61.0796ZM72.7541 62.1021C72.7541 65.5479 64.5975 67.9495 57.2771 67.9495C48.0171 67.9495 41.797 64.9249 41.797 62.1021V58.6109C44.4597 61.1481 50.3163 62.8721 57.2771 62.8721C64.2364 62.8721 70.0915 61.1481 72.7541 58.6117V62.1021Z" fill="black"/>
<path d="M57.2779 41.4962C54.7069 41.4962 52.2875 41.7341 50.1223 42.1584V35.6472V29.0314V22.414V15.7982C50.1223 11.6594 42.6456 8.41772 33.1007 8.41772C23.5534 8.41772 16.0752 11.6594 16.0752 15.7982V22.414V29.0314V35.6472V42.2662V47.1634C7.85929 47.7108 1.75781 50.7184 1.75781 54.4614V61.0803C1.75781 65.2222 9.23605 68.4662 18.7825 68.4662C26.9499 68.4662 33.5989 66.09 35.3498 62.8098C37.0908 62.7143 38.7409 62.5087 40.2647 62.2107C40.3933 66.3009 47.8177 69.4903 57.2794 69.4903C66.822 69.4903 74.2964 66.2447 74.2964 62.1029V55.4978V48.882C74.2941 44.7402 66.8197 41.4962 57.2779 41.4962ZM35.8041 54.4614C35.8041 52.5965 34.2865 50.9163 31.7509 49.6297C31.8163 49.632 31.8833 49.6327 31.9487 49.6343C32.3291 49.6451 32.7126 49.652 33.0999 49.652C35.6717 49.652 38.091 49.4141 40.257 48.9898V53.9994C38.8356 54.2936 37.3257 54.5061 35.8041 54.6231V54.4614ZM41.797 51.9997C44.4597 54.5407 50.3163 56.2671 57.2771 56.2671C64.2364 56.2671 70.0915 54.5407 72.7541 52.0005V55.4971C72.7541 58.9351 64.5975 61.3321 57.2771 61.3321C49.9552 61.3321 41.797 58.9351 41.797 55.4971V51.9997ZM57.2779 43.0362C66.5356 43.0362 72.7549 46.0592 72.7549 48.882C72.7549 52.3262 64.5983 54.7278 57.2779 54.7278C49.956 54.7278 41.7978 52.3262 41.7978 48.882C41.797 46.0584 48.0171 43.0362 57.2779 43.0362ZM33.0999 9.95695C40.4226 9.95695 48.5815 12.3555 48.5815 15.7974C48.5815 18.621 42.3607 21.6432 33.0999 21.6432C23.8368 21.6432 17.6144 18.621 17.6144 15.7974C17.6144 12.3555 25.7757 9.95695 33.0999 9.95695ZM17.6144 18.9151C19.2153 20.4428 21.9772 21.6725 25.433 22.4132C27.7261 22.9045 30.3225 23.1832 33.0999 23.1832C35.8765 23.1832 38.4722 22.9045 40.7652 22.4132C44.2202 21.6725 46.9807 20.4428 48.5815 18.9159V22.4132C48.5815 25.2368 42.3607 28.2606 33.0999 28.2606C23.8368 28.2606 17.6144 25.2368 17.6144 22.4132V18.9151ZM17.6144 25.5317L17.6152 25.5325C17.9455 25.8474 18.3244 26.1493 18.7486 26.4373C18.7548 26.4419 18.761 26.4457 18.7671 26.4504C19.1875 26.7345 19.6518 27.0048 20.1562 27.2589C20.1716 27.2666 20.1862 27.2743 20.2016 27.282C20.7014 27.5322 21.2396 27.7671 21.8132 27.985C21.8402 27.995 21.8679 28.005 21.8956 28.0158C22.4639 28.2291 23.066 28.4262 23.699 28.6056C23.7398 28.6171 23.7806 28.6279 23.8222 28.6395C24.1086 28.7188 24.4004 28.795 24.6992 28.8666C24.7338 28.8751 24.767 28.8836 24.8024 28.892C25.1258 28.969 25.4561 29.0414 25.7934 29.1092C25.845 29.1199 25.8981 29.1292 25.9497 29.14C26.24 29.1969 26.5356 29.2501 26.8352 29.3001C26.9006 29.3117 26.9653 29.3225 27.0308 29.3332C27.3734 29.3887 27.7214 29.4395 28.0749 29.4849C28.1272 29.4919 28.1811 29.498 28.2343 29.5042C28.54 29.5427 28.8495 29.5766 29.1621 29.6081C29.2491 29.6166 29.3354 29.6251 29.4231 29.6335C29.7843 29.6666 30.1493 29.6967 30.5196 29.7198C30.5589 29.7221 30.5989 29.7236 30.6382 29.7259C30.9724 29.746 31.3104 29.7614 31.6508 29.7737C31.7501 29.7768 31.8494 29.7806 31.9487 29.7837C32.3291 29.7945 32.7126 29.8014 33.0999 29.8014C33.4872 29.8014 33.8699 29.7937 34.251 29.7837C34.3504 29.7814 34.4497 29.7775 34.5483 29.7744C34.8894 29.7629 35.2282 29.7467 35.5624 29.7267C35.6016 29.7244 35.6409 29.7229 35.6794 29.7205C36.0505 29.6974 36.4155 29.6674 36.7774 29.6343C36.8637 29.6266 36.9499 29.6181 37.0354 29.6089C37.348 29.5773 37.6575 29.5434 37.9624 29.5057C38.0163 29.4988 38.0702 29.4926 38.1234 29.4865C38.4768 29.4403 38.8256 29.3894 39.1683 29.334C39.2322 29.324 39.2953 29.3124 39.3585 29.3017C39.6618 29.2516 39.9591 29.1969 40.2524 29.14C40.3025 29.13 40.3525 29.1215 40.4018 29.1107C40.7398 29.0429 41.0709 28.9698 41.3959 28.8928C41.429 28.8851 41.4613 28.8766 41.4944 28.8689C41.7955 28.7965 42.0889 28.7195 42.3776 28.6395C42.4169 28.6287 42.4562 28.6179 42.4947 28.6071C43.1284 28.4277 43.7305 28.2306 44.3011 28.0165C44.3273 28.0065 44.3542 27.9965 44.3812 27.9865C44.9556 27.7678 45.4938 27.5337 45.9935 27.2827C46.0089 27.275 46.0236 27.2673 46.039 27.2604C46.5441 27.0055 47.0084 26.7353 47.4288 26.4511C47.435 26.4473 47.4411 26.4427 47.4465 26.4388C47.8708 26.1508 48.2496 25.8482 48.5807 25.5341C48.5807 25.5341 48.5807 25.5333 48.5815 25.5333V29.0314C48.5815 32.4764 40.4218 34.8772 33.0999 34.8772C23.8368 34.8772 17.6144 31.855 17.6144 29.0314V25.5317ZM17.6144 32.1484C17.9455 32.4648 18.3267 32.7682 18.7533 33.057C18.7571 33.0593 18.761 33.0623 18.7648 33.0647C19.1868 33.3496 19.6526 33.6206 20.1593 33.8762C20.1731 33.8832 20.187 33.8901 20.2009 33.897C20.7014 34.148 21.2419 34.3837 21.8171 34.6023C21.8425 34.6124 21.8679 34.6216 21.8941 34.6316C22.4639 34.8457 23.0676 35.0428 23.702 35.2222C23.7413 35.2337 23.7821 35.2445 23.8222 35.2553C24.1094 35.3354 24.402 35.4116 24.7023 35.4832C24.7362 35.4917 24.7693 35.5002 24.8039 35.5079C25.1281 35.5849 25.4592 35.6572 25.7964 35.725C25.8465 35.735 25.8981 35.7443 25.9489 35.755C26.2407 35.812 26.5372 35.8659 26.8383 35.916C26.9029 35.9267 26.9668 35.9383 27.0323 35.9483C27.3749 36.0037 27.723 36.0546 28.0764 36.1C28.1295 36.1069 28.1834 36.1131 28.2366 36.1192C28.5415 36.157 28.8503 36.1916 29.1629 36.2224C29.2499 36.2309 29.3369 36.2394 29.4239 36.2478C29.785 36.2809 30.1493 36.311 30.5189 36.3341C30.5604 36.3364 30.6035 36.3379 30.6459 36.341C30.9778 36.361 31.3135 36.3764 31.6523 36.388C31.7516 36.3911 31.851 36.3949 31.9503 36.398C32.3307 36.4088 32.7141 36.4157 33.1014 36.4157C33.4887 36.4157 33.8714 36.408 34.2526 36.398C34.3519 36.3957 34.4512 36.3918 34.5506 36.3887C34.8894 36.3772 35.2251 36.3618 35.5577 36.3418C35.5993 36.3395 35.6417 36.3379 35.6832 36.3348C36.0528 36.3117 36.4178 36.2817 36.7789 36.2486C36.8652 36.2409 36.9514 36.2324 37.0377 36.2232C37.3495 36.1924 37.6591 36.1585 37.964 36.12C38.0179 36.1131 38.0726 36.1077 38.1264 36.1008C38.4791 36.0553 38.8256 36.0045 39.1683 35.9491C39.2353 35.9383 39.3015 35.9267 39.3677 35.916C39.6672 35.8659 39.9614 35.8128 40.2501 35.7558C40.3025 35.7458 40.3556 35.7366 40.408 35.7258C40.7437 35.658 41.0725 35.5856 41.3943 35.5094C41.4328 35.5002 41.4698 35.4909 41.5075 35.4817C41.8017 35.4108 42.0889 35.3362 42.3707 35.2576C42.4154 35.2453 42.4592 35.2337 42.5039 35.2214C43.1322 35.0436 43.7313 34.8472 44.2965 34.6355C44.328 34.6239 44.3581 34.6124 44.3896 34.6008C44.9587 34.3844 45.4938 34.1511 45.9897 33.9024C46.0089 33.8924 46.0274 33.8832 46.0467 33.8739C46.5472 33.6206 47.0092 33.3526 47.4273 33.07C47.435 33.0647 47.4435 33.0585 47.4511 33.0531C47.8739 32.7659 48.2519 32.4648 48.5807 32.1514C48.5815 32.1507 48.5823 32.1507 48.583 32.1499V35.6472V35.648C48.5823 37.151 46.6942 38.7434 43.5172 39.8876C40.9531 40.7716 37.716 41.3352 34.5244 41.4661C34.057 41.4831 33.585 41.4962 33.1007 41.4962C32.4138 41.4962 31.7201 41.4754 31.0263 41.4338C30.1877 41.3845 29.3492 41.3052 28.5238 41.1989C22.7472 40.4567 17.6152 38.38 17.6152 35.6465V32.1484H17.6144ZM17.6144 38.7665C17.6152 38.7673 17.616 38.768 17.6167 38.7688C17.9455 39.0822 18.3228 39.3833 18.7456 39.6705C18.754 39.6759 18.7625 39.682 18.771 39.6874C19.1891 39.9692 19.6511 40.2387 20.1523 40.4921C20.1708 40.5013 20.1893 40.5098 20.2078 40.5198C20.7044 40.7677 21.2388 41.001 21.8086 41.2182C21.8402 41.2305 21.8718 41.2413 21.9033 41.2536C22.1844 41.3591 22.4708 41.4615 22.768 41.5585C22.7688 41.5585 22.7696 41.5593 22.7703 41.5593C23.0706 41.6571 23.3794 41.7503 23.6951 41.8396C23.739 41.8527 23.7837 41.8634 23.8283 41.8765C24.1109 41.9551 24.3981 42.029 24.6923 42.1006C24.73 42.1098 24.7677 42.1191 24.8055 42.1283C25.1273 42.2053 25.4561 42.2762 25.791 42.3439C25.8449 42.3547 25.8996 42.3647 25.9535 42.3755C26.2415 42.4317 26.5341 42.4848 26.8313 42.5341C26.8983 42.5457 26.9653 42.5572 27.0331 42.568C27.3742 42.6227 27.7214 42.6743 28.0733 42.7197C28.128 42.7266 28.1834 42.7328 28.2373 42.7389C28.5423 42.7774 28.8503 42.8113 29.1613 42.8421C29.2484 42.8514 29.3346 42.8591 29.4224 42.8675C29.7835 42.9006 30.1477 42.9307 30.5173 42.9538C30.5589 42.9561 30.6012 42.9584 30.6436 42.9607C30.9762 42.9807 31.312 42.9961 31.6508 43.0084C31.7501 43.0115 31.8494 43.0154 31.9487 43.0177C32.3291 43.0285 32.7126 43.0354 33.0999 43.0354C33.4872 43.0354 33.8699 43.0277 34.251 43.0177C34.3504 43.0154 34.4497 43.0115 34.5483 43.0084C34.8871 42.9961 35.2243 42.9815 35.557 42.9607C35.5985 42.9584 35.6401 42.9561 35.6817 42.9538C36.0521 42.9307 36.417 42.9006 36.7782 42.8675C36.8644 42.8598 36.9499 42.8514 37.0361 42.8429C37.3495 42.8113 37.6591 42.7767 37.9655 42.7389C38.0179 42.732 38.0726 42.7258 38.1249 42.7197C38.4783 42.6735 38.8256 42.6227 39.1683 42.568C39.2337 42.5572 39.2984 42.5464 39.3646 42.5349C39.6641 42.4856 39.959 42.4309 40.2501 42.3747C40.3017 42.3639 40.3541 42.3547 40.4057 42.3447C40.7421 42.2762 41.0725 42.2038 41.3959 42.1276C41.4305 42.1191 41.4652 42.1106 41.4998 42.1021C41.797 42.0305 42.0881 41.9551 42.3738 41.8758C42.4161 41.8634 42.4585 41.8527 42.5016 41.8403C43.1315 41.6617 43.7313 41.4654 44.2972 41.2528C44.3273 41.2413 44.3573 41.2305 44.3873 41.219C44.9579 41.0018 45.4938 40.7677 45.9912 40.519C46.0082 40.5098 46.0266 40.5021 46.0444 40.4928C46.5456 40.2387 47.0084 39.97 47.4265 39.6874C47.435 39.6813 47.4427 39.6759 47.4504 39.6713C47.8731 39.384 48.2504 39.083 48.58 38.7696C48.58 38.7688 48.5815 38.768 48.5823 38.7673V42.2662C48.5823 42.347 48.5592 42.4294 48.5476 42.511C44.5167 43.5374 41.5968 45.2645 40.6174 47.3358C38.4406 47.8194 35.9027 48.112 33.0999 48.112C25.7757 48.112 17.6144 45.7104 17.6144 42.2662V38.7665ZM17.6144 45.3831C17.9463 45.6996 18.3274 46.0037 18.754 46.2933C18.7571 46.2948 18.7594 46.2971 18.7625 46.2994C19.1775 46.5797 19.6341 46.8469 20.1308 47.0979C19.685 47.0833 19.236 47.074 18.781 47.074C18.3875 47.074 17.9994 47.0817 17.6137 47.0917V45.3831H17.6144ZM18.7817 48.614C27.9062 48.614 34.2641 51.6956 34.2641 54.4614C34.2641 57.2858 28.0425 60.3103 18.7817 60.3103C9.51941 60.3103 3.29704 57.2858 3.29704 54.4614C3.29704 51.0141 11.4575 48.614 18.7817 48.614ZM18.7817 66.9254C11.4575 66.9254 3.29704 64.5238 3.29704 61.0796V57.5799C5.96047 60.1225 11.8186 61.8496 18.7817 61.8496C25.7433 61.8496 31.6015 60.1225 34.2641 57.5799V61.0796C34.2641 64.5238 26.1044 66.9254 18.7817 66.9254ZM35.8041 61.0796V56.1777C37.3757 56.073 38.868 55.8774 40.257 55.6049V60.6052C38.8325 60.8994 37.321 61.1111 35.7957 61.2282C35.798 61.1781 35.8041 61.1296 35.8041 61.0796ZM72.7541 62.1021C72.7541 65.5479 64.5975 67.9495 57.2771 67.9495C48.0171 67.9495 41.797 64.9249 41.797 62.1021V58.6109C44.4597 61.1481 50.3163 62.8721 57.2771 62.8721C64.2364 62.8721 70.0915 61.1481 72.7541 58.6117V62.1021Z" stroke="black" stroke-width="0.4" mask="url(#path-2-outside-1_421_1966)"/>
</svg>
