<svg width="96" height="65" viewBox="0 0 96 65" fill="none" xmlns="http://www.w3.org/2000/svg">
<rect x="31" width="65" height="65" fill="#FBD333"/>
<path fill-rule="evenodd" clip-rule="evenodd" d="M11.2695 48.2207V36.1705L11.0782 36.0961C8.62197 35.1413 6.5122 33.4709 5.02441 31.3035C3.53663 29.1361 2.73995 26.5723 2.73828 23.9472C2.73678 21.5724 3.38605 19.2421 4.61623 17.2074C5.84642 15.1728 7.61093 13.5108 9.71975 12.4009C11.8286 11.2909 14.2017 10.775 16.5833 10.9089C18.9649 11.0428 21.2646 11.8213 23.2345 13.1606C25.2044 14.4998 26.7699 16.3489 27.7623 18.5084C28.7547 20.668 29.1365 23.0562 28.8666 25.4158C28.5967 27.7753 27.6854 30.017 26.2306 31.899C24.7759 33.7811 22.8328 35.2323 20.6108 36.0961L20.4195 36.1705V48.2207C20.4186 48.3848 20.3732 48.5456 20.2881 48.6863C20.2029 48.8272 20.0809 48.9427 19.935 49.0205C19.789 49.0984 19.6246 49.1356 19.4591 49.1281C19.2936 49.1206 19.1332 49.0686 18.995 48.9781L15.8445 46.8907L12.6934 48.9785C12.5554 49.0689 12.3953 49.1206 12.23 49.1281C12.0645 49.1356 11.9 49.0984 11.7541 49.0205C11.6082 48.9427 11.4862 48.8272 11.401 48.6863C11.3159 48.5456 11.2705 48.3848 11.2695 48.2207ZM16.3488 44.9881L18.582 46.5219V36.9982H13.0948V46.5219L15.3281 44.9881L15.3298 44.9869C15.4804 44.8873 15.6574 44.8341 15.8384 44.8341C16.0195 44.8341 16.1965 44.8873 16.3471 44.9869L16.3488 44.9881ZM73.4258 61.8724V15.1515H29.2508C29.0067 15.1515 28.7729 15.0549 28.6007 14.8834C28.4285 14.7119 28.332 14.4797 28.332 14.2377C28.332 13.9958 28.4285 13.7635 28.6007 13.5921C28.7729 13.4206 29.0067 13.324 29.2508 13.324H74.3445C74.5886 13.324 74.8224 13.4206 74.9946 13.5921C75.1668 13.7635 75.2633 13.9958 75.2633 14.2377V62.7861C75.2633 63.0281 75.1668 63.2603 74.9946 63.4318C74.8224 63.6033 74.5886 63.6998 74.3445 63.6998H3.65703C3.41296 63.6998 3.17914 63.6033 3.00694 63.4318C2.83477 63.2603 2.73828 63.0281 2.73828 62.7861V34.8708C2.73828 34.6289 2.83477 34.3966 3.00694 34.2252C3.17914 34.0537 3.41296 33.9571 3.65703 33.9571C3.9011 33.9571 4.13492 34.0537 4.30713 34.2252C4.47929 34.3966 4.57578 34.6289 4.57578 34.8708V61.8724H73.4258ZM22.1046 14.6151C20.2515 13.3821 18.073 12.724 15.8445 12.724C12.8563 12.724 9.99016 13.9061 7.87676 16.0108C5.76333 18.1155 4.57578 20.9703 4.57578 23.9474C4.57578 26.1674 5.23685 28.3375 6.47523 30.1832C7.71361 32.0289 9.47362 33.4673 11.5326 34.3166C13.5915 35.1659 15.857 35.3881 18.0427 34.9551C20.2284 34.5222 22.2363 33.4535 23.8123 31.8839C25.3884 30.3144 26.4618 28.3145 26.8967 26.1372C27.3316 23.9598 27.1084 21.7029 26.2553 19.652C25.4023 17.601 23.9578 15.8482 22.1046 14.6151ZM68.5508 58.8449V57.0175H70.3883V58.8449H68.5508ZM63.6758 57.0175V58.8449H65.5133V57.0175H63.6758ZM41.7383 24.2474H43.5758V26.0748H41.7383V24.2474ZM38.7008 26.0748H36.8633V24.2474H38.7008V26.0748ZM29.8194 39.1576C29.6473 38.9861 29.5508 38.7538 29.5508 38.5119C29.5508 38.27 29.6473 38.0377 29.8194 37.8663C29.9916 37.6948 30.2255 37.5982 30.4695 37.5982H69.4695C69.7136 37.5982 69.9474 37.6948 70.1196 37.8663C70.2918 38.0377 70.3883 38.27 70.3883 38.5119C70.3883 38.7538 70.2918 38.9861 70.1196 39.1576C69.9474 39.3291 69.7136 39.4256 69.4695 39.4256H30.4695C30.2255 39.4256 29.9916 39.3291 29.8194 39.1576ZM30.4695 42.4531H69.4695C69.7136 42.4531 69.9474 42.5496 70.1196 42.7211C70.2918 42.8926 70.3883 43.1248 70.3883 43.3668C70.3883 43.6087 70.2918 43.841 70.1196 44.0124C69.9474 44.1839 69.7136 44.2805 69.4695 44.2805H30.4695C30.2255 44.2805 29.9916 44.1839 29.8194 44.0124C29.6473 43.841 29.5508 43.6087 29.5508 43.3668C29.5508 43.1248 29.6473 42.8926 29.8194 42.7211C29.9916 42.5496 30.2255 42.4531 30.4695 42.4531ZM30.4695 47.3078H69.4695C69.7136 47.3078 69.9474 47.4044 70.1196 47.5759C70.2918 47.7473 70.3883 47.9796 70.3883 48.2215C70.3883 48.4634 70.2918 48.6957 70.1196 48.8672C69.9474 49.0387 69.7136 49.1352 69.4695 49.1352H30.4695C30.2255 49.1352 29.9916 49.0387 29.8194 48.8672C29.6473 48.6957 29.5508 48.4634 29.5508 48.2215C29.5508 47.9796 29.6473 47.7473 29.8194 47.5759C29.9916 47.4044 30.2255 47.3078 30.4695 47.3078ZM30.4695 52.1627H69.4695C69.7136 52.1627 69.9474 52.2592 70.1196 52.4307C70.2918 52.6022 70.3883 52.8344 70.3883 53.0764C70.3883 53.3183 70.2918 53.5506 70.1196 53.722C69.9474 53.8935 69.7136 53.9901 69.4695 53.9901H30.4695C30.2255 53.9901 29.9916 53.8935 29.8194 53.722C29.6473 53.5506 29.5508 53.3183 29.5508 53.0764C29.5508 52.8344 29.6473 52.6022 29.8194 52.4307C29.9916 52.2592 30.2255 52.1627 30.4695 52.1627ZM20.418 30.7618C19.0644 31.6625 17.4728 32.1433 15.8445 32.1433C13.6611 32.1433 11.5673 31.2795 10.0237 29.7424C8.4802 28.2052 7.61328 26.1207 7.61328 23.9474C7.61328 22.3266 8.09587 20.7422 9.00018 19.3944C9.90449 18.0466 11.19 16.9959 12.6942 16.3755C14.1984 15.755 15.8537 15.5926 17.4506 15.9089C19.0475 16.2253 20.5143 17.0061 21.6653 18.1524C22.8164 19.2987 23.6002 20.759 23.9177 22.3487C24.2352 23.9383 24.0722 25.586 23.4494 27.0834C22.8265 28.5809 21.7717 29.861 20.418 30.7618ZM19.3962 18.6518C18.3448 17.9522 17.1088 17.5788 15.8445 17.5788C14.1492 17.5788 12.5231 18.2495 11.3239 19.4437C10.1247 20.6379 9.45078 22.2579 9.45078 23.9474C9.45078 25.2072 9.82593 26.4387 10.5286 27.486C11.2313 28.5334 12.23 29.3494 13.3982 29.8313C14.5663 30.3132 15.8516 30.4392 17.0917 30.1936C18.3317 29.948 19.4709 29.3416 20.3652 28.4511C21.2594 27.5605 21.8686 26.4257 22.1154 25.1901C22.3622 23.9544 22.2355 22.6737 21.7514 21.5098C21.2673 20.346 20.4477 19.3514 19.3962 18.6518Z" fill="black"/>
</svg>
