<svg width="109" height="92" viewBox="0 0 109 92" fill="none" xmlns="http://www.w3.org/2000/svg">
<rect y="25" width="65" height="65" fill="#FBD333"/>
<path d="M34.2477 35.6151H35.6198L31.9331 45.2391L34.4502 46.2031L38.5061 35.6151H43.0107L55.0654 42.2319H55.4109C57.8558 42.2319 59.8451 40.2431 59.8451 37.7983V16.5391C59.8451 14.0944 57.8559 12.1055 55.4109 12.1055H55.0652L43.0105 18.7237H34.2477C29.5911 18.7237 25.8027 22.5121 25.8027 27.1687C25.8027 31.826 29.5911 35.6151 34.2477 35.6151ZM52.6739 16.4933L55.7099 14.8265C56.5268 14.9686 57.1499 15.6825 57.1499 16.5391V37.7984C57.1499 38.6552 56.5268 39.3691 55.7099 39.511L52.6739 37.8448V16.4933ZM34.2477 21.419H43.7019L49.9786 17.973V36.3649L43.7018 32.9196H34.2477C31.0773 32.9196 28.498 30.3398 28.498 27.1685C28.498 23.9984 31.0775 21.419 34.2477 21.419Z" fill="black"/>
<path d="M94.9844 77.1993V38.0249H77.9141V77.1993H70.7266V52.4013H53.6562V77.1993H46.4688V63.1837H29.3984V77.1993H23.5586V79.8946H29.3984H46.4688H53.6562H70.7266H77.9141H94.9844H102.441V77.1993H94.9844ZM43.7734 77.1993H32.0938V65.879H43.7734V77.1993ZM68.0312 77.1993H56.3516V55.0967H68.0312V77.1993ZM92.2891 77.1993H80.6094V40.7202H92.2891V77.1993Z" fill="black"/>
<path d="M72.8652 25.2111L79.316 29.8474L92.3785 18.0596V25.9887H95.0738V13.6804H82.7658V16.3757H90.2212L79.1239 26.3903L72.9027 21.9187L65.4727 27.0069L66.9953 29.2309L72.8652 25.2111Z" fill="black"/>
</svg>
