<svg width="113" height="90" viewBox="0 0 113 90" fill="none" xmlns="http://www.w3.org/2000/svg">
<rect y="25" width="65" height="65" fill="#FBD333"/>
<path d="M112.66 13.8076C112.66 9.85057 109.441 6.63135 105.484 6.63135H102.069C100.382 6.63135 99.0103 8.0035 99.0103 9.68994V13.3477H30.418C28.1692 13.3477 26.3398 15.1772 26.3398 17.4259V76.2904C26.3398 78.539 28.1692 80.3685 30.418 80.3685H105.484C109.366 80.3685 112.585 77.2118 112.659 73.3318C112.659 73.2988 112.658 73.2661 112.658 73.2331C112.659 73.2194 112.66 73.206 112.66 73.1923V13.8076ZM101.729 9.68994C101.729 9.5026 101.882 9.3501 102.069 9.3501H105.484C107.942 9.3501 109.941 11.3497 109.941 13.8076V67.6252C108.647 66.5955 107.025 66.0161 105.369 66.0161H102.069C101.882 66.0161 101.729 65.8636 101.729 65.6762V9.68994ZM105.484 77.6497H30.418C29.6684 77.6497 29.0586 77.0399 29.0586 76.2904V17.4259C29.0586 16.6763 29.6684 16.0665 30.418 16.0665H99.0103V65.6762C99.0103 67.3627 100.382 68.7348 102.069 68.7348H105.369C106.597 68.7348 107.799 69.2418 108.666 70.1257C109.51 70.9863 109.963 72.1064 109.94 73.2797C109.894 75.6893 107.895 77.6497 105.484 77.6497Z" fill="black"/>
<path d="M67.5628 41.0498H64.6163V32.2878C64.6163 31.5383 65.2262 30.9285 65.9757 30.9285H82.314C83.0636 30.9285 83.6734 31.5383 83.6734 32.2878V33.02C83.1427 32.7629 82.4856 32.8733 82.0713 33.3338C81.569 33.8916 81.6143 34.7512 82.1723 35.2535L84.1234 37.0096C84.3818 37.2423 84.7074 37.3586 85.0328 37.3586C85.3582 37.3586 85.6838 37.2423 85.9421 37.0096L87.8932 35.2535C88.4513 34.7512 88.4966 33.8916 87.9943 33.3338C87.5801 32.8733 86.9229 32.7629 86.3921 33.02V32.2878C86.3921 30.0392 84.5627 28.2097 82.314 28.2097H65.9757C63.7271 28.2097 61.8976 30.0392 61.8976 32.2878V41.0498H58.9512C56.7024 41.0498 54.873 42.8793 54.873 45.1279V48.5882C54.873 50.8369 56.7024 52.6664 58.9512 52.6664H67.5628C69.8113 52.6664 71.6408 50.8369 71.6408 48.5882V45.1279C71.6408 42.8793 69.8113 41.0498 67.5628 41.0498ZM68.9221 48.5882C68.9221 49.3378 68.3123 49.9476 67.5628 49.9476H58.9512C58.2016 49.9476 57.5918 49.3378 57.5918 48.5882V45.1279C57.5918 44.3783 58.2016 43.7685 58.9512 43.7685H67.5628C68.3123 43.7685 68.9221 44.3783 68.9221 45.1279V48.5882Z" fill="black"/>
<path d="M89.3382 41.0498H80.7266C78.4779 41.0498 76.6484 42.8793 76.6484 45.1279V48.5883C76.6484 50.8369 78.4779 52.6664 80.7266 52.6664H89.3382C91.5868 52.6664 93.4163 50.8369 93.4163 48.5883V45.1279C93.4163 42.8793 91.5868 41.0498 89.3382 41.0498ZM90.6975 48.5883C90.6975 49.3378 90.0877 49.9476 89.3382 49.9476H80.7266C79.977 49.9476 79.3672 49.3378 79.3672 48.5883V45.1279C79.3672 44.3784 79.977 43.7686 80.7266 43.7686H89.3382C90.0877 43.7686 90.6975 44.3784 90.6975 45.1279V48.5883Z" fill="black"/>
<path d="M66.1179 58.2926L64.1668 56.5364C63.6497 56.0711 62.865 56.0711 62.3479 56.5364L60.3968 58.2926C59.8389 58.7949 59.7936 59.6544 60.2959 60.2123C60.7103 60.6728 61.3673 60.7831 61.898 60.5261V61.4283C61.898 62.1779 61.2882 62.7877 60.5386 62.7877H44.2003C43.4508 62.7877 42.841 62.1779 42.841 61.4283V52.6664H45.7873C48.036 52.6664 49.8654 50.8369 49.8654 48.5883V45.1279C49.8654 42.8793 48.036 41.0498 45.7873 41.0498H37.1758C34.9271 41.0498 33.0977 42.8793 33.0977 45.1279V48.5883C33.0977 50.8369 34.9271 52.6664 37.1758 52.6664H40.1222V61.4283C40.1222 63.677 41.9516 65.5064 44.2003 65.5064H60.5386C62.7873 65.5064 64.6168 63.677 64.6168 61.4283V60.5271C64.8036 60.6175 65.006 60.6623 65.2081 60.6623C65.58 60.6623 65.9505 60.5107 66.2189 60.2123C66.7211 59.6544 66.6759 58.7949 66.1179 58.2926ZM35.8164 48.5883V45.1279C35.8164 44.3784 36.4262 43.7686 37.1758 43.7686H45.7873C46.5368 43.7686 47.1467 44.3784 47.1467 45.1279V48.5883C47.1467 49.3378 46.5368 49.9476 45.7873 49.9476H37.1758C36.4262 49.9476 35.8164 49.3378 35.8164 48.5883Z" fill="black"/>
<path d="M34.457 30.9285H48.506C49.2568 30.9285 49.8654 30.3198 49.8654 29.5691C49.8654 28.8184 49.2568 28.2097 48.506 28.2097H34.457C33.7062 28.2097 33.0977 28.8184 33.0977 29.5691C33.0977 30.3198 33.7062 30.9285 34.457 30.9285Z" fill="black"/>
<path d="M34.457 36.792H43.0621C43.8129 36.792 44.4214 36.1833 44.4214 35.4326C44.4214 34.6819 43.8129 34.0732 43.0621 34.0732H34.457C33.7062 34.0732 33.0977 34.6819 33.0977 35.4326C33.0977 36.1833 33.7062 36.792 34.457 36.792Z" fill="black"/>
</svg>
