<svg width="91" height="80" viewBox="0 0 91 80" fill="none" xmlns="http://www.w3.org/2000/svg">
<rect y="15" width="65" height="65" fill="#FBD333"/>
<path d="M53.5004 22.47C48.9029 22.47 44.6129 24.5175 41.7479 28.125C39.6254 30.78 38.4629 34.1025 38.4629 37.5C38.4629 45.7875 45.2054 52.53 53.5004 52.53C61.7954 52.53 68.5379 45.7875 68.5379 37.5C68.5379 29.2125 61.7879 22.47 53.5004 22.47ZM53.5004 49.5675C46.8479 49.5675 41.4329 44.1525 41.4329 37.5C41.4329 34.7325 42.3479 32.1375 44.0729 29.97C46.3754 27.0825 49.8104 25.4325 53.5004 25.4325C60.1529 25.4325 65.5604 30.855 65.5604 37.5C65.5604 44.145 60.1529 49.5675 53.5004 49.5675Z" fill="black"/>
<path d="M59.3873 31.1251C58.6598 30.7651 57.7598 31.0576 57.3998 31.7851L53.2298 40.1101L49.2923 36.4126C48.6923 35.8576 47.7548 35.8876 47.1923 36.4876C46.6373 37.0876 46.6673 38.0251 47.2598 38.5801L52.6523 43.6351C52.9298 43.8826 53.2898 44.0326 53.6648 44.0326C53.7548 44.0326 53.8373 44.0176 53.9273 44.0026C54.3923 43.9276 54.7823 43.6351 54.9998 43.2151L60.0548 33.1201C60.4148 32.3851 60.1223 31.4926 59.3873 31.1251Z" fill="black"/>
<path d="M82.2928 16.14C68.5453 13.4625 54.5353 3.04497 54.3928 2.93997C53.8678 2.54247 53.1328 2.54247 52.6078 2.93997C52.4653 3.04497 38.4703 13.455 24.7078 16.14C24.0103 16.275 23.5078 16.89 23.5078 17.5875V45.33C23.5153 45.5775 24.2653 69.69 53.3653 72.345C53.4103 72.345 53.4553 72.345 53.5003 72.345C53.5453 72.345 53.5903 72.345 53.6353 72.345C82.7428 69.69 83.4853 45.585 83.4928 45.3075V17.595C83.4928 16.89 82.9903 16.275 82.2928 16.14ZM77.0203 56.37C72.4978 63.9675 64.5928 68.3325 53.5003 69.375C27.2428 66.915 26.4928 46.17 26.4778 45.3075V18.81C38.5978 16.095 50.2228 8.28747 53.5003 5.96247C56.7778 8.29497 68.4028 16.1025 80.5228 18.81V45.2775C80.5228 45.3375 80.3878 50.715 77.0203 56.37Z" fill="black"/>
</svg>
