<svg width="29" height="29" viewBox="0 0 29 29" fill="none" xmlns="http://www.w3.org/2000/svg">
<path d="M5.91615 13.0651C6.03434 13.0651 6.1507 13.0359 6.25489 12.9801C6.35909 12.9243 6.4479 12.8437 6.51346 12.7453L9.63557 8.05198C10.0206 7.39684 10.2228 6.65037 10.221 5.89047C10.2222 5.22733 10.0701 4.57288 9.77676 3.97817C9.48337 3.38346 9.05655 2.86457 8.5296 2.46198C8.00266 2.05939 7.38982 1.78398 6.7389 1.65724C6.08799 1.53049 5.41659 1.55585 4.77708 1.73132C4.13758 1.90678 3.54726 2.22763 3.05217 2.66881C2.55708 3.11 2.17062 3.65959 1.92292 4.27474C1.67521 4.88988 1.57298 5.55393 1.62418 6.21509C1.67538 6.87625 1.87864 7.51665 2.2181 8.08632L5.31884 12.7453C5.3844 12.8437 5.47322 12.9243 5.57741 12.9801C5.68161 13.0359 5.79796 13.0651 5.91615 13.0651ZM3.04627 5.89043C3.04627 5.12929 3.34864 4.39932 3.88684 3.86112C4.42505 3.32291 5.15501 3.02055 5.91615 3.02055C6.67729 3.02055 7.40726 3.32291 7.94547 3.86112C8.48367 4.39932 8.78603 5.12929 8.78603 5.89043C8.78848 6.38322 8.66112 6.86798 8.41678 7.29594L5.91615 11.0535L3.43689 7.33027C3.18019 6.89392 3.0453 6.39668 3.04627 5.89043Z" fill="#DC1E28"/>
<path d="M20.2662 8.04273C19.0104 8.04111 17.7765 8.37193 16.6899 9.00158C15.6034 9.63122 14.7028 10.5373 14.0798 11.6276C13.4568 12.718 13.1335 13.9539 13.1428 15.2097C13.152 16.4654 13.4936 17.6964 14.1326 18.7775L19.6692 27.0946C19.7346 27.193 19.8234 27.2736 19.9275 27.3294C20.0317 27.3852 20.148 27.4144 20.2662 27.4144C20.3843 27.4144 20.5006 27.3852 20.6048 27.3294C20.7089 27.2736 20.7977 27.193 20.8631 27.0946L25.9513 19.4564L26.4214 18.7424C27.058 17.6583 27.3923 16.4234 27.3897 15.1663C27.3875 13.2777 26.6363 11.467 25.3009 10.1316C23.9654 8.79611 22.1548 8.0449 20.2662 8.04273ZM25.2022 17.9864L20.2662 25.4028L15.3518 18.0214C14.8432 17.156 14.5758 16.1701 14.5775 15.1663C14.5766 14.4187 14.7231 13.6782 15.0086 12.9873C15.2941 12.2963 15.713 11.6684 16.2413 11.1394C16.7696 10.6105 17.397 10.1909 18.0876 9.90457C18.7783 9.61826 19.5185 9.4709 20.2661 9.4709C21.0137 9.4709 21.754 9.61826 22.4446 9.90457C23.1353 10.1909 23.7627 10.6105 24.291 11.1394C24.8193 11.6684 25.2382 12.2963 25.5237 12.9873C25.8092 13.6782 25.9556 14.4187 25.9547 15.1663C25.958 16.1564 25.6983 17.1296 25.2022 17.9864Z" fill="#DC1E28"/>
<path d="M20.2644 12.3477C19.6968 12.3477 19.1419 12.516 18.67 12.8313C18.198 13.1467 17.8302 13.5949 17.613 14.1193C17.3958 14.6437 17.3389 15.2207 17.4497 15.7774C17.5604 16.3341 17.8337 16.8455 18.2351 17.2468C18.6365 17.6482 19.1478 17.9215 19.7045 18.0323C20.2612 18.143 20.8383 18.0862 21.3627 17.869C21.8871 17.6517 22.3353 17.2839 22.6506 16.812C22.966 16.34 23.1343 15.7851 23.1343 15.2175C23.1334 14.4567 22.8308 13.7272 22.2928 13.1892C21.7547 12.6512 21.0253 12.3485 20.2644 12.3477ZM20.2644 16.6525C19.9806 16.6525 19.7032 16.5683 19.4672 16.4107C19.2312 16.253 19.0473 16.0289 18.9387 15.7667C18.8301 15.5045 18.8017 15.216 18.857 14.9376C18.9124 14.6592 19.0491 14.4036 19.2497 14.2029C19.4504 14.0022 19.7061 13.8655 19.9845 13.8102C20.2628 13.7548 20.5513 13.7832 20.8135 13.8918C21.0757 14.0004 21.2998 14.1843 21.4575 14.4203C21.6152 14.6563 21.6993 14.9337 21.6993 15.2175C21.699 15.598 21.5477 15.9628 21.2787 16.2318C21.0097 16.5009 20.6449 16.6522 20.2644 16.6525V16.6525Z" fill="#DC1E28"/>
<path d="M16.6787 25.9795H6.63417V15.935C6.63448 15.8405 6.61616 15.747 6.58024 15.6597C6.54433 15.5723 6.49153 15.493 6.42488 15.4261C6.35822 15.3592 6.27902 15.3061 6.19182 15.2699C6.10461 15.2337 6.01112 15.2151 5.91669 15.2151C5.82227 15.2151 5.72878 15.2337 5.64157 15.2699C5.55437 15.3061 5.47517 15.3592 5.40851 15.4261C5.34186 15.493 5.28906 15.5723 5.25315 15.6597C5.21723 15.747 5.19891 15.8405 5.19922 15.935V26.697C5.19923 26.8873 5.27483 27.0698 5.40938 27.2043C5.54393 27.3389 5.72642 27.4145 5.9167 27.4145H16.6787C16.7732 27.4148 16.8667 27.3965 16.954 27.3606C17.0414 27.3247 17.1208 27.2719 17.1876 27.2052C17.2545 27.1385 17.3076 27.0593 17.3438 26.9721C17.38 26.8849 17.3986 26.7914 17.3986 26.697C17.3986 26.6026 17.38 26.5091 17.3438 26.4219C17.3076 26.3347 17.2545 26.2555 17.1876 26.1888C17.1208 26.1222 17.0414 26.0694 16.954 26.0335C16.8667 25.9976 16.7732 25.9792 16.6787 25.9795Z" fill="#DC1E28"/>
<path d="M5.91669 6.60779C6.31293 6.60779 6.63415 6.28657 6.63415 5.89032C6.63415 5.49407 6.31293 5.17285 5.91669 5.17285C5.52044 5.17285 5.19922 5.49407 5.19922 5.89032C5.19922 6.28657 5.52044 6.60779 5.91669 6.60779Z" fill="#DC1E28"/>
</svg>
