<svg width="41" height="41" viewBox="0 0 41 41" fill="none" xmlns="http://www.w3.org/2000/svg">
<circle cx="20.5" cy="20.5" r="19.5" fill="#DC1E28"/>
<path d="M20.5691 40.1798C17.9029 40.1798 15.3189 39.6596 12.8841 38.6321C10.5316 37.6404 8.42075 36.2208 6.60815 34.4142C4.79555 32.6076 3.37117 30.5013 2.37617 28.1591C1.34517 25.7325 0.823242 23.1546 0.823242 20.4998C0.823242 17.8451 1.34517 15.2672 2.37617 12.8405C3.37117 10.4958 4.79555 8.39201 6.60815 6.58545C8.42075 4.77889 10.5316 3.3567 12.8841 2.36757C15.3189 1.34001 17.9029 0.819824 20.5691 0.819824C23.2353 0.819824 25.8192 1.34001 28.254 2.36757C30.6065 3.35926 32.7174 4.77889 34.53 6.58545C36.3426 8.39201 37.7669 10.4984 38.762 12.8405C39.793 15.2672 40.3149 17.8451 40.3149 20.4998C40.3149 23.1546 39.793 25.7325 38.762 28.1591C37.7669 30.5038 36.3426 32.6076 34.53 34.4142C32.7174 36.2208 30.6039 37.6404 28.254 38.6321C25.8192 39.6596 23.2353 40.1798 20.5691 40.1798ZM20.5691 2.04982C10.3619 2.04982 2.05736 10.3267 2.05736 20.4998C2.05736 30.6729 10.3619 38.9498 20.5691 38.9498C30.7762 38.9498 39.0808 30.6729 39.0808 20.4998C39.0808 10.3267 30.7762 2.04982 20.5691 2.04982Z" fill="#DC1E28"/>
<path d="M20.5682 31.8517C20.2263 31.8517 19.9512 31.5775 19.9512 31.2367V9.04542C19.9512 8.70461 20.2263 8.43042 20.5682 8.43042C20.9102 8.43042 21.1853 8.70461 21.1853 9.04542V31.2367C21.1853 31.5749 20.9102 31.8517 20.5682 31.8517Z" fill="white"/>
<path d="M20.5687 32.5691C20.4042 32.5691 20.2473 32.505 20.1316 32.3897L11.5211 23.8079C11.2794 23.567 11.2794 23.1775 11.5211 22.9392C11.7628 22.6983 12.1536 22.6983 12.3927 22.9392L20.5661 31.0854L28.7396 22.9392C28.9812 22.6983 29.372 22.6983 29.6112 22.9392C29.8528 23.1801 29.8528 23.5696 29.6112 23.8079L21.0058 32.3897C20.8901 32.505 20.7332 32.5691 20.5687 32.5691Z" fill="white"/>
</svg>
