<svg width="41" height="41" viewBox="0 0 41 41" fill="none" xmlns="http://www.w3.org/2000/svg">
<path d="M20.5003 40.1799C17.843 40.1799 15.2677 39.6598 12.841 38.6322C10.4963 37.6405 8.3925 36.2209 6.58594 34.4143C4.77938 32.6078 3.35975 30.5014 2.36806 28.1593C1.3405 25.7326 0.820312 23.1547 0.820312 20.4999C0.820312 17.8452 1.3405 15.2673 2.36806 12.8406C3.35975 10.4959 4.77938 8.39213 6.58594 6.58557C8.3925 4.77901 10.4963 3.35682 12.841 2.3677C15.2677 1.34013 17.843 0.819946 20.5003 0.819946C23.1576 0.819946 25.7329 1.34013 28.1596 2.3677C30.5043 3.35938 32.6081 4.77901 34.4147 6.58557C36.2212 8.39213 37.6409 10.4985 38.6326 12.8406C39.6601 15.2673 40.1803 17.8452 40.1803 20.4999C40.1803 23.1547 39.6601 25.7326 38.6326 28.1593C37.6409 30.5039 36.2212 32.6078 34.4147 34.4143C32.6081 36.2209 30.5018 37.6405 28.1596 38.6322C25.7329 39.6598 23.1576 40.1799 20.5003 40.1799ZM20.5003 2.04995C10.3272 2.04995 2.05031 10.3268 2.05031 20.4999C2.05031 30.6731 10.3272 38.9499 20.5003 38.9499C30.6734 38.9499 38.9503 30.6731 38.9503 20.4999C38.9503 10.3268 30.6734 2.04995 20.5003 2.04995Z" fill="#DC1E28"/>
<path d="M20.4998 31.8518C20.159 31.8518 19.8848 31.5776 19.8848 31.2368V9.04554C19.8848 8.70473 20.159 8.43054 20.4998 8.43054C20.8406 8.43054 21.1148 8.70473 21.1148 9.04554V31.2368C21.1148 31.575 20.8406 31.8518 20.4998 31.8518Z" fill="#DC1E28"/>
<path d="M20.4989 32.5693C20.3349 32.5693 20.1786 32.5053 20.0633 32.3899L11.4814 23.8081C11.2406 23.5673 11.2406 23.1778 11.4814 22.9394C11.7223 22.6986 12.1118 22.6986 12.3501 22.9394L20.4963 31.0856L28.6425 22.9394C28.8834 22.6986 29.2729 22.6986 29.5112 22.9394C29.7521 23.1803 29.7521 23.5698 29.5112 23.8081L20.9345 32.3899C20.8192 32.5053 20.6629 32.5693 20.4989 32.5693Z" fill="#DC1E28"/>
</svg>
