<svg width="157" height="86" viewBox="0 0 157 86" fill="none" xmlns="http://www.w3.org/2000/svg">
<g clip-path="url(#clip0_401_43)">
<path d="M22.9629 54.0246H46.8828L55.2475 45.3747L43.286 33.0088L22.9629 54.0246Z" fill="white"/>
<path d="M51.2394 24.7852L47.2617 28.8979L71.8444 54.3176H79.7958L51.2394 24.7852Z" fill="#E31E24"/>
<path d="M47.2616 28.8984L43.2861 33.0091L55.2476 45.3751L63.8952 54.3182H71.8443L47.2616 28.8984Z" fill="#FECC00"/>
<path d="M103.53 54.0248H127.454L75.2083 0L51.2393 24.7856L79.7956 54.318H87.7495L67.1997 33.0687L67.1767 33.0429L75.2083 24.7359L103.53 54.0248Z" fill="white"/>
<path d="M4.79125 75.2184H12.9581V79.0897H4.79125V85.5443H0.5V67.5273H13.9719V71.4265H4.79125V75.2184Z" fill="white"/>
<path d="M27.3108 85.5443L26.0913 82.2656H18.7569L17.5334 85.5443H12.9307L20.2119 67.5273H24.6072L31.889 85.5443H27.3108ZM22.4244 72.529L20.2119 78.4457H24.6581L22.4244 72.529Z" fill="white"/>
<path d="M50.1697 78.7943C49.7693 81.0191 48.7735 82.7677 47.1777 84.0373C45.5829 85.3112 43.6493 85.9473 41.3793 85.9473C38.7956 85.9473 36.6064 85.0414 34.8123 83.2314C33.0177 81.4216 32.1201 79.1888 32.1201 76.5375C32.1201 73.9 33.0177 71.6731 34.8123 69.8534C36.6064 68.0332 38.7956 67.124 41.3793 67.124C43.5622 67.124 45.4677 67.7501 47.0868 69.0057C48.7084 70.2619 49.7273 71.9365 50.1439 74.0335L45.9294 75.1359C45.6695 73.8283 45.1377 72.8416 44.329 72.1794C43.5249 71.5161 42.5405 71.1848 41.3793 71.1848C39.9925 71.1848 38.8166 71.6951 37.856 72.718C36.8923 73.7407 36.4121 75.0123 36.4121 76.5375C36.4121 78.0603 36.8923 79.3362 37.856 80.367C38.8166 81.3978 39.9925 81.9119 41.3793 81.9119C42.5235 81.9119 43.4983 81.573 44.3042 80.8915C45.1116 80.2095 45.6614 79.199 45.9565 77.8534L50.1697 78.7943Z" fill="white"/>
<path d="M68.4757 85.5443H64.2111V78.4178H56.8779V85.5443H52.5869V67.5273H56.8779V74.5465H64.2111V67.5273H68.4757V85.5443Z" fill="white"/>
<path d="M91.6204 85.5443H87.4596V76.5622L82.9072 85.5443H80.254L75.6766 76.51V85.5443H71.5176V67.5273H75.7298L81.5809 78.6868L87.433 67.5273H91.6204V85.5443Z" fill="white"/>
<path d="M107.506 85.5443L106.283 82.2656H98.9508L97.7278 85.5443H93.124L100.406 67.5273H104.802L112.085 85.5443H107.506ZM102.616 72.529L100.406 78.4457H104.855L102.616 72.529Z" fill="white"/>
<path d="M130.234 85.5443H126.698L117.88 75.1125V85.5443H113.589V67.5273H117.152L125.967 78.2823V67.5273H130.234V85.5443Z" fill="white"/>
<path d="M149.919 85.5443H146.38L137.564 75.1125V85.5443H133.272V67.5273H136.837L145.65 78.2823V67.5273H149.919V85.5443Z" fill="white"/>
<path d="M156.146 68.3294C156.146 67.0644 155.139 66.0566 153.873 66.0566C152.619 66.0566 151.601 67.0644 151.601 68.3294C151.601 69.5838 152.619 70.6024 153.873 70.6024C155.139 70.6024 156.146 69.5838 156.146 68.3294ZM155.771 68.3294C155.771 69.3693 154.924 70.2271 153.873 70.2271C152.823 70.2271 151.976 69.3693 151.976 68.3294C151.976 67.268 152.823 66.4317 153.873 66.4317C154.924 66.4317 155.771 67.268 155.771 68.3294ZM154.967 69.6375L154.27 68.5974C154.42 68.5974 154.935 68.4044 154.935 67.8257C154.935 67.3432 154.495 67.0322 154.056 67.0322H152.994V69.6375H153.391V68.6082H153.809L154.484 69.6375H154.967ZM154.528 67.8257C154.528 68.0936 154.281 68.2651 154.056 68.2651H153.391V67.3645H154.056C154.281 67.3645 154.528 67.5362 154.528 67.8257Z" fill="white"/>
</g>
<defs>
<clipPath id="clip0_401_43">
<rect width="156" height="86" fill="white" transform="translate(0.5)"/>
</clipPath>
</defs>
</svg>
