<svg width="19" height="19" viewBox="0 0 19 19" fill="none" xmlns="http://www.w3.org/2000/svg">
<path d="M9.50023 11.3862C8.83196 11.3862 8.28809 11.9301 8.28809 12.5984C8.28809 13.2669 8.83196 13.8108 9.50023 13.8108C10.1685 13.8108 10.7124 13.2669 10.7124 12.5984C10.7127 11.9301 10.1688 11.3862 9.50023 11.3862Z" fill="#FAC800"/>
<path d="M4.10667 11.3862C3.43841 11.3862 2.89453 11.9298 2.89453 12.5981C2.89453 13.2666 3.43841 13.8105 4.10667 13.8105C4.77494 13.8105 5.31881 13.2666 5.31881 12.5981C5.31881 11.9298 4.77494 11.3862 4.10667 11.3862Z" fill="#FAC800"/>
<path d="M10.7505 6.40159C10.7505 5.73303 10.2066 5.18945 9.53831 5.18945C8.87005 5.18945 8.32617 5.73303 8.32617 6.40159C8.32617 7.06986 8.87005 7.61373 9.53831 7.61373C10.2066 7.61373 10.7505 7.06956 10.7505 6.40159Z" fill="#FAC800"/>
<path d="M16.8569 0H2.14284C0.961281 0 0 0.961578 0 2.14344V16.8572C0 18.0387 0.961281 19 2.14284 19H16.8569C18.0387 19 19 18.0387 19 16.8569V2.14284C19 0.961281 18.0387 0 16.8569 0ZM14.893 14.7013C13.8869 14.7013 13.0438 13.9899 12.8387 13.0438H11.5544C11.3498 13.9902 10.5067 14.7015 9.5003 14.7015C8.49359 14.7015 7.65077 13.9902 7.44592 13.0435H6.16164C5.9568 13.9899 5.11397 14.7013 4.10727 14.7013C2.94767 14.7013 2.0045 13.7578 2.0045 12.5982C2.0045 11.4389 2.94797 10.4957 4.10727 10.4957C5.11397 10.4957 5.9565 11.207 6.16134 12.1529H7.44592C7.62256 11.338 8.27242 10.6979 9.09298 10.5361V8.45589C8.14684 8.25105 7.43553 7.40822 7.43553 6.40152C7.43553 5.24192 8.379 4.29875 9.5383 4.29875C10.6976 4.29875 11.6411 5.24192 11.6411 6.40152C11.6411 7.40822 10.9298 8.25075 9.98391 8.45589V10.5539C10.768 10.7395 11.3837 11.3638 11.5547 12.1532H12.839C13.0441 11.2067 13.8866 10.4957 14.8933 10.4957C16.0529 10.4957 16.9964 11.4389 16.9964 12.5982C16.9961 13.7578 16.0526 14.7013 14.893 14.7013Z" fill="#FAC800"/>
<path d="M14.8935 11.3862C14.2255 11.3862 13.6816 11.9298 13.6816 12.5981C13.6816 13.2666 14.2255 13.8105 14.8935 13.8105C15.562 13.8105 16.1059 13.2666 16.1059 12.5981C16.1059 11.9298 15.562 11.3862 14.8935 11.3862Z" fill="#FAC800"/>
</svg>
