<svg width="26" height="26" viewBox="0 0 26 26" fill="none" xmlns="http://www.w3.org/2000/svg">
<path d="M18.4167 15.1666C18.7805 15.1666 19.1435 15.2033 19.5 15.2761V1.62492C19.5 1.55377 19.4861 1.48332 19.4589 1.41758C19.4317 1.35184 19.3918 1.29211 19.3414 1.24181C19.2911 1.1915 19.2314 1.1516 19.1657 1.1244C19.0999 1.09719 19.0295 1.08321 18.9583 1.08325H3.79167C3.72052 1.08321 3.65007 1.09719 3.58433 1.1244C3.51859 1.1516 3.45886 1.1915 3.40856 1.24181C3.35825 1.29211 3.31835 1.35184 3.29114 1.41758C3.26394 1.48332 3.24996 1.55377 3.25 1.62492V20.0416C3.24996 20.1127 3.26394 20.1832 3.29114 20.2489C3.31835 20.3147 3.35825 20.3744 3.40856 20.4247C3.45886 20.475 3.51859 20.5149 3.58433 20.5421C3.65007 20.5693 3.72052 20.5833 3.79167 20.5833H13C13.0017 19.1472 13.5729 17.7704 14.5884 16.755C15.6038 15.7395 16.9806 15.1683 18.4167 15.1666ZM7.04167 4.33325H15.7083C15.852 4.33325 15.9898 4.39032 16.0914 4.4919C16.1929 4.59348 16.25 4.73126 16.25 4.87492C16.25 5.01858 16.1929 5.15635 16.0914 5.25794C15.9898 5.35952 15.852 5.41659 15.7083 5.41659H7.04167C6.89801 5.41659 6.76023 5.35952 6.65865 5.25794C6.55707 5.15635 6.5 5.01858 6.5 4.87492C6.5 4.73126 6.55707 4.59348 6.65865 4.4919C6.76023 4.39032 6.89801 4.33325 7.04167 4.33325ZM7.04167 7.58325H15.7083C15.852 7.58325 15.9898 7.64032 16.0914 7.7419C16.1929 7.84348 16.25 7.98126 16.25 8.12492C16.25 8.26858 16.1929 8.40635 16.0914 8.50794C15.9898 8.60952 15.852 8.66659 15.7083 8.66659H7.04167C6.89801 8.66659 6.76023 8.60952 6.65865 8.50794C6.55707 8.40635 6.5 8.26858 6.5 8.12492C6.5 7.98126 6.55707 7.84348 6.65865 7.7419C6.76023 7.64032 6.89801 7.58325 7.04167 7.58325ZM7.04167 10.8333H15.7083C15.852 10.8333 15.9898 10.8903 16.0914 10.9919C16.1929 11.0935 16.25 11.2313 16.25 11.3749C16.25 11.5186 16.1929 11.6564 16.0914 11.7579C15.9898 11.8595 15.852 11.9166 15.7083 11.9166H7.04167C6.89801 11.9166 6.76023 11.8595 6.65865 11.7579C6.55707 11.6564 6.5 11.5186 6.5 11.3749C6.5 11.2313 6.55707 11.0935 6.65865 10.9919C6.76023 10.8903 6.89801 10.8333 7.04167 10.8333ZM12.4583 15.1666H7.04167C6.89801 15.1666 6.76023 15.1095 6.65865 15.0079C6.55707 14.9064 6.5 14.7686 6.5 14.6249C6.5 14.4813 6.55707 14.3435 6.65865 14.2419C6.76023 14.1403 6.89801 14.0833 7.04167 14.0833H12.4583C12.602 14.0833 12.7398 14.1403 12.8414 14.2419C12.9429 14.3435 13 14.4813 13 14.6249C13 14.7686 12.9429 14.9064 12.8414 15.0079C12.7398 15.1095 12.602 15.1666 12.4583 15.1666Z" fill="#FAC800"/>
<path d="M18.4163 16.25C17.5593 16.25 16.7215 16.5041 16.0089 16.9803C15.2963 17.4565 14.7408 18.1332 14.4129 18.925C14.0849 19.7169 13.9991 20.5881 14.1663 21.4287C14.3335 22.2693 14.7462 23.0414 15.3522 23.6475C15.9582 24.2535 16.7304 24.6662 17.571 24.8334C18.4115 25.0006 19.2828 24.9148 20.0746 24.5868C20.8665 24.2588 21.5432 23.7034 22.0194 22.9908C22.4955 22.2782 22.7497 21.4404 22.7497 20.5833C22.7485 19.4344 22.2915 18.333 21.4791 17.5206C20.6667 16.7082 19.5652 16.2512 18.4163 16.25ZM18.4163 22.7509C18.3092 22.7509 18.2045 22.7192 18.1154 22.6596C18.0263 22.6001 17.9569 22.5155 17.9159 22.4165C17.8749 22.3176 17.8642 22.2087 17.8851 22.1036C17.906 21.9985 17.9576 21.902 18.0333 21.8262C18.1091 21.7505 18.2056 21.6989 18.3107 21.678C18.4157 21.6571 18.5247 21.6678 18.6236 21.7088C18.7226 21.7498 18.8072 21.8192 18.8667 21.9083C18.9262 21.9974 18.958 22.1021 18.958 22.2093C18.958 22.3529 18.9009 22.4907 18.7994 22.5923C18.6978 22.6939 18.56 22.7509 18.4163 22.7509ZM18.958 20.5833C18.958 20.727 18.9009 20.8648 18.7994 20.9664C18.6978 21.0679 18.56 21.125 18.4163 21.125C18.2727 21.125 18.1349 21.0679 18.0333 20.9664C17.9317 20.8648 17.8747 20.727 17.8747 20.5833V18.9583C17.8747 18.8147 17.9317 18.6769 18.0333 18.5753C18.1349 18.4737 18.2727 18.4167 18.4163 18.4167C18.56 18.4167 18.6978 18.4737 18.7994 18.5753C18.9009 18.6769 18.958 18.8147 18.958 18.9583V20.5833Z" fill="#FAC800"/>
</svg>
