<svg width="26" height="23" viewBox="0 0 26 23" fill="none" xmlns="http://www.w3.org/2000/svg">
<path d="M5.44212 18.1835C4.99146 19.5664 5.12146 21.1005 5.79746 22.3856C5.87546 22.5279 6.02279 22.6168 6.17879 22.6168H6.21346C6.38679 22.6035 6.53412 22.4879 6.59046 22.3233L10.1785 11.927C9.84912 11.9226 9.52412 11.7847 9.29012 11.5446L8.01612 10.2373L5.44212 18.1835Z" fill="#FAC800"/>
<path d="M11.0021 0.383301C10.1788 0.383301 9.5071 1.07253 9.5071 1.9174V4.29637H8.8181C8.57543 4.29637 8.38477 4.49202 8.38477 4.74103V9.16991C8.38477 9.28997 8.4281 9.40114 8.51043 9.48563L9.90143 10.913C9.97943 10.993 10.0921 11.042 10.2048 11.042H11.7951C11.9078 11.042 12.0204 10.993 12.1028 10.913L13.4894 9.48563C13.5718 9.40114 13.6194 9.28997 13.6194 9.16991V4.74103C13.6194 4.49202 13.4244 4.29637 13.1861 4.29637H12.4928V1.9174C12.4928 1.07253 11.8211 0.383301 11.0021 0.383301Z" fill="#FAC800"/>
<path d="M18.1221 3.30493C17.1514 3.30493 16.3584 4.11423 16.3584 5.11028V13.1054H19.8814V5.11028C19.8814 4.11423 19.0927 3.30493 18.1221 3.30493Z" fill="#FAC800"/>
<path d="M17.7364 22.381C17.8144 22.5278 17.9617 22.6167 18.1221 22.6167C18.2781 22.6167 18.4254 22.5278 18.5034 22.381L19.8294 19.8331C19.8641 19.7708 19.8814 19.6997 19.8814 19.6241V18.4102H16.3584V19.6241C16.3584 19.6997 16.3757 19.7708 16.4104 19.8331L17.7364 22.381Z" fill="#FAC800"/>
<path d="M14.0358 10.1838L12.7185 11.5401C12.4758 11.7757 12.1768 11.9047 11.8691 11.9225L13.9795 17.2407C14.0488 17.4097 14.2048 17.5208 14.3825 17.5208H20.3928C20.6355 17.5208 20.8261 17.3207 20.8261 17.0762V14.4393C20.8261 14.1947 20.6355 13.9946 20.3928 13.9946H15.4918L14.0358 10.1838Z" fill="#FAC800"/>
</svg>
