<svg width="22" height="23" viewBox="0 0 22 23" fill="none" xmlns="http://www.w3.org/2000/svg">
<path d="M1.375 7.94214V12.2546C1.37663 12.826 1.59445 13.3734 1.9809 13.7775C2.36734 14.1815 2.89099 14.4092 3.4375 14.4109H6.875V5.78589H3.4375C2.89049 5.78589 2.36589 6.01306 1.97909 6.41744C1.5923 6.82181 1.375 7.37027 1.375 7.94214Z" fill="#FAC800"/>
<path d="M14.2175 3.96748C13.9393 3.7697 13.6187 3.64657 13.2842 3.60896C12.9497 3.57135 12.6115 3.62043 12.2994 3.75186L8.25 5.44092V14.7559L12.2994 16.445C12.5425 16.5447 12.8013 16.5959 13.0625 16.5959C13.3336 16.5969 13.6022 16.5417 13.8529 16.4337C14.1035 16.3257 14.3312 16.1669 14.5229 15.9665C14.7146 15.7661 14.8665 15.528 14.9699 15.266C15.0732 15.0039 15.1259 14.7231 15.125 14.4397V5.74998C15.125 5.39788 15.0422 5.05118 14.884 4.74036C14.7257 4.42955 14.4969 4.16414 14.2175 3.96748Z" fill="#FAC800"/>
<path d="M2.75 15.7766V18.0047C2.75 18.5766 2.9673 19.1251 3.35409 19.5294C3.74089 19.9338 4.26549 20.161 4.8125 20.161C5.35951 20.161 5.88411 19.9338 6.27091 19.5294C6.6577 19.1251 6.875 18.5766 6.875 18.0047V15.8485H3.4375C3.20654 15.8502 2.97606 15.8261 2.75 15.7766Z" fill="#FAC800"/>
<path d="M19.9375 9.37817H17.875C17.6927 9.37817 17.5178 9.4539 17.3889 9.58869C17.2599 9.72348 17.1875 9.9063 17.1875 10.0969C17.1875 10.2875 17.2599 10.4704 17.3889 10.6052C17.5178 10.7399 17.6927 10.8157 17.875 10.8157H19.9375C20.1198 10.8157 20.2947 10.7399 20.4236 10.6052C20.5526 10.4704 20.625 10.2875 20.625 10.0969C20.625 9.9063 20.5526 9.72348 20.4236 9.58869C20.2947 9.4539 20.1198 9.37817 19.9375 9.37817Z" fill="#FAC800"/>
<path d="M17.8754 5.7846C17.9819 5.78461 18.0869 5.75852 18.182 5.70841L19.557 4.98966C19.6385 4.94792 19.7112 4.88973 19.7711 4.81845C19.831 4.74717 19.8767 4.6642 19.9058 4.57433C19.9348 4.48447 19.9466 4.38948 19.9403 4.29484C19.9341 4.20021 19.91 4.1078 19.8694 4.02295C19.8289 3.93809 19.7727 3.86247 19.704 3.80044C19.6354 3.73842 19.5557 3.69121 19.4695 3.66154C19.3833 3.63188 19.2923 3.62034 19.2019 3.62759C19.1114 3.63485 19.0232 3.66076 18.9424 3.70382L17.5674 4.42257C17.4286 4.49488 17.3173 4.61412 17.2515 4.76092C17.1857 4.90772 17.1693 5.07345 17.205 5.23122C17.2406 5.38898 17.3263 5.5295 17.448 5.62996C17.5697 5.73042 17.7203 5.78492 17.8754 5.7846Z" fill="#FAC800"/>
<path d="M19.5572 15.2038L18.1822 14.4851C18.1014 14.442 18.0132 14.4161 17.9227 14.4088C17.8322 14.4016 17.7413 14.4131 17.6551 14.4428C17.5689 14.4725 17.4892 14.5197 17.4206 14.5817C17.3519 14.6437 17.2957 14.7193 17.2551 14.8042C17.2146 14.8891 17.1905 14.9815 17.1842 15.0761C17.178 15.1707 17.1898 15.2657 17.2188 15.3556C17.2478 15.4455 17.2936 15.5284 17.3535 15.5997C17.4134 15.671 17.4861 15.7292 17.5676 15.7709L18.9426 16.4897C19.0377 16.5398 19.1427 16.5659 19.2492 16.5659C19.4043 16.5662 19.5549 16.5117 19.6766 16.4112C19.7983 16.3107 19.8839 16.1702 19.9196 16.0125C19.9553 15.8547 19.9389 15.689 19.8731 15.5422C19.8073 15.3954 19.696 15.2761 19.5572 15.2038Z" fill="#FAC800"/>
</svg>
