<svg width="20" height="20" viewBox="0 0 20 20" fill="none" xmlns="http://www.w3.org/2000/svg">
<path d="M6.67488 10.625H8.12488C8.12488 10.2935 8.25658 9.97554 8.491 9.74112C8.72542 9.5067 9.04336 9.375 9.37488 9.375H10.6249C10.9564 9.375 11.2743 9.5067 11.5088 9.74112C11.7432 9.97554 11.8749 10.2935 11.8749 10.625H13.3249C13.956 10.6253 14.5798 10.489 15.1532 10.2253C15.7267 9.96162 16.2362 9.57686 16.6468 9.0975L18.7293 6.66812C18.6793 6.21073 18.4626 5.78777 18.1205 5.48005C17.7785 5.17233 17.335 5.00143 16.8749 5H14.3749V3.75C14.3749 3.25272 14.1773 2.77581 13.8257 2.42417C13.4741 2.07254 12.9972 1.875 12.4999 1.875H7.49988C7.0026 1.875 6.52569 2.07254 6.17406 2.42417C5.82243 2.77581 5.62488 3.25272 5.62488 3.75V5H3.12488C2.66477 5.00143 2.22131 5.17233 1.87924 5.48005C1.53716 5.78777 1.32045 6.21073 1.27051 6.66812L3.35301 9.0975C3.76358 9.57686 4.27311 9.96162 4.84654 10.2253C5.41998 10.489 6.04373 10.6253 6.67488 10.625ZM6.87488 3.75C6.87488 3.58424 6.94073 3.42527 7.05794 3.30806C7.17515 3.19085 7.33412 3.125 7.49988 3.125H12.4999C12.6656 3.125 12.8246 3.19085 12.9418 3.30806C13.059 3.42527 13.1249 3.58424 13.1249 3.75V5H6.87488V3.75Z" fill="#FAC800"/>
<path d="M17.5962 9.91063C17.0683 10.527 16.4132 11.0217 15.6759 11.3608C14.9386 11.6999 14.1366 11.8753 13.325 11.875H11.875C11.875 12.2065 11.7433 12.5245 11.5089 12.7589C11.2745 12.9933 10.9565 13.125 10.625 13.125H9.375C9.04348 13.125 8.72554 12.9933 8.49112 12.7589C8.2567 12.5245 8.125 12.2065 8.125 11.875H6.675C5.86345 11.8753 5.06144 11.6999 4.32413 11.3608C3.58681 11.0217 2.93167 10.527 2.40375 9.91063L1.25 8.5625V16.25C1.25 16.7473 1.44754 17.2242 1.79917 17.5758C2.15081 17.9275 2.62772 18.125 3.125 18.125H16.875C17.3723 18.125 17.8492 17.9275 18.2008 17.5758C18.5525 17.2242 18.75 16.7473 18.75 16.25V8.5625L17.5962 9.91063Z" fill="#FAC800"/>
<path d="M10.625 10.6243H9.375V11.8749H10.625V10.6243Z" fill="#FAC800"/>
</svg>
