<svg width="20" height="20" viewBox="0 0 20 20" fill="none" xmlns="http://www.w3.org/2000/svg">
<path d="M9.99981 18.7001C14.8198 18.7001 18.6998 14.8 18.6998 10C18.6998 5.18005 14.8198 1.30005 9.99981 1.30005C5.17981 1.30005 1.2998 5.18005 1.2998 10C1.2998 14.8201 5.17981 18.7001 9.99981 18.7001ZM11.0798 4.00005C11.9998 4.00005 12.7398 4.74005 12.7398 5.66005C12.7398 6.58005 11.9998 7.32005 11.0798 7.32005C10.1598 7.32005 9.41981 6.58005 9.41981 5.66005C9.43981 4.74005 10.1798 4.00005 11.0798 4.00005ZM8.59981 9.56005C8.35981 9.32005 8.03981 9.36005 7.69981 9.58005C7.53981 9.68005 7.29981 9.66005 7.17981 9.50005C7.05981 9.34005 7.0998 9.10005 7.25981 8.98005C7.6198 8.70005 8.5198 8.14005 9.81981 8.26005C10.7798 8.36005 11.5798 9.04005 11.5798 10.02C11.5798 10.32 11.5198 10.6 11.3998 10.9L9.93981 13.8C9.77981 14.08 9.69981 14.4401 9.93981 14.68C10.1798 14.9201 10.4998 14.8801 10.8398 14.6601C10.9998 14.5601 11.2398 14.58 11.3598 14.74C11.4798 14.9 11.4398 15.1401 11.2798 15.2601C10.9198 15.5401 10.0198 16.1001 8.71981 15.9801C7.7598 15.8801 6.95981 15.2 6.95981 14.22C6.95981 13.92 7.01981 13.64 7.13981 13.34L8.59981 10.4401C8.73981 10.16 8.83981 9.80005 8.59981 9.56005Z" fill="#FAC800"/>
</svg>
