<svg width="65" height="40" viewBox="0 0 65 40" fill="none" xmlns="http://www.w3.org/2000/svg">
<g clip-path="url(#clip0_271_1988)">
<path d="M33.3875 2.25098H0.848633V32.1105H0.8565C0.8565 32.1269 0.848633 32.1434 0.848633 32.1434C0.848633 36.0467 8.1337 39.2089 17.1181 39.2089C26.1025 39.2089 33.3875 36.0467 33.3875 32.1434C33.3875 32.1269 33.3797 32.1105 33.3797 32.1105H33.3875V2.25098Z" stroke="white" stroke-miterlimit="10"/>
<path d="M40.2951 24.1533H33.3955V33.8578H40.2951C41.1998 33.8578 41.9393 31.6889 41.9393 29.0056C41.9393 26.3222 41.1998 24.1533 40.2951 24.1533Z" stroke="white" stroke-miterlimit="10"/>
<path d="M45.204 19.1504C42.6314 19.6649 40.4837 21.5646 39.3193 24.153H40.2949C41.1996 24.153 41.9391 26.3219 41.9391 29.0053C41.9391 31.6886 41.1996 33.8575 40.2949 33.8575H39.8464C41.0737 35.9235 42.9776 37.4116 45.204 37.8549C46.0616 35.6385 46.6123 32.2744 46.6123 28.5066C46.6123 24.7388 46.0616 21.3667 45.204 19.1504Z" stroke="white" stroke-miterlimit="10"/>
<path d="M46.6123 19C46.1324 19 45.6604 19.0554 45.2041 19.1504C46.0616 21.3668 46.6123 24.7309 46.6123 28.4987C46.6123 32.2665 46.0616 35.6306 45.2041 37.847C45.6604 37.942 46.1324 37.9974 46.6123 37.9974C51.1596 37.9974 54.8415 33.7467 54.8415 28.4987C54.8336 23.2507 51.1517 19 46.6123 19Z" stroke="white" stroke-miterlimit="10"/>
<path d="M61.7326 21.8965H52.52C53.9519 23.6062 54.8409 25.9334 54.8409 28.4981C54.8409 31.3477 53.7473 33.8965 52.0244 35.6379H61.7326C63.0228 35.6379 64.0613 32.5588 64.0613 28.7672C64.0613 24.9756 63.0149 21.8965 61.7326 21.8965Z" stroke="white" stroke-miterlimit="10"/>
<path d="M39.6401 8.32556L39.4305 8.7795L39.4305 8.7795L39.6401 8.32556ZM43.2499 16.9221C43.394 17.1576 43.7018 17.2317 43.9374 17.0876L47.7758 14.7388C48.0113 14.5947 48.0854 14.2869 47.9413 14.0514C47.7972 13.8158 47.4894 13.7417 47.2538 13.8859L43.8419 15.9736L41.7542 12.5617C41.61 12.3262 41.3022 12.2521 41.0667 12.3962C40.8312 12.5403 40.757 12.8481 40.9012 13.0836L43.2499 16.9221ZM34.8673 8.37226C36.3897 7.97606 38.0023 8.11998 39.4305 8.7795L39.8497 7.87162C38.2115 7.11512 36.3617 6.95003 34.6155 7.40449L34.8673 8.37226ZM39.4305 8.7795C40.8586 9.43901 42.0139 10.5733 42.6995 11.9891L43.5995 11.5533C42.8131 9.92926 41.4879 8.62813 39.8497 7.87162L39.4305 8.7795ZM42.6995 11.9891C43.3851 13.4049 43.5585 15.0147 43.1903 16.5441L44.1625 16.7781C44.5849 15.0238 44.3859 13.1774 43.5995 11.5533L42.6995 11.9891Z" fill="black"/>
<path d="M46.6344 11.7493V5.07927H45.9044L44.2344 6.79927L44.7344 7.30927L45.8044 6.17927V11.7493H46.6344ZM52.8331 11.7493V11.0093H49.5631C51.4231 9.53927 52.8031 8.29927 52.8031 6.93927C52.8031 5.60927 51.6731 4.97927 50.5631 4.97927C49.6231 4.97927 48.7531 5.35927 48.2431 6.02927L48.7531 6.55927C49.1431 6.05927 49.7631 5.71927 50.5631 5.71927C51.2531 5.71927 51.9531 6.08927 51.9531 6.93927C51.9531 8.08927 50.6531 9.19927 48.2531 11.0893V11.7493H52.8331Z" fill="white"/>
<circle cx="54.8417" cy="4.8817" r="0.717641" stroke="white"/>
</g>
<defs>
<clipPath id="clip0_271_1988">
<rect width="64" height="40" fill="white" transform="translate(0.5)"/>
</clipPath>
</defs>
</svg>
