<svg width="49" height="20" viewBox="0 0 49 20" fill="none" xmlns="http://www.w3.org/2000/svg">
<g clip-path="url(#clip0_271_1976)">
<path d="M46.7944 15.0783L3.82617 15.2525L8.48548 1.33496L42.9789 1.36663L46.7944 15.0783Z" stroke="white" stroke-width="0.8" stroke-miterlimit="10"/>
<rect x="3.82617" y="15.1895" width="42.9683" height="3.16667" stroke="white" stroke-width="0.8"/>
<path d="M30.5985 12.1489L39.015 9.28311C39.5281 8.79228 39.793 8.26978 39.7599 7.73145L25.5254 12.4973C27.313 12.4735 29.0178 12.3548 30.5985 12.1489Z" stroke="white" stroke-width="0.8" stroke-miterlimit="10"/>
<path d="M21.3877 12.3312L39.1559 6.4966C38.8746 6.19577 38.4939 5.91077 38.0304 5.6416L18.458 11.9591C19.3766 12.1174 20.3532 12.2441 21.3877 12.3312Z" stroke="white" stroke-width="0.8" stroke-miterlimit="10"/>
<path d="M34.4142 4.28784L13.8486 10.6924C14.4114 10.9378 15.0486 11.1595 15.7521 11.3574L36.301 4.84993C35.73 4.64409 35.0928 4.45409 34.4142 4.28784Z" stroke="white" stroke-width="0.8" stroke-miterlimit="10"/>
<path d="M12.2435 9.78995L31.8738 3.78911C31.0297 3.66245 30.1441 3.55953 29.2172 3.48828L11.3662 8.85578C11.5566 9.18036 11.8462 9.49703 12.2435 9.78995Z" stroke="white" stroke-width="0.8" stroke-miterlimit="10"/>
<path d="M11.1924 7.58918L25.5345 3.35376C23.9372 3.36168 22.4062 3.45668 20.9662 3.61501L12.4669 6.08501C11.7965 6.55209 11.3496 7.05084 11.1924 7.58918Z" stroke="white" stroke-width="0.8" stroke-miterlimit="10"/>
</g>
<defs>
<clipPath id="clip0_271_1976">
<rect width="48" height="19" fill="white" transform="translate(0.772461 0.939453)"/>
</clipPath>
</defs>
</svg>
