<svg width="18" height="17" viewBox="0 0 18 17" fill="none" xmlns="http://www.w3.org/2000/svg">
<g clip-path="url(#clip0_401_75)">
<path d="M12.7188 0H5.28125C2.625 0 0.5 2.125 0.5 4.78125V7.96875V12.2188C0.5 14.875 2.625 17 5.28125 17H12.7188C15.375 17 17.5 14.875 17.5 12.2188V7.96875V4.78125C17.5 2.125 15.375 0 12.7188 0Z" fill="white"/>
<path d="M9 12.75C11.3472 12.75 13.25 10.8472 13.25 8.5C13.25 6.15279 11.3472 4.25 9 4.25C6.65279 4.25 4.75 6.15279 4.75 8.5C4.75 10.8472 6.65279 12.75 9 12.75Z" stroke="#5D5D5D" stroke-width="2" stroke-miterlimit="10"/>
<path d="M13.7812 4.25C14.3681 4.25 14.8438 3.7743 14.8438 3.1875C14.8438 2.6007 14.3681 2.125 13.7812 2.125C13.1944 2.125 12.7188 2.6007 12.7188 3.1875C12.7188 3.7743 13.1944 4.25 13.7812 4.25Z" fill="#5D5D5D"/>
</g>
<defs>
<clipPath id="clip0_401_75">
<rect width="17" height="17" fill="white" transform="translate(0.5)"/>
</clipPath>
</defs>
</svg>
