<svg width="17" height="17" viewBox="0 0 17 17" fill="none" xmlns="http://www.w3.org/2000/svg">
<path d="M12.2188 0H4.78125C2.125 0 0 2.125 0 4.78125V7.96875V12.2188C0 14.875 2.125 17 4.78125 17H12.2188C14.875 17 17 14.875 17 12.2188V7.96875V4.78125C17 2.125 14.875 0 12.2188 0Z" fill="black"/>
<path d="M8.5 12.75C10.8472 12.75 12.75 10.8472 12.75 8.5C12.75 6.15279 10.8472 4.25 8.5 4.25C6.15279 4.25 4.25 6.15279 4.25 8.5C4.25 10.8472 6.15279 12.75 8.5 12.75Z" stroke="white" stroke-width="2" stroke-miterlimit="10"/>
<path d="M13.2812 4.25C13.8681 4.25 14.3438 3.7743 14.3438 3.1875C14.3438 2.6007 13.8681 2.125 13.2812 2.125C12.6944 2.125 12.2188 2.6007 12.2188 3.1875C12.2188 3.7743 12.6944 4.25 13.2812 4.25Z" fill="white"/>
</svg>
