<svg width="21" height="28" viewBox="0 0 21 28" fill="none" xmlns="http://www.w3.org/2000/svg">
<path d="M11.3625 4.87476C9.97674 4.87297 8.61523 5.23801 7.41626 5.9328C6.2173 6.62758 5.2236 7.62735 4.53614 8.83053C3.84867 10.0337 3.49193 11.3974 3.50217 12.7831C3.5124 14.1688 3.88924 15.5271 4.5944 16.72L10.7037 25.8975C10.776 26.006 10.8739 26.0951 10.9888 26.1566C11.1037 26.2182 11.2321 26.2504 11.3624 26.2504C11.4928 26.2504 11.6212 26.2182 11.7361 26.1566C11.851 26.0951 11.9489 26.006 12.0212 25.8975L17.6357 17.4692L18.1544 16.6813C18.8569 15.4851 19.2258 14.1224 19.2229 12.7352C19.2205 10.6512 18.3916 8.65329 16.918 7.17968C15.4444 5.70608 13.4465 4.87715 11.3625 4.87476ZM16.8092 15.8471L11.3625 24.0307L5.93967 15.8858C5.37848 14.9308 5.08348 13.8429 5.08534 12.7352C5.08436 11.9103 5.246 11.0932 5.56101 10.3308C5.87603 9.56837 6.33824 8.8755 6.92122 8.29183C7.5042 7.70816 8.19651 7.24512 8.95857 6.9292C9.72063 6.61328 10.5375 6.45067 11.3624 6.45067C12.1874 6.45067 13.0042 6.61328 13.7663 6.9292C14.5284 7.24512 15.2207 7.70816 15.8036 8.29183C16.3866 8.8755 16.8488 9.56837 17.1639 10.3308C17.4789 11.0932 17.6405 11.9103 17.6395 12.7352C17.6431 13.8277 17.3566 14.9016 16.8092 15.8471Z" fill="#DC1E28"/>
<path d="M11.3621 9.625C10.7358 9.625 10.1235 9.81073 9.60272 10.1587C9.08195 10.5067 8.67606 11.0012 8.43637 11.5799C8.19669 12.1585 8.13397 12.7953 8.25616 13.4096C8.37835 14.0239 8.67996 14.5881 9.12284 15.031C9.56572 15.4739 10.13 15.7755 10.7443 15.8977C11.3586 16.0199 11.9953 15.9572 12.5739 15.7175C13.1526 15.4778 13.6472 15.0719 13.9951 14.5511C14.3431 14.0304 14.5288 13.4181 14.5288 12.7918C14.5279 11.9522 14.1939 11.1473 13.6003 10.5536C13.0066 9.95991 12.2017 9.62596 11.3621 9.625ZM11.3621 14.3752C11.0489 14.3752 10.7428 14.2823 10.4824 14.1083C10.222 13.9343 10.0191 13.687 9.89921 13.3977C9.77937 13.1084 9.74801 12.79 9.80911 12.4829C9.8702 12.1757 10.021 11.8936 10.2424 11.6721C10.4639 11.4507 10.746 11.2999 11.0532 11.2388C11.3603 11.1777 11.6787 11.2091 11.968 11.3289C12.2573 11.4487 12.5046 11.6517 12.6786 11.9121C12.8526 12.1725 12.9455 12.4786 12.9455 12.7918C12.9451 13.2116 12.7781 13.6141 12.4813 13.911C12.1844 14.2078 11.7819 14.3748 11.3621 14.3752V14.3752Z" fill="#DC1E28"/>
</svg>
