<svg width="114" height="63" viewBox="0 0 114 63" fill="none" xmlns="http://www.w3.org/2000/svg">
<g clip-path="url(#clip0_188_167)">
<path d="M16.8486 39.3185H34.2572L40.345 33.0232L31.6395 24.0235L16.8486 39.3185Z" fill="#2B2A29"/>
<path d="M37.4271 18.0386L34.5322 21.0318L52.4232 39.532H58.2101L37.4271 18.0386Z" fill="#E31E24"/>
<path d="M34.5319 21.0318L31.6387 24.0235L40.3441 33.0232L46.6377 39.5319H52.4229L34.5319 21.0318Z" fill="#FECC00"/>
<path d="M75.4844 39.3185H92.8959L54.8721 0L37.4277 18.0386L58.2107 39.5319H63.9994L49.0436 24.067L49.0268 24.0482L54.8721 18.0025L75.4844 39.3185Z" fill="#2B2A29"/>
<path d="M3.62311 54.7427H9.56687V57.5602H3.62311V62.2578H0.5V49.1453H10.3047V51.9831H3.62311V54.7427Z" fill="#2B2A29"/>
<path d="M20.0116 62.2578L19.1241 59.8716H13.7862L12.8957 62.2578H9.5459L14.8451 49.1453H18.044L23.3435 62.2578H20.0116ZM16.4553 52.7854L14.8451 57.0915H18.081L16.4553 52.7854Z" fill="#2B2A29"/>
<path d="M36.648 57.3455C36.3566 58.9647 35.6318 60.2373 34.4704 61.1613C33.3098 62.0884 31.9025 62.5514 30.2504 62.5514C28.37 62.5514 26.7768 61.8921 25.471 60.5748C24.1649 59.2576 23.5117 57.6327 23.5117 55.703C23.5117 53.7835 24.1649 52.1628 25.471 50.8384C26.7768 49.5137 28.37 48.852 30.2504 48.852C31.8391 48.852 33.2259 49.3077 34.4043 50.2215C35.5845 51.1358 36.326 52.3545 36.6292 53.8806L33.5619 54.683C33.3728 53.7313 32.9857 53.0132 32.3972 52.5312C31.812 52.0485 31.0955 51.8074 30.2504 51.8074C29.2411 51.8074 28.3853 52.1788 27.6862 52.9233C26.9849 53.6676 26.6354 54.593 26.6354 55.703C26.6354 56.8113 26.9849 57.7399 27.6862 58.4901C28.3853 59.2403 29.2411 59.6145 30.2504 59.6145C31.0832 59.6145 31.7926 59.3678 32.3791 58.8718C32.9668 58.3755 33.3669 57.64 33.5816 56.6607L36.648 57.3455Z" fill="#2B2A29"/>
<path d="M49.9709 62.2578H46.8671V57.0712H41.5302V62.2578H38.4072V49.1453H41.5302V54.2537H46.8671V49.1453H49.9709V62.2578Z" fill="#2B2A29"/>
<path d="M66.8151 62.2578H63.7869V55.7207L60.4738 62.2578H58.5429L55.2115 55.6827V62.2578H52.1846V49.1453H55.2502L59.5085 57.267L63.7676 49.1453H66.8151V62.2578Z" fill="#2B2A29"/>
<path d="M78.3773 62.2578L77.487 59.8716H72.1508L71.2607 62.2578H67.9102L73.2097 49.1453H76.4089L81.7098 62.2578H78.3773ZM74.8183 52.7854L73.2097 57.0915H76.4477L74.8183 52.7854Z" fill="#2B2A29"/>
<path d="M94.9199 62.2578H92.3466L85.9284 54.6657V62.2578H82.8057V49.1453H85.399L91.8141 56.9726V49.1453H94.9199V62.2578Z" fill="#2B2A29"/>
<path d="M109.246 62.2578H106.67L100.255 54.6657V62.2578H97.1309V49.1453H99.7252L106.139 56.9726V49.1453H109.246V62.2578Z" fill="#2B2A29"/>
<path d="M113.778 49.7294C113.778 48.8087 113.045 48.0753 112.124 48.0753C111.211 48.0753 110.47 48.8087 110.47 49.7294C110.47 50.6423 111.211 51.3837 112.124 51.3837C113.045 51.3837 113.778 50.6423 113.778 49.7294ZM113.505 49.7294C113.505 50.4862 112.889 51.1105 112.124 51.1105C111.359 51.1105 110.743 50.4862 110.743 49.7294C110.743 48.9569 111.359 48.3483 112.124 48.3483C112.889 48.3483 113.505 48.9569 113.505 49.7294ZM112.92 50.6814L112.413 49.9244C112.522 49.9244 112.896 49.784 112.896 49.3628C112.896 49.0117 112.576 48.7853 112.257 48.7853H111.484V50.6814H111.773V49.9323H112.077L112.569 50.6814H112.92ZM112.6 49.3628C112.6 49.5578 112.42 49.6826 112.257 49.6826H111.773V49.0271H112.257C112.42 49.0271 112.6 49.1521 112.6 49.3628Z" fill="#2B2A29"/>
</g>
<defs>
<clipPath id="clip0_188_167">
<rect width="113" height="63" fill="white" transform="translate(0.5)"/>
</clipPath>
</defs>
</svg>
