<svg width="57" height="57" viewBox="0 0 57 57" fill="none" xmlns="http://www.w3.org/2000/svg">
<path fill-rule="evenodd" clip-rule="evenodd" d="M22.4495 8.41956L13.6797 18.5231V23.6816H15.833V20.0007H24.017V10.5735H41.2126V23.6816H43.3666V8.41956H22.4495Z" fill="black"/>
<path fill-rule="evenodd" clip-rule="evenodd" d="M15.8278 39.42H41.2112V46.4037L15.8278 46.379V39.42ZM33.7632 28.1289H39.8527V29.6236H35.5543V31.5692H39.315V33.074H35.5543V36.6789H33.7632V28.1289ZM25.0112 28.1289H28.3197C30.5927 28.1289 32.2419 29.9098 32.2818 32.3146C32.3217 34.5211 31.0418 36.6789 28.5908 36.6789H25.0112V28.1289ZM17.1908 28.1289H20.9648C22.4886 28.1289 23.7059 29.2898 23.7059 30.8997C23.7059 32.4375 22.5709 33.5756 20.9648 33.5756H18.9818V36.6795H17.1908V28.1289ZM11.207 25.3872V39.4193H13.6777V48.5298L43.3652 48.559V39.42H45.8358V25.3872H11.207Z" fill="black"/>
<path fill-rule="evenodd" clip-rule="evenodd" d="M18.9824 29.6096V32.124H20.6817C21.6285 32.124 22.106 31.642 22.1358 30.8472C22.1649 29.963 21.3967 29.6096 20.6817 29.6096H18.9824Z" fill="black"/>
<path fill-rule="evenodd" clip-rule="evenodd" d="M26.75 35.2235H28.2307C29.7419 35.2235 30.4607 33.9201 30.4582 32.3146C30.4512 30.7376 29.8115 29.6096 28.0756 29.6096H26.75V35.2235Z" fill="black"/>
</svg>
