<svg width="21" height="20" viewBox="0 0 21 20" fill="none" xmlns="http://www.w3.org/2000/svg">
<path d="M19.1548 15.2355C18.4501 14.5255 16.7432 13.4893 15.9151 13.0718C14.8367 12.5285 14.7479 12.4841 13.9003 13.1139C13.3348 13.5341 12.959 13.9095 12.2973 13.7685C11.6356 13.6273 10.1977 12.8316 8.93861 11.5767C7.67956 10.3217 6.83767 8.84215 6.6961 8.18276C6.55453 7.5233 6.93619 7.15186 7.35248 6.58517C7.93918 5.78639 7.8948 5.65326 7.39331 4.5749C7.00232 3.73618 5.93588 2.04543 5.22314 1.34427C4.46069 0.5912 4.46069 0.72433 3.96941 0.928465C3.56945 1.09673 3.18573 1.30128 2.82308 1.53953C2.113 2.01126 1.71891 2.4031 1.44331 2.99199C1.16771 3.58086 1.04389 4.96143 2.46715 7.54682C3.89041 10.1322 4.88895 11.4542 6.95572 13.5151C9.02245 15.5759 10.6118 16.684 12.935 17.9869C15.8091 19.5965 16.9115 19.2827 17.5021 19.0075C18.0928 18.7325 18.4865 18.3419 18.9591 17.6319C19.198 17.2698 19.403 16.8866 19.5715 16.487C19.7761 15.9975 19.9093 15.9975 19.1548 15.2355Z" stroke="black" stroke-width="1.5" stroke-miterlimit="10"/>
</svg>
