<svg width="1270" height="496" viewBox="0 0 1270 496" fill="none" xmlns="http://www.w3.org/2000/svg">
<g clip-path="url(#clip0_403_2042)">
<path d="M625.655 -78.6036L625.655 117.883L554.602 186.594L453.023 88.3379L625.655 -78.6036Z" fill="#FBD333"/>
<path d="M385.477 153.667L419.26 120.993L628.066 322.924L628.066 388.24L385.477 153.667Z" fill="#F5C70B"/>
<path d="M419.258 120.994L453.024 88.3387L554.603 186.595L628.065 257.629L628.065 322.926L419.258 120.994Z" fill="#FFE373"/>
<path d="M625.657 583.205L625.657 779.725L181.879 350.559L385.476 153.669L628.066 388.241L628.066 453.577L453.517 284.774L453.305 284.584L385.069 350.559L625.657 583.205Z" fill="#FBD333"/>
</g>
<rect x="555" width="774" height="496" fill="#FBD333"/>
<g clip-path="url(#clip1_403_2042)">
<path d="M1278.59 -97L1278.59 180.502L1177.95 277.543L1034.07 138.774L1278.59 -97Z" fill="#F5C70B"/>
<path d="M938.383 231.04L986.235 184.894L1282 470.085L1282 562.331L938.383 231.04Z" fill="#FBD333"/>
<path d="M986.238 184.895L1034.07 138.775L1177.95 277.544L1282 377.867L1282 470.086L986.238 184.895Z" fill="#FFE373"/>
<path d="M1278.59 837.684L1278.59 1115.23L650 509.114L938.384 231.042L1282 562.333L1282 654.608L1034.76 416.204L1034.46 415.937L937.807 509.114L1278.59 837.684Z" fill="#F5C70B"/>
</g>
<defs>
<clipPath id="clip0_403_2042">
<rect width="809" height="496" fill="white"/>
</clipPath>
<clipPath id="clip1_403_2042">
<rect width="632" height="496" fill="white" transform="matrix(-1 0 0 1 1282 0)"/>
</clipPath>
</defs>
</svg>
