<svg width="23" height="23" viewBox="0 0 23 23" fill="none" xmlns="http://www.w3.org/2000/svg">
<g clip-path="url(#clip0_222_3219)">
<path d="M10.4792 0.113331L10.4794 0.113317C13.8607 -0.185915 17.193 1.02457 19.5916 3.4276L19.5917 3.42775C20.5163 4.35674 21.1604 5.26504 21.7622 6.47782L21.7623 6.47805C22.3162 7.59913 22.638 8.63653 22.8385 9.93808L22.8386 9.93876C22.9555 10.7215 22.9465 12.3412 22.8164 13.1798L22.8163 13.18C22.6245 14.4028 22.3069 15.4134 21.7581 16.5292C20.6413 18.807 18.8055 20.6431 16.5316 21.7553L16.4657 21.6205L16.5316 21.7553C15.7301 22.1473 15.2051 22.3448 14.3972 22.559L14.3969 22.5591C11.6808 23.274 8.77724 22.9524 6.28867 21.6613C5.17693 21.0851 4.36229 20.4852 3.44357 19.5667L3.44355 19.5667C2.52505 18.6482 1.92488 17.8333 1.34896 16.7215C-0.107404 13.9113 -0.321847 10.5438 0.768426 7.5772L0.768568 7.57682C1.13995 6.57473 1.82185 5.34909 2.51862 4.45142C2.90113 3.95648 3.95472 2.90289 4.4497 2.52032C6.21696 1.1501 8.33356 0.305511 10.4792 0.113331ZM17.5886 3.53069L17.5883 3.53046C16.1972 2.49137 14.7121 1.86167 12.9812 1.57894C12.7893 1.54762 12.303 1.51687 11.8091 1.49916C11.3142 1.4814 10.8373 1.47768 10.6625 1.49612C8.10896 1.76578 5.9425 2.81283 4.22661 4.6069C1.83751 7.1135 0.899638 10.6359 1.73348 13.9799C2.01182 15.0887 2.49432 16.1964 3.09237 17.0846C5.41342 20.5314 9.45313 22.2242 13.4611 21.4251L13.4613 21.4251C15.3901 21.0427 17.07 20.1615 18.4863 18.7887L18.4864 18.7886C18.753 18.5309 19.0838 18.1824 19.2205 18.0201C22.3003 14.319 22.3657 9.0814 19.3807 5.275L19.3805 5.27476C19.0274 4.82262 18.0585 3.87981 17.5886 3.53069Z" fill="#DC1E28" stroke="#DC1E28" stroke-width="0.3"/>
<path d="M11.2512 11.9708L11.1814 12.1035C11.1756 12.1005 11.1689 12.0972 11.1614 12.0936C11.1106 12.069 11.0254 12.0277 10.9706 11.927C10.9169 11.8284 10.8934 11.6805 10.8785 11.4499C10.8498 11.0074 10.8499 10.1519 10.85 8.44911C10.85 8.32699 10.85 8.20051 10.85 8.06951C10.85 6.36456 10.8511 5.46095 10.8616 4.96904C10.8669 4.72427 10.8745 4.57526 10.8865 4.47856C10.8991 4.37738 10.918 4.31937 10.9525 4.26465L10.9525 4.26463L10.9544 4.26175C10.9874 4.2119 11.0358 4.16363 11.0827 4.12511C11.129 4.08699 11.1853 4.04905 11.2408 4.02591C11.3366 3.98392 11.4246 3.95464 11.5209 3.9538C11.6175 3.95296 11.706 3.98095 11.8021 4.02066L11.8022 4.0207C11.8168 4.02674 11.8304 4.03184 11.8458 4.0376L11.8515 4.03972C11.8681 4.04593 11.8884 4.05358 11.9084 4.06274C11.9514 4.08244 11.9988 4.11156 12.0392 4.16388C12.1115 4.2575 12.1387 4.39901 12.1555 4.60275C12.1865 4.97913 12.1863 5.70376 12.1858 7.1341C12.1858 7.3114 12.1857 7.49954 12.1857 7.69921V10.8244H14.6055C15.3862 10.8244 16.044 10.8288 16.519 10.8366C16.7564 10.8405 16.9489 10.8452 17.0886 10.8506C17.1584 10.8533 17.216 10.8563 17.2599 10.8595C17.2975 10.8622 17.3404 10.866 17.3694 10.8739L17.3697 10.8739C17.52 10.9153 17.6465 10.9879 17.7327 11.1078C17.8179 11.2262 17.8502 11.3722 17.8502 11.5342C17.8502 11.6372 17.8486 11.7298 17.817 11.8115C17.7829 11.8997 17.7211 11.9589 17.6543 12.0168L17.5146 12.1435L17.4717 12.1824H17.4138H14.3898C13.1317 12.1824 12.3697 12.1802 11.9101 12.1714C11.6807 12.167 11.5235 12.1609 11.4165 12.1522C11.3631 12.1479 11.319 12.1427 11.2833 12.1361C11.2499 12.1299 11.2125 12.1205 11.1794 12.1025L11.2512 11.9708ZM11.2512 11.9708C11.3483 12.0237 11.8727 12.0324 14.3898 12.0324H17.4138L17.5548 11.9045M11.2512 11.9708L17.5548 11.9045M17.5548 11.9045C17.6871 11.79 17.7002 11.7502 17.7002 11.5342C17.7002 11.2476 17.5856 11.0889 17.3299 11.0186M17.5548 11.9045L12.1857 10.9744H14.6055C16.1661 10.9744 17.233 10.9921 17.3299 11.0186M17.3299 11.0186L17.3299 11.0186L17.3299 11.0186Z" fill="#DC1E28" stroke="#DC1E28" stroke-width="0.3"/>
</g>
<defs>
<clipPath id="clip0_222_3219">
<rect width="23" height="23" fill="white"/>
</clipPath>
</defs>
</svg>
