<svg width="26" height="26" viewBox="0 0 26 26" fill="none" xmlns="http://www.w3.org/2000/svg">
<path d="M10.9276 4.50547C11.4212 3.83951 11.9503 3.40676 12.4678 3.23084V7.68221C11.473 7.64763 10.5032 7.51565 9.56623 7.29483C9.93906 6.14788 10.4106 5.20296 10.9276 4.50547ZM16.7036 17.6685C15.6803 17.4258 14.621 17.2822 13.5339 17.2466V13.5331H17.2301C17.1932 15.0572 17.0042 16.4504 16.7036 17.6685ZM17.7351 17.9485C18.0658 16.6115 18.2657 15.116 18.3028 13.5331H22.8482C22.7339 15.6678 21.9392 17.6238 20.6751 19.188C19.7455 18.6831 18.7625 18.2658 17.7351 17.9485ZM20.6719 6.80883C21.9368 8.37303 22.7331 10.3307 22.8474 12.467H18.302C18.2648 10.8812 18.0642 9.38577 17.7335 8.04747C18.7608 7.73028 19.743 7.31369 20.6719 6.80883ZM10.3481 22.497C8.70969 22.0385 7.24209 21.1679 6.06565 20.002C6.85033 19.5926 7.67487 19.2504 8.53238 18.983C8.99123 20.4254 9.61278 21.6356 10.3481 22.497ZM13.0009 2.07102H13.0009H13.0008H13.0008H13.0008H13.0008H13.0008H13.0007H13.0007H13.0007H13.0007H13.0007H13.0006H13.0006H13.0006H13.0006H13.0006H13.0006H13.0005H13.0005H13.0005H13.0005H13.0005H13.0004H13.0004H13.0004H13.0004H13.0004H13.0003H13.0003H13.0003H13.0003H13.0003H13.0003H13.0002H13.0002H13.0002H13.0002H13.0002H13.0001H13.0001H13.0001H13.0001H13.0001H13.0001H13H13H13H13H13H12.9999H12.9999H12.9999H12.9999H12.9999H12.9999H12.9998H12.9998H12.9998H12.9998H12.9998H12.9997H12.9997H12.9997H12.9997H12.9997H12.9997H12.9996H12.9996H12.9996H12.9996H12.9996H12.9995H12.9995H12.9995H12.9995H12.9995H12.9995H12.9994H12.9994H12.9994H12.9994H12.9994H12.9994H12.9993H12.9993H12.9993H12.9993H12.9993H12.9992H12.9992H12.9992H12.9992H12.9992H12.9992H12.9991H12.9991H12.9991H12.9991H12.9991H12.9991H12.999H12.999H12.999H12.999H12.999H12.9989H12.9989H12.9989H12.9989H12.9989H12.9989H12.9988H12.9988H12.9988H12.9988H12.9988H12.9988H12.9987H12.9987H12.9987H12.9987H12.9987H12.9987H12.9986H12.9986H12.9986H12.9986H12.9986H12.9985H12.9985H12.9985H12.9985H12.9985H12.9985H12.9984H12.9984H12.9984H12.9984H12.9984H12.9984H12.9983H12.9983H12.9983H12.9983H12.9983H12.9983H12.9982H12.9982H12.9982H12.9982H12.9982H12.9982H12.9981H12.9981H12.9981H12.9981H12.9981H12.9981H12.998H12.998H12.998H12.998H12.998H12.9979H12.9979H12.9979H12.9979H12.9979H12.9979H12.9978H12.9978H12.9978H12.9978H12.9978H12.9978H12.9977H12.9977H12.9977H12.9977H12.9977H12.9977H12.9976H12.9976H12.9976H12.9976H12.9976H12.9976H12.9975H12.9975H12.9975H12.9975H12.9975H12.9975H12.9974H12.9974H12.9974H12.9974H12.9974H12.9974H12.9973H12.9973H12.9973H12.9973H12.9973H12.9973H12.9972H12.9972H12.9972H12.9972H12.9972H12.9972H12.9971H12.9971H12.9971H12.9971H12.9971H12.9971H12.997H12.997H12.997H12.997H12.997H12.997H12.9969H12.9969H12.9969H12.9969H12.9969H12.9969H12.9968H12.9968H12.9968H12.9968H12.9968H12.9968H12.9967H12.9967H12.9967H12.9967H12.9967H12.9967H12.9966H12.9966H12.9966H12.9966H12.9966H12.9966H12.9965H12.9965H12.9965H12.9965H12.9965H12.9965H12.9964H12.9964H12.9964H12.9964H12.9964H12.9964H12.9963H12.9963H12.9963H12.9963H12.9963H12.9963H12.9962H12.9962H12.9962H12.9962H12.9962H12.9962H12.9961H12.9961H12.9961H12.9961H12.9961H12.9961H12.996H12.996H12.996H12.996H12.996H12.996H12.9959H12.9959H12.9959H12.9959H12.9959H12.9959H12.9958H12.9958H12.9958H12.9958H12.9958H12.9958H12.9957H12.9957H12.9957H12.9957H12.9957H12.9957H12.9956H12.9956H12.9956H12.9956H12.9956H12.9956H12.9955H12.9955H12.9955H12.9955H12.9955H12.9955H12.9954H12.9954H12.9954H12.9954H12.9954H12.9954H12.9953H12.9953H12.9953H12.9953H12.9953H12.9953H12.9952H12.9952H12.9952H12.9952H12.9952H12.9952H12.9951H12.9951H12.9951H12.9951H12.9951H12.9951H12.995H12.995H12.995H12.995H12.995H12.9949H12.9949H12.9949H12.9949H12.9949H12.9949H12.9948H12.9948H12.9948H12.9948H12.9948H12.9948H12.9947H12.9947H12.9947H12.9947H12.9947H12.9947H12.9946H12.9946H12.9946H12.9946H12.9946H12.9946H12.9945H12.9945H12.9945H12.9945H12.9945H12.9945H12.9944H12.9944H12.9944H12.9944H12.9944H12.9944H12.9943H12.9943H12.9943H12.9943H12.9943H12.9942H12.9942H12.9942H12.9942H12.9942H12.9942H12.9941H12.9941H12.9941H12.9941H12.9941H12.9941H12.994H12.994H12.994H12.994H12.994H12.994H12.9939H12.9939H12.9939H12.9939H12.9939H12.9938H12.9938H12.9938H12.9938H12.9938H12.9938H12.9937H12.9937H12.9937H12.9937H12.9937H12.9937H12.9936H12.9936H12.9936H12.9936H12.9936H12.9935H12.9935H12.9935H12.9935H12.9935H12.9935H12.9934H12.9934H12.9934H12.9934H12.9934H12.9934H12.9933H12.9933H12.9933H12.9933H12.9933H12.9932H12.9932H12.9932H12.9932H12.9932H12.9932H12.9931H12.9931H12.9931H12.9931H12.9931H12.993H12.993H12.993H12.993H12.993H12.993H12.9929H12.9929H12.9929H12.9929H12.9929H12.9929H12.9928H12.9928H12.9928H12.9928H12.9928H12.9927H12.9927H12.9927H12.9927H12.9927H12.9926H12.9926H12.9926H12.9926H12.9926H12.9926H12.9925H12.9925H12.9925H12.9925H12.9925H12.9924H12.9924H12.9924H12.9924H12.9924H12.9924H12.9923H12.9923H12.9923H12.9923H12.9923H12.9922H12.9922H12.9922H12.9922H12.9922H12.9921H12.9921H12.9921H12.9921H12.9921H12.9921H12.992H12.992H12.992H12.992H12.992H12.9919H12.9919H12.9919H12.9919H12.9919H12.9919H12.9919H12.9919H12.9919H12.9919H12.9918H12.9918H12.9918H12.9918H12.9918H12.9918H12.9918H12.9918H12.9918H12.9918H12.9918H12.9917H12.9917H12.9917H12.9917H12.9917H12.9917H12.9917H12.9917H12.9917H12.9917H12.9917H12.9916H12.9916H12.9916H12.9916H12.9916H12.9916H12.9916H12.9916H12.9916H12.9916H12.9916H12.9915H12.9915H12.9915H12.9915H12.9915H12.9915H12.9915H12.9915H12.9915H12.9915H12.9915H12.9914H12.9914H12.9914H12.9914H12.9914H12.9914H12.9914H12.9914H12.9914H12.9914H12.9914H12.9914H12.9913H12.9913H12.9913H12.9913H12.9913H12.9913H12.9913H12.9913H12.9913H12.9913H12.9913H12.9913H12.9912H12.9912H12.9912H12.9912H12.9912H12.9912H12.9912H12.9912H12.9912H12.9912H12.9912H12.9912H12.9911H12.9911H12.9911H12.9911H12.9911H12.9911H12.9911H12.9911H12.9911H12.9911H12.9911H12.9911H12.9911H12.991H12.991H12.991H12.991H12.991H12.991H12.991H12.991H12.991H12.991H12.991H12.991H12.9909H12.9909H12.9909H12.9909H12.9909H12.9909H12.9909H12.9909H12.9909H12.9909H12.9909H12.9909H12.9909H12.9908H12.9908H12.9908H12.9908H12.9908H12.9908H12.9908H12.9908H12.9908H12.9908H12.9908H12.9908H12.9908H12.9907H12.9907H12.9907H12.9907H12.9907H12.9907H12.9907H12.9907H12.9907H12.9907H12.9907H12.9907H12.9906H12.9906H12.9906H12.9906H12.9906H12.9906H12.9906H12.9906H12.9906H12.9906H12.9906H12.9906H12.9905H12.9905H12.9905H12.9905H12.9905H12.9905H12.9905H12.9905H12.9905H12.9904H12.9904H12.9904H12.9904H12.9904H12.9904H12.9904H12.9904H12.9904H12.9904H12.9903H12.9903H12.9903H12.9903H12.9903H12.9903H12.9903H12.9903H12.9902H12.9902H12.9902H12.9902H12.9902H12.9902H12.9902H12.9901H12.9901H12.9901H12.9901H12.9901H12.9901H12.9901H12.9901H12.99H12.99H12.99H12.99H12.99H12.99H12.99H12.9899H12.9899H12.9899H12.9899H12.9899H12.9899H12.9899H12.9898H12.9898H12.9898H12.9898H12.9898H12.9898H12.9898H12.9897H12.9897H12.9897H12.9897H12.9897H12.9897H12.9897H12.9897H12.9896H12.9896H12.9896H12.9896H12.9896H12.9896H12.9896H12.9895H12.9895H12.9895H12.9895H12.9895H12.9895H12.9895H12.9895H12.9895H12.9894H12.9894H12.9894H12.9894H12.9894H12.9894H12.9894H12.9894H12.9894H12.9893H12.9893H12.9893H12.9893H12.9893H12.9893H12.9893H12.9893H12.9893H12.9893H12.9892H12.9892H12.9892H12.9892H12.9892H12.9892H12.9892H12.9892H12.9892H12.9892H12.9892H12.9892H12.9891H12.9891H12.9891H12.9891H12.9891H12.9891H12.9891H12.9891H12.9891H12.9891H12.9891H12.9891H12.989H12.989H12.989H12.989H12.989H12.989H12.989H12.989H12.989H12.989H12.989H12.989H12.989H12.9889H12.9889H12.9889H12.9889H12.9889H12.9889H12.9889H12.9889H12.9889H12.9889H12.9889H12.9889H12.9888H12.9888H12.9888H12.9888H12.9888H12.9888H12.9888H12.9888H12.9888H12.9888H12.9888H12.9888H12.9888H12.9887H12.9887H12.9887H12.9887H12.9887H12.9887H12.9887H12.9887H12.9887H12.9887H12.9887H12.9887H12.9886H12.9886H12.9886H12.9886H12.9886H12.9886H12.9886H12.9886H12.9886H12.9886H12.9886H12.9886H12.9886H12.9885H12.9885H12.9885H12.9885H12.9885H12.9885H12.9885H12.9885H12.9885H12.9885H12.9885H12.9884H12.9884H12.9884H12.9884H12.9884H12.9884H12.9884H12.9884H12.9884H12.9884H12.9884H12.9884H12.9883H12.9883H12.9883H12.9883H12.9883H12.9883H12.9883H12.9883H12.9883H12.9883H12.9883H12.9883H12.9882H12.9882H12.9882H12.9882H12.9882H12.9882H12.9882H12.9882H12.9882H12.9882H12.9882H12.9881H12.9881H12.9881H12.9881H12.9881H12.9881H12.9881H12.9881H12.9881H12.9881H12.9881H12.988H12.988H12.988H12.988H12.988H12.988H12.988H12.988H12.988H12.988H12.988H12.9879H12.9879H12.9879H12.9879H12.9879H12.9879H12.9879H12.9879C12.9836 2.07102 12.98 2.07123 12.9774 2.07142L12.9726 2.07184C6.949 2.08685 2.07187 6.97366 2.07187 13C2.07187 19.0245 6.94865 23.912 12.972 23.9282C12.9733 23.9283 12.9756 23.9285 12.9786 23.9287C12.9813 23.9289 12.9845 23.929 12.9879 23.929H12.9879H12.9879H12.9879H12.988H12.988H12.988H12.988H12.988H12.988H12.9881H12.9881H12.9881H12.9881H12.9881H12.9882H12.9882H12.9882H12.9882H12.9882H12.9883H12.9883H12.9883H12.9883H12.9883H12.9883H12.9884H12.9884H12.9884H12.9884H12.9884H12.9885H12.9885H12.9885H12.9885H12.9885H12.9886H12.9886H12.9886H12.9886H12.9886H12.9887H12.9887H12.9887H12.9887H12.9887H12.9887H12.9888H12.9888H12.9888H12.9888H12.9888H12.9889H12.9889H12.9889H12.9889H12.9889H12.989H12.989H12.989H12.989H12.989H12.989H12.9891H12.9891H12.9891H12.9891H12.9891H12.9892H12.9892H12.9892H12.9892H12.9892H12.9892H12.9893H12.9893H12.9893H12.9893H12.9893H12.9894H12.9894H12.9894H12.9894H12.9894H12.9894H12.9895H12.9895H12.9895H12.9895H12.9895H12.9896H12.9896H12.9896H12.9896H12.9896H12.9896H12.9897H12.9897H12.9897H12.9897H12.9897H12.9897H12.9898H12.9898H12.9898H12.9898H12.9898H12.9899H12.9899H12.9899H12.9899H12.9899H12.9899H12.99H12.99H12.99H12.99H12.99H12.99H12.9901H12.9901H12.9901H12.9901H12.9901H12.9901H12.9902H12.9902H12.9902H12.9902H12.9902H12.9902H12.9903H12.9903H12.9903H12.9903H12.9903H12.9903H12.9904H12.9904H12.9904H12.9904H12.9904H12.9904H12.9905H12.9905H12.9905H12.9905H12.9905H12.9905H12.9906H12.9906H12.9906H12.9906H12.9906H12.9906H12.9906H12.9907H12.9907H12.9907H12.9907H12.9907H12.9907H12.9908H12.9908H12.9908H12.9908H12.9908H12.9908H12.9908H12.9909H12.9909H12.9909H12.9909H12.9909H12.9909H12.9909H12.991H12.991H12.991H12.991H12.991H12.991H12.991H12.9911H12.9911H12.9911H12.9911H12.9911H12.9912H12.9912H12.9912H12.9912H12.9912H12.9912H12.9913H12.9913H12.9913H12.9913H12.9913H12.9914H12.9914H12.9914H12.9914H12.9914H12.9915H12.9915H12.9915H12.9915H12.9915H12.9915H12.9916H12.9916H12.9916H12.9916H12.9916H12.9917H12.9917H12.9917H12.9917H12.9917H12.9917H12.9918H12.9918H12.9918H12.9918H12.9918H12.9918H12.9918H12.9919H12.9919H12.9919H12.9919H12.9919H12.9919H12.992H12.992H12.992H12.992H12.992H12.9921H12.9921H12.9921H12.9921H12.9921H12.9921H12.9922H12.9922H12.9922H12.9922H12.9922H12.9923H12.9923H12.9923H12.9923H12.9923H12.9924H12.9924H12.9924H12.9924H12.9924H12.9925H12.9925H12.9925H12.9925H12.9925H12.9925H12.9926H12.9926H12.9926H12.9926H12.9926H12.9927H12.9927H12.9927H12.9927H12.9927H12.9928H12.9928H12.9928H12.9928H12.9928H12.9929H12.9929H12.9929H12.9929H12.9929H12.9929H12.993H12.993H12.993H12.993H12.993H12.9931H12.9931H12.9931H12.9931H12.9931H12.9932H12.9932H12.9932H12.9932H12.9932H12.9932H12.9933H12.9933H12.9933H12.9933H12.9933H12.9934H12.9934H12.9934H12.9934H12.9934H12.9935H12.9935H12.9935H12.9935H12.9935H12.9936H12.9936H12.9936H12.9936H12.9936H12.9936H12.9937H12.9937H12.9937H12.9937H12.9937H12.9938H12.9938H12.9938H12.9938H12.9938H12.9939H12.9939H12.9939H12.9939H12.9939H12.9939H12.994H12.994H12.994H12.994H12.994H12.9941H12.9941H12.9941H12.9941H12.9941H12.9942H12.9942H12.9942H12.9942H12.9942H12.9943H12.9943H12.9943H12.9943H12.9943H12.9943H12.9944H12.9944H12.9944H12.9944H12.9944H12.9945H12.9945H12.9945H12.9945H12.9945H12.9945H12.9946H12.9946H12.9946H12.9946H12.9946H12.9947H12.9947H12.9947H12.9947H12.9947H12.9948H12.9948H12.9948H12.9948H12.9948H12.9948H12.9949H12.9949H12.9949H12.9949H12.9949H12.995H12.995H12.995H12.995H12.995H12.9951H12.9951H12.9951H12.9951H12.9951H12.9951H12.9952H12.9952H12.9952H12.9952H12.9952H12.9953H12.9953H12.9953H12.9953H12.9953H12.9953H12.9954H12.9954H12.9954H12.9954H12.9954H12.9955H12.9955H12.9955H12.9955H12.9955H12.9956H12.9956H12.9956H12.9956H12.9956H12.9956H12.9957H12.9957H12.9957H12.9957H12.9957H12.9958H12.9958H12.9958H12.9958H12.9958H12.9958H12.9959H12.9959H12.9959H12.9959H12.9959H12.996H12.996H12.996H12.996H12.996H12.996H12.9961H12.9961H12.9961H12.9961H12.9961H12.9962H12.9962H12.9962H12.9962H12.9962H12.9962H12.9963H12.9963H12.9963H12.9963H12.9963H12.9964H12.9964H12.9964H12.9964H12.9964H12.9964H12.9965H12.9965H12.9965H12.9965H12.9965H12.9966H12.9966H12.9966H12.9966H12.9966H12.9966H12.9967H12.9967H12.9967H12.9967H12.9967H12.9967H12.9968H12.9968H12.9968H12.9968H12.9968H12.9969H12.9969H12.9969H12.9969H12.9969H12.9969H12.997H12.997H12.997H12.997H12.997H12.997H12.9971H12.9971H12.9971H12.9971H12.9971H12.9972H12.9972H12.9972H12.9972H12.9972H12.9972H12.9973H12.9973H12.9973H12.9973H12.9973H12.9973H12.9974H12.9974H12.9974H12.9974H12.9974H12.9975H12.9975H12.9975H12.9975H12.9975H12.9975H12.9976H12.9976H12.9976H12.9976H12.9976H12.9976H12.9977H12.9977H12.9977H12.9977H12.9977H12.9977H12.9978H12.9978H12.9978H12.9978H12.9978H12.9979H12.9979H12.9979H12.9979H12.9979H12.9979H12.998H12.998H12.998H12.998H12.998H12.998H12.9981H12.9981H12.9981H12.9981H12.9981H12.9981H12.9982H12.9982H12.9982H12.9982H12.9982H12.9982H12.9983H12.9983H12.9983H12.9983H12.9983H12.9983H12.9984H12.9984H12.9984H12.9984H12.9984H12.9984H12.9985H12.9985H12.9985H12.9985H12.9985H12.9985H12.9986H12.9986H12.9986H12.9986H12.9986H12.9986H12.9987H12.9987H12.9987H12.9987H12.9987H12.9987H12.9988H12.9988H12.9988H12.9988H12.9988H12.9988H12.9989H12.9989H12.9989H12.9989H12.9989H12.9989H12.999H12.999H12.999H12.999H12.999H12.999H12.9991H12.9991H12.9991H12.9991H12.9991H12.9991H12.9992H12.9992H12.9992H12.9992H12.9992H12.9992H12.9992H12.9993H12.9993H12.9993H12.9993H12.9993H12.9993H12.9994H12.9994H12.9994H12.9994H12.9994H12.9994H12.9995H12.9995H12.9995H12.9995H12.9995H12.9995H12.9996H12.9996H12.9996H12.9996H12.9996H12.9996H12.9996H12.9997H12.9997H12.9997H12.9997H12.9997H12.9997H12.9998H12.9998H12.9998H12.9998H12.9998H12.9998H12.9998H12.9999H12.9999H12.9999H12.9999H12.9999H12.9999H13H13H13H13H13H13H13H13.0001H13.0001H13.0001H13.0001H13.0001H13.0001H13.0002H13.0002H13.0002H13.0002H13.0002H13.0002H13.0002H13.0003H13.0003H13.0003H13.0003H13.0003H13.0003H13.0003H13.0004H13.0004H13.0004H13.0004H13.0004H13.0004H13.0005H13.0005H13.0005H13.0005H13.0005H13.0005H13.0005H13.0006H13.0006H13.0006H13.0006H13.0006H13.0006H13.0006H13.0007H13.0007H13.0007H13.0007H13.0007H13.0007H13.0007H13.0008H13.0008H13.0008H13.0008H13.0008H13.0008H13.0008H13.0009H13.0009C19.0361 23.929 23.9299 19.0352 23.9299 13C23.9299 6.96479 19.0361 2.07102 13.0009 2.07102ZM13.5339 12.467V8.74851C14.6206 8.71212 15.6796 8.56925 16.702 8.32667C17.0034 9.5457 17.1932 10.9412 17.2301 12.467H13.5339ZM13.5339 7.68219V3.24275C14.0475 3.42607 14.572 3.86122 15.0608 4.52521C15.5734 5.22155 16.0408 6.16147 16.4103 7.3011C15.4815 7.51806 14.5198 7.64772 13.5339 7.68219ZM9.27368 8.32182C10.3042 8.56685 11.3721 8.71202 12.4678 8.74779V12.467H8.74484C8.78174 10.9388 8.97154 9.54169 9.27368 8.32182ZM8.24223 8.04251C7.91078 9.38104 7.71015 10.8795 7.67292 12.467H3.15432C3.26868 10.3323 4.06412 8.37549 5.32741 6.81133C6.24894 7.31289 7.2231 7.727 8.24223 8.04251ZM5.32739 19.1887C4.06332 17.6246 3.26788 15.6678 3.15428 13.5331H7.67292C7.71015 15.1198 7.91079 16.6183 8.24225 17.9568C7.22385 18.273 6.24898 18.6871 5.32739 19.1887ZM9.2729 17.6749C8.97151 16.4558 8.78174 15.0596 8.74484 13.5331H12.4678V17.2474C11.3721 17.2832 10.3041 17.4291 9.2729 17.6749ZM12.4678 18.313V22.77C11.9499 22.5936 11.4202 22.1603 10.9262 21.4935C10.4088 20.7951 9.93701 19.8489 9.56453 18.7004C10.5016 18.4795 11.4722 18.3475 12.4678 18.313ZM13.5339 22.7582V18.3139C14.5206 18.349 15.4823 18.4787 16.4112 18.6957C16.0416 19.8366 15.5742 20.7777 15.0615 21.4749C14.5725 22.1397 14.0479 22.5752 13.5339 22.7582ZM15.6191 3.49288C17.2701 3.94881 18.7492 4.82179 19.934 5.99443C19.1419 6.40665 18.3105 6.752 17.4443 7.02046C16.9836 5.57112 16.3587 4.3563 15.6191 3.49288ZM8.53322 7.01216C7.67634 6.74475 6.85247 6.40324 6.06848 5.99451C7.24426 4.83058 8.71123 3.95993 10.3484 3.50212C9.61367 4.36303 8.99211 5.57112 8.53322 7.01216ZM17.4459 18.9756C18.3125 19.2447 19.1446 19.5889 19.9367 20.003C18.7517 21.1767 17.2716 22.0519 15.619 22.5067C16.3593 21.6432 16.9844 20.4279 17.4459 18.9756Z" fill="#DC1E28" stroke="#DC1E28" stroke-width="0.2"/>
</svg>
