<svg width="25" height="18" viewBox="0 0 25 18" fill="none" xmlns="http://www.w3.org/2000/svg">
<path d="M20.6704 0.450195H4.33039C3.22179 0.450195 2.15859 0.890587 1.37468 1.67449C0.590782 2.45839 0.150391 3.52159 0.150391 4.6302V13.3702C0.150391 14.4788 0.590782 15.542 1.37468 16.3259C2.15859 17.1098 3.22179 17.5502 4.33039 17.5502H20.6704C21.779 17.5502 22.8422 17.1098 23.6261 16.3259C24.41 15.542 24.8504 14.4788 24.8504 13.3702V4.6302C24.8504 3.52159 24.41 2.45839 23.6261 1.67449C22.8422 0.890587 21.779 0.450195 20.6704 0.450195ZM17.3378 9.16739L9.92779 12.9674C9.89894 12.9823 9.86674 12.9896 9.83427 12.9886C9.80179 12.9875 9.77013 12.9782 9.7423 12.9614C9.71448 12.9446 9.69141 12.921 9.67532 12.8928C9.65923 12.8646 9.65065 12.8327 9.65039 12.8002V5.2002C9.65065 5.16771 9.65923 5.13582 9.67532 5.1076C9.69141 5.07937 9.71448 5.05574 9.7423 5.03897C9.77013 5.0222 9.80179 5.01284 9.83427 5.0118C9.86674 5.01075 9.89894 5.01805 9.92779 5.033L17.3378 8.833C17.3689 8.84894 17.395 8.87316 17.4133 8.903C17.4315 8.93284 17.4412 8.96713 17.4412 9.0021C17.4412 9.03706 17.4315 9.07135 17.4133 9.10119C17.395 9.13103 17.3689 9.15525 17.3378 9.1712V9.16739Z" fill="white"/>
</svg>
