<svg width="26" height="18" viewBox="0 0 26 18" fill="none" xmlns="http://www.w3.org/2000/svg">
<path d="M21.1684 0.449951H4.82844C3.71983 0.449951 2.65663 0.890343 1.87273 1.67424C1.08883 2.45815 0.648438 3.52135 0.648438 4.62995V13.37C0.648438 14.4786 1.08883 15.5418 1.87273 16.3257C2.65663 17.1096 3.71983 17.55 4.82844 17.55H21.1684C22.277 17.55 23.3402 17.1096 24.1241 16.3257C24.908 15.5418 25.3484 14.4786 25.3484 13.37V4.62995C25.3484 3.52135 24.908 2.45815 24.1241 1.67424C23.3402 0.890343 22.277 0.449951 21.1684 0.449951ZM17.8358 9.16715L10.4258 12.9672C10.397 12.9821 10.3648 12.9894 10.3323 12.9884C10.2998 12.9873 10.2682 12.9779 10.2403 12.9612C10.2125 12.9444 10.1895 12.9208 10.1734 12.8925C10.1573 12.8643 10.1487 12.8324 10.1484 12.8V5.19995C10.1487 5.16746 10.1573 5.13558 10.1734 5.10735C10.1895 5.07913 10.2125 5.0555 10.2403 5.03873C10.2682 5.02195 10.2998 5.0126 10.3323 5.01155C10.3648 5.01051 10.397 5.0178 10.4258 5.03275L17.8358 8.83275C17.867 8.8487 17.8931 8.87292 17.9113 8.90275C17.9296 8.93259 17.9392 8.96688 17.9392 9.00185C17.9392 9.03682 17.9296 9.07111 17.9113 9.10095C17.8931 9.13078 17.867 9.15501 17.8358 9.17095V9.16715Z" fill="black"/>
</svg>
