<svg width="25" height="18" viewBox="0 0 25 18" fill="none" xmlns="http://www.w3.org/2000/svg">
<path d="M20.6704 0.450012H4.33039C3.22179 0.450012 2.15859 0.890404 1.37468 1.67431C0.590782 2.45821 0.150391 3.52141 0.150391 4.63001V13.37C0.150391 14.4786 0.590782 15.5418 1.37468 16.3257C2.15859 17.1096 3.22179 17.55 4.33039 17.55H20.6704C21.779 17.55 22.8422 17.1096 23.6261 16.3257C24.41 15.5418 24.8504 14.4786 24.8504 13.37V4.63001C24.8504 3.52141 24.41 2.45821 23.6261 1.67431C22.8422 0.890404 21.779 0.450012 20.6704 0.450012ZM17.3378 9.16721L9.92779 12.9672C9.89894 12.9822 9.86674 12.9895 9.83427 12.9884C9.80179 12.9874 9.77013 12.978 9.7423 12.9612C9.71448 12.9445 9.69141 12.9208 9.67532 12.8926C9.65923 12.8644 9.65065 12.8325 9.65039 12.8V5.20001C9.65065 5.16752 9.65923 5.13564 9.67532 5.10741C9.69141 5.07919 9.71448 5.05556 9.7423 5.03879C9.77013 5.02201 9.80179 5.01266 9.83427 5.01161C9.86674 5.01057 9.89894 5.01787 9.92779 5.03281L17.3378 8.83281C17.3689 8.84876 17.395 8.87298 17.4133 8.90282C17.4315 8.93265 17.4412 8.96694 17.4412 9.00191C17.4412 9.03688 17.4315 9.07117 17.4133 9.10101C17.395 9.13084 17.3689 9.15507 17.3378 9.17101V9.16721Z" fill="black"/>
</svg>
