<svg width="58" height="57" viewBox="0 0 58 57" fill="none" xmlns="http://www.w3.org/2000/svg">
<path fill-rule="evenodd" clip-rule="evenodd" d="M22.5706 8.41953L13.7715 18.5231V23.6816H15.932V20.0007H24.1433V10.5735H41.3965V23.6816H43.5576V8.41953H22.5706Z" fill="black"/>
<path fill-rule="evenodd" clip-rule="evenodd" d="M15.9273 39.42H41.3955V46.4037L15.9273 46.379V39.42ZM33.9226 28.1289H40.0325V29.6236H35.7197V31.5692H39.493V33.074H35.7197V36.6789H33.9226V28.1289ZM25.1413 28.1289H28.4609C30.7416 28.1289 32.3963 29.9098 32.4363 32.3146C32.4763 34.5211 31.1921 36.6789 28.7329 36.6789H25.1413V28.1289ZM17.2948 28.1289H21.0814C22.6103 28.1289 23.8317 29.2898 23.8317 30.8997C23.8317 32.4375 22.6929 33.5756 21.0814 33.5756H19.0918V36.6795H17.2948V28.1289ZM11.291 25.3872V39.4193H13.7699V48.5298L43.5567 48.559V39.42H46.0356V25.3872H11.291Z" fill="black"/>
<path fill-rule="evenodd" clip-rule="evenodd" d="M19.0918 29.6096V32.1239H20.7967C21.7467 32.1239 22.2258 31.642 22.2557 30.8471C22.2849 29.963 21.5141 29.6096 20.7967 29.6096H19.0918Z" fill="black"/>
<path fill-rule="evenodd" clip-rule="evenodd" d="M26.8867 35.2235H28.3724C29.8886 35.2235 30.6098 33.9201 30.6073 32.3146C30.6003 30.7376 29.9585 29.6096 28.2167 29.6096H26.8867V35.2235Z" fill="black"/>
<rect x="14" y="27" width="29" height="11" fill="black"/>
<path d="M25.7 37H18.588V35.39L22.998 29.412H18.588V27.662H25.602V29.258L21.192 35.25H25.7V37ZM29.1972 37H27.2092V27.662H29.1972V37ZM33.039 37H31.051V27.662H35.419C36.399 27.662 37.1643 27.9513 37.715 28.53C38.275 29.0993 38.555 29.8133 38.555 30.672C38.555 31.5213 38.275 32.2353 37.715 32.814C37.155 33.3927 36.3896 33.682 35.419 33.682H33.039V37ZM35.153 31.932C35.5543 31.932 35.881 31.82 36.133 31.596C36.3943 31.3627 36.525 31.0547 36.525 30.672C36.525 30.2893 36.3943 29.986 36.133 29.762C35.881 29.5287 35.5543 29.412 35.153 29.412H33.039V31.932H35.153Z" fill="white"/>
</svg>
